<svg width="16" height="16" xmlns="http://www.w3.org/2000/svg">
	<path style="fill:#FFEA5C;" d="M8.005,0.152c-4.337,0-7.853,3.516-7.853,7.853c0,4.337,3.516,7.853,7.853,7.853
		c4.337,0,7.853-3.516,7.853-7.853C15.858,3.668,12.342,0.152,8.005,0.152z M11.371,9.124H4.639c-0.62,0-1.122-0.502-1.122-1.122
		c0-0.62,0.502-1.122,1.122-1.122h6.731c0.62,0,1.122,0.502,1.122,1.122C12.492,8.622,11.99,9.124,11.371,9.124z"/>
	<path style="fill:#988319;" d="M11.371,6.881H4.639c-0.62,0-1.122,0.502-1.122,1.122c0,0.62,0.502,1.122,1.122,1.122h6.731
		c0.62,0,1.122-0.502,1.122-1.122C12.492,7.383,11.99,6.881,11.371,6.881z"/>
</svg>
