<svg width="16" height="16" xmlns="http://www.w3.org/2000/svg">
	<path style="fill:#E03D36;" d="M8.005,0.152c-4.337,0-7.853,3.516-7.853,7.853c0,4.337,3.516,7.853,7.853,7.853
		c4.337,0,7.853-3.516,7.853-7.853C15.858,3.668,12.342,0.152,8.005,0.152z M8.005,15.297c-4.027,0-7.292-3.265-7.292-7.292
		s3.265-7.292,7.292-7.292c4.027,0,7.292,3.265,7.292,7.292S12.032,15.297,8.005,15.297z"/>
	<path style="fill:#FF5F57;" d="M8.005,0.713c-4.027,0-7.292,3.265-7.292,7.292s3.265,7.292,7.292,7.292
		c4.027,0,7.292-3.265,7.292-7.292S12.032,0.713,8.005,0.713z M11.178,9.592c0.439,0.439,0.439,1.147,0,1.587
		c-0.44,0.44-1.147,0.44-1.587,0L8.005,9.592l-1.587,1.587c-0.44,0.44-1.147,0.44-1.587,0c-0.439-0.44-0.439-1.147,0-1.587
		l1.587-1.587L4.832,6.419c-0.439-0.439-0.439-1.147,0-1.587c0.44-0.44,1.147-0.44,1.587,0l1.587,1.587l1.587-1.587
		c0.44-0.44,1.147-0.44,1.587,0c0.439,0.439,0.439,1.147,0,1.587L9.592,8.005L11.178,9.592z"/>
	<path style="fill:#7F0808;" d="M11.178,4.832c-0.44-0.44-1.147-0.44-1.587,0L8.005,6.419L6.418,4.832
		c-0.44-0.44-1.147-0.44-1.587,0c-0.439,0.439-0.439,1.147,0,1.587l1.587,1.587L4.832,9.592c-0.439,0.44-0.439,1.147,0,1.587
		c0.44,0.44,1.147,0.44,1.587,0l1.587-1.587l1.587,1.587c0.44,0.44,1.147,0.44,1.587,0c0.439-0.44,0.439-1.147,0-1.587L9.592,8.005
		l1.587-1.587C11.618,5.979,11.618,5.271,11.178,4.832z"/>
</svg>