<svg width="16" height="16" xmlns="http://www.w3.org/2000/svg" fill="context-fill" fill-opacity="context-fill-opacity">
<path d="M6.728,7.998l3.696-3.593c0.104-0.101,0.162-0.235,0.161-0.379c0-0.143-0.057-0.277-0.161-0.377
	c-0.203-0.199-0.557-0.2-0.764-0.001L5.576,7.62C5.472,7.721,5.415,7.856,5.415,7.998c0,0.143,0.057,0.277,0.161,0.378l4.084,3.97
	c0.105,0.103,0.244,0.154,0.382,0.154s0.276-0.051,0.381-0.153c0.103-0.1,0.161-0.235,0.161-0.378
	c0.001-0.143-0.057-0.277-0.161-0.379L6.728,7.998z"/>
</svg>