<svg width="16" height="16" xmlns="http://www.w3.org/2000/svg" fill="context-fill" fill-opacity="context-fill-opacity">
<path d="M10.422,7.62l-4.08-3.965c-0.205-0.2-0.56-0.198-0.763-0.001c-0.103,0.1-0.161,0.234-0.161,0.377
	c0,0.143,0.057,0.277,0.161,0.378l3.692,3.588l-3.692,3.589c-0.103,0.101-0.161,0.235-0.161,0.378c0,0.143,0.057,0.277,0.161,0.377
	c0.105,0.102,0.243,0.153,0.381,0.153c0.138,0,0.275-0.051,0.381-0.154l4.08-3.966c0.103-0.1,0.161-0.234,0.161-0.378
	C10.583,7.855,10.525,7.721,10.422,7.62z"/>
</svg>