<svg width="16" height="16" xmlns="http://www.w3.org/2000/svg" fill="context-fill" fill-opacity="context-fill-opacity">
<path d="M13.229,1.634c-0.528-0.415-1.103,0.217-0.662,0.709C14.136,3.806,15.029,5.854,15.031,8
	c-0.002,2.15-0.898,4.203-2.474,5.668c-0.432,0.456,0.174,1.112,0.656,0.705C14.986,12.727,15.996,10.418,16,8
	C15.997,5.585,14.994,3.281,13.229,1.634z M13.096,8.023c-0.003,1.843-0.771,3.601-2.122,4.855c-0.481,0.397-1.09-0.268-0.645-0.691
	c1.158-1.076,1.816-2.584,1.818-4.165c-0.003-1.576-0.659-3.081-1.811-4.155c-0.489-0.481,0.092-1.202,0.649-0.695
	C12.329,4.428,13.094,6.183,13.096,8.023z M10.27,8.015c-0.002,1.277-0.534,2.497-1.471,3.367c-0.497,0.389-1.062-0.276-0.626-0.672
	c0.749-0.696,1.175-1.673,1.176-2.695c-0.002-1.02-0.426-1.994-1.172-2.689c-0.435-0.47,0.15-1.127,0.629-0.672
	C9.738,5.523,10.269,6.739,10.27,8.015z M6.5,13.4c0,0.085-0.099,0.131-0.164,0.077L3,10.696H0.923C0.413,10.696,0,10.283,0,9.774
	V6.227c0-0.51,0.413-0.923,0.923-0.923H3l3.337-2.781C6.402,2.469,6.501,2.515,6.501,2.6L6.5,13.4z"/>
</svg>
