<svg width="16" height="16" xmlns="http://www.w3.org/2000/svg" fill="context-fill" fill-opacity="context-fill-opacity">
<path d="M8.177,5.326c-0.435-0.47,0.15-1.127,0.629-0.672c0.932,0.869,1.463,2.086,1.464,3.362c0,0.2-0.023,0.396-0.054,0.59
	l-0.9-0.9C9.238,6.8,8.846,5.949,8.177,5.326z M12.147,8.023c-0.001,0.729-0.145,1.44-0.411,2.102l0.711,0.711
	c0.413-0.872,0.647-1.827,0.649-2.812c-0.002-1.84-0.767-3.595-2.111-4.85c-0.557-0.508-1.138,0.214-0.649,0.695
	C11.488,4.942,12.144,6.447,12.147,8.023z M6.501,4.888V2.6c0-0.085-0.099-0.131-0.164-0.077l-1.2,1L6.501,4.888z M15.031,8
	c-0.001,1.494-0.462,2.925-1.257,4.159l0.71,0.71C15.455,11.443,15.997,9.754,16,8c-0.003-2.414-1.006-4.719-2.771-6.365
	c-0.528-0.415-1.103,0.217-0.662,0.709C14.136,3.806,15.029,5.854,15.031,8z M8.604,10.22c-0.127,0.175-0.269,0.34-0.431,0.49
	c-0.436,0.396,0.129,1.061,0.626,0.672c0.169-0.157,0.319-0.33,0.456-0.511L8.604,10.22z M12.411,14.026
	c0.007,0.249,0.219,0.462,0.468,0.468L12.411,14.026z M10.445,12.061c-0.041,0.041-0.074,0.087-0.116,0.127
	c-0.445,0.423,0.164,1.087,0.645,0.691c0.05-0.047,0.091-0.101,0.14-0.149L10.445,12.061z M3.378,4.989L3,5.304H0.923
	C0.413,5.304,0,5.717,0,6.227v3.546c0,0.51,0.413,0.923,0.923,0.923H3l3.336,2.78C6.402,13.531,6.5,13.485,6.5,13.4V8.112
	L3.378,4.989z M15.356,14.626L1.387,0.652c-0.203-0.203-0.532-0.203-0.734,0c-0.2,0.2-0.201,0.522-0.006,0.725l13.972,13.976
	c0.203,0.199,0.528,0.198,0.729-0.003C15.548,15.149,15.549,14.829,15.356,14.626z"/>
</svg>
