<svg width="16" height="16" xmlns="http://www.w3.org/2000/svg" fill="context-fill" fill-opacity="context-fill-opacity">
<path d="M7.001,2.6L7,13.4c0,0.085-0.099,0.131-0.164,0.077L3.5,10.696H1.423c-0.51,0-0.923-0.413-0.923-0.922V6.227
	c0-0.51,0.413-0.923,0.923-0.923H3.5l3.337-2.781C6.902,2.469,7.001,2.515,7.001,2.6z M15.5,5.366c0-0.098-0.038-0.19-0.108-0.259
	C15.324,5.038,15.232,5,15.134,5c-0.098,0-0.19,0.038-0.26,0.108L12.467,7.45l-2.342-2.343c-0.066-0.065-0.16-0.103-0.259-0.103
	S9.673,5.042,9.607,5.107C9.538,5.176,9.5,5.268,9.5,5.366c0,0.098,0.038,0.19,0.107,0.259l2.343,2.407l-2.343,2.342
	c-0.142,0.142-0.142,0.376,0,0.519C9.677,10.962,9.769,11,9.866,11c0.097,0,0.189-0.038,0.259-0.107l2.407-2.342l2.342,2.342
	C14.943,10.962,15.036,11,15.134,11c0.097,0,0.189-0.038,0.259-0.108c0.142-0.142,0.142-0.375,0-0.518L13.05,7.968l2.342-2.343
	C15.462,5.556,15.5,5.464,15.5,5.366z"/>
</svg>
