<svg width="16" height="16" xmlns="http://www.w3.org/2000/svg" fill="context-fill" fill-opacity="context-fill-opacity">
<path d="M14.898,13.998c0.117,0.117,0.117,0.307,0,0.424l-0.386,0.386c-0.117,0.117-0.307,0.117-0.424,0l-1.375-1.375c-0.904,0.659-1.973,1.1-3.133,1.238v-0.789c0.944-0.129,1.808-0.499,2.556-1.026l-0.868-0.868c-0.507,0.32-1.071,0.56-1.688,0.668v-0.789c0.409-0.08,0.79-0.229,1.139-0.429l-0.901-0.901c-0.081,0.034-0.153,0.081-0.237,0.107V10.3l-0.79-0.79v5.595l-4.737-3.947H1.289c-0.434,0-0.789-0.355-0.789-0.789V5.632c0-0.435,0.355-0.79,0.789-0.79h2.764L4.09,4.811L1.231,1.952c-0.117-0.117-0.117-0.307,0-0.424l0.386-0.386c0.117-0.117,0.307-0.117,0.424,0L14.898,13.998z M14.711,8c0,1.209-0.378,2.326-1.004,3.265l0.574,0.574C15.045,10.749,15.5,9.427,15.5,8c0-3.434-2.605-6.276-5.921-6.671v0.789C12.461,2.513,14.711,5,14.711,8z M12.737,8c0,0.661-0.171,1.283-0.461,1.834l0.579,0.579c0.425-0.707,0.67-1.531,0.67-2.414c0-2.329-1.697-4.303-3.947-4.658v0.789C11.395,4.487,12.737,6.105,12.737,8z M10.763,8c0,0.099-0.028,0.187-0.041,0.28l0.663,0.663C11.492,8.65,11.553,8.334,11.553,8c0-1.263-0.829-2.289-1.974-2.645v0.829C10.289,6.5,10.763,7.171,10.763,8z M8.789,0.895L5.815,3.373l2.974,2.974V0.895z"/>
</svg>
