<svg width="16" height="16" xmlns="http://www.w3.org/2000/svg" fill="context-fill" fill-opacity="context-fill-opacity">
<path d="M15.5,8c0,3.434-2.605,6.276-5.921,6.671v-0.789C12.461,13.487,14.711,11,14.711,8s-2.25-5.487-5.132-5.882V1.329C12.895,1.724,15.5,4.566,15.5,8zM1.289,4.842C0.855,4.842,0.5,5.197,0.5,5.632v4.737c0,0.434,0.355,0.789,0.789,0.789h2.763l4.737,3.947V0.895L4.053,4.842H1.289zM11.553,8c0-1.263-0.829-2.289-1.974-2.645v0.829C10.289,6.5,10.763,7.171,10.763,8c0,0.829-0.474,1.5-1.184,1.816v0.829C10.724,10.289,11.553,9.263,11.553,8zM13.526,8c0-2.329-1.697-4.303-3.947-4.658v0.789C11.395,4.487,12.737,6.105,12.737,8c0,1.895-1.342,3.513-3.158,3.868v0.789C11.829,12.263,13.526,10.329,13.526,8z"/>
</svg>
