<svg width="16" height="16" xmlns="http://www.w3.org/2000/svg" fill="context-fill" fill-opacity="context-fill-opacity">
<path d="M14.892,1H1.108C0.496,1,0,1.495,0,2.105v11.789C0,14.505,0.496,15,1.108,15h13.785C15.504,15,16,14.505,16,13.895V2.105C16,1.495,15.504,1,14.892,1z M14.769,2.728v10.544c0,0.276-0.224,0.5-0.501,0.5H1.732c-0.277,0-0.501-0.224-0.501-0.5V2.728c0-0.276,0.224-0.5,0.501-0.5h12.536C14.545,2.228,14.769,2.452,14.769,2.728z M7,5H3.2c-0.552,0-1,0.448-1,1v4c0,0.552,0.448,1,1,1H7V9.8H3.9c-0.276,0-0.5-0.224-0.5-0.5V6.7c0-0.276,0.224-0.5,0.5-0.5H7V5z M13.8,5H10C9.448,5,9,5.448,9,6v4c0,0.552,0.448,1,1,1h3.8V9.8h-3.1c-0.276,0-0.5-0.224-0.5-0.5V6.7c0-0.276,0.224-0.5,0.5-0.5h3.1V5z"/>
</svg>
