<svg width="16" height="16" xmlns="http://www.w3.org/2000/svg" fill="context-fill" fill-opacity="context-fill-opacity">
<path d="M15,1.5H1c-0.552,0-1,0.448-1,1v11c0,0.552,0.448,1,1,1h14c0.552,0,1-0.448,1-1v-11C16,1.948,15.552,1.5,15,1.5z
	 M15.059,13.071c0,0.276-0.224,0.5-0.5,0.5H1.441c-0.276,0-0.5-0.224-0.5-0.5V2.929c0-0.276,0.224-0.5,0.5-0.5h13.118
	c0.276,0,0.5,0.224,0.5,0.5V13.071z M9.266,12H2.734C2.605,12,2.5,11.895,2.5,11.766v-0.532C2.5,11.105,2.605,11,2.734,11h6.532
	C9.395,11,9.5,11.105,9.5,11.234v0.532C9.5,11.895,9.395,12,9.266,12z M13.249,12h-2c-0.138,0-0.25-0.112-0.25-0.25v-0.5
	c0-0.138,0.112-0.25,0.25-0.25h2c0.138,0,0.25,0.112,0.25,0.25v0.5C13.499,11.888,13.387,12,13.249,12z M4.75,9.5h-2
	C2.612,9.5,2.5,9.388,2.5,9.25v-0.5c0-0.138,0.112-0.25,0.25-0.25h2C4.888,8.5,5,8.612,5,8.75v0.5C5,9.388,4.888,9.5,4.75,9.5z
	 M13.265,9.5H6.733c-0.129,0-0.234-0.105-0.234-0.234V8.734c0-0.129,0.105-0.234,0.234-0.234h6.532c0.129,0,0.234,0.105,0.234,0.234
	v0.532C13.499,9.395,13.394,9.5,13.265,9.5z"/>
</svg>
