<svg width="16" height="16" xmlns="http://www.w3.org/2000/svg" fill="context-fill" fill-opacity="context-fill-opacity">
<path d="M13.849,5.12l-2.992-2.991c0.128-0.117,0.778-0.72,0.896-0.816c0.149-0.117,0.304-0.2,0.464-0.248
	c0.16-0.048,0.317-0.069,0.472-0.064c0.155,0.005,0.304,0.029,0.448,0.072c0.144,0.042,0.269,0.09,0.376,0.144
	c0.224,0.117,0.472,0.322,0.744,0.616c0.272,0.293,0.483,0.6,0.632,0.92c0.043,0.096,0.078,0.208,0.104,0.336
	c0.027,0.128,0.04,0.261,0.04,0.4s-0.027,0.277-0.08,0.416c-0.054,0.139-0.256,0.4-0.256,0.4S13.923,5.056,13.849,5.12z
	 M2.427,10.559c-0.149,0.149-0.264,0.285-0.344,0.408c-0.08,0.123-0.152,0.259-0.216,0.408c-0.053,0.096-0.858,2.746-0.88,2.896
	c-0.042,0.277-0.016,0.475,0.08,0.592c0.096,0.117,0.288,0.16,0.576,0.128c0.139-0.021,2.938-0.917,3.087-0.992
	c0.149-0.064,0.294-0.149,0.432-0.256c0.139-0.106,0.261-0.208,0.368-0.304c0.043-0.032,7.119-7.118,7.119-7.118L9.657,3.312
	C9.657,3.312,2.491,10.495,2.427,10.559z M8.261,15h0.43c0.276,0,0.5-0.224,0.5-0.5v-0.424c0-0.276-0.224-0.5-0.5-0.5h-0.43
	c-0.276,0-0.5,0.224-0.5,0.5V14.5C7.761,14.776,7.985,15,8.261,15z M11.168,15h0.43c0.276,0,0.5-0.224,0.5-0.5v-0.424
	c0-0.276-0.224-0.5-0.5-0.5h-0.43c-0.276,0-0.5,0.224-0.5,0.5V14.5C10.668,14.776,10.891,15,11.168,15z M14.086,15h0.43
	c0.276,0,0.5-0.224,0.5-0.5v-0.424c0-0.276-0.224-0.5-0.5-0.5h-0.43c-0.276,0-0.5,0.224-0.5,0.5V14.5
	C13.586,14.776,13.81,15,14.086,15z"/>
</svg>
