<svg width="16" height="16" xmlns="http://www.w3.org/2000/svg" fill="context-fill" fill-opacity="context-fill-opacity">
<path d="M14.376,14.839C14.196,14.943,13.983,15,13.763,15c-0.299,0-0.574-0.103-0.774-0.29c-0.296-0.283-2.381-2.365-4.441-4.434
	c0.391-0.397,1.547-1.57,1.731-1.757c1.394,1.406,3.542,3.566,4.081,4.103c0.315,0.316,0.528,0.549,0.605,0.894
	C15.077,14.041,14.845,14.56,14.376,14.839z M3.963,4.783C4.089,4.744,4.167,4.773,4.255,4.86c0.381,0.386,1.272,1.273,1.983,1.981
	c0.213-0.216,0.419-0.424,0.621-0.628C6.144,5.514,5.253,4.638,4.867,4.258C4.77,4.16,4.75,4.083,4.789,3.957
	c0.175-0.544-0.009-1.06-0.477-1.391C3.623,2.08,2.144,1.029,2.096,1c-0.37,0.37-0.72,0.739-1.089,1.109
	c0.506,0.709,1.021,1.439,1.536,2.159C2.903,4.773,3.37,4.958,3.963,4.783z M14.972,3.142c-0.003-0.021-0.017-0.05-0.011-0.07
	c-0.02,0.012-0.044,0.03-0.074,0.056c-0.18,0.175-0.891,0.886-1.071,1.061c-0.301,0.292-0.64,0.441-1.007,0.441
	c-0.161,0-0.326-0.029-0.49-0.087c-0.476-0.16-0.83-0.539-0.946-1.013c-0.119-0.483,0.021-0.993,0.378-1.367
	c0.187-0.191,0.377-0.38,0.568-0.568c0.189-0.187,0.379-0.373,0.575-0.577l-0.215-0.008C12.559,1.006,12.441,1,12.321,1
	c-0.189,0-0.339,0.014-0.472,0.045c-0.694,0.153-1.272,0.58-1.626,1.199C9.86,2.881,9.785,3.653,10.017,4.361
	c0.043,0.129,0.109,0.323-0.098,0.528c-0.175,0.174-8.234,8.324-8.681,8.771c-0.306,0.306-0.306,0.805,0,1.111
	C1.386,14.919,1.583,15,1.793,15s0.407-0.081,0.555-0.229c0.534-0.531,8.333-8.434,8.665-8.766c0.034-0.038,0.138-0.153,0.304-0.153
	c0.059,0,0.12,0.014,0.192,0.044c0.332,0.137,0.66,0.207,0.974,0.207c0.526,0,1.032-0.195,1.506-0.579
	C14.753,4.912,15.084,4.111,14.972,3.142z"/>
</svg>
