<svg width="16" height="16" xmlns="http://www.w3.org/2000/svg" fill="context-fill" fill-opacity="context-fill-opacity">
<path d="M15.5,10.676c0,0.527-0.463,0.926-0.972,0.926h-1.312l0.897,1.583
	c0.257,0.449,0.177,1.039-0.321,1.312c-0.493,0.257-1.023,0.048-1.277-0.399l-3.28-5.676C8.659,7.414,8.769,5.813,9.537,5.253
	l2.608,4.461h2.383C15.037,9.714,15.5,10.087,15.5,10.676z M2.375,12.258l-0.511,0.927c-0.241,0.447-0.193,1.023,0.305,1.312
	c0.509,0.286,1.037,0.048,1.293-0.399l0.768-1.296C4.04,12.467,3.333,11.988,2.375,12.258z M8.292,9.714H6.022l3.995-6.905
	c0.257-0.434,0.161-1.039-0.351-1.312C9.173,1.24,8.624,1.449,8.37,1.88L7.987,2.536L7.604,1.88C7.35,1.449,6.787,1.227,6.308,1.497
	C5.81,1.783,5.732,2.359,5.989,2.809L6.9,4.423L3.848,9.714H1.446c-0.495,0-0.946,0.372-0.946,0.961c0,0.527,0.45,0.926,0.946,0.926
	h8.204C9.858,10.756,9.441,9.714,8.292,9.714z"/>
</svg>
