<svg width="16" height="16" xmlns="http://www.w3.org/2000/svg" fill="context-fill" fill-opacity="context-fill-opacity">
<path d="M8,16c-4.411,0-8-3.589-8-8c0-4.411,3.589-8,8-8c4.411,0,8,3.589,8,8C16,12.411,12.411,16,8,16z M8,1.252C4.279,1.252,1.252,4.279,1.252,8S4.279,14.749,8,14.749S14.749,11.721,14.749,8S11.721,1.252,8,1.252z M9.806,8.498L8.605,9.699V4.84c0-0.333-0.271-0.605-0.605-0.605c-0.333,0-0.605,0.271-0.605,0.605v4.859l-1.2-1.201c-0.229-0.23-0.627-0.23-0.857,0c-0.235,0.235-0.235,0.62,0,0.856l2.234,2.234c0.058,0.058,0.126,0.102,0.201,0.133c0.074,0.03,0.151,0.046,0.227,0.046c0.077,0,0.155-0.016,0.227-0.046c0.076-0.031,0.144-0.075,0.2-0.133l2.234-2.234c0.236-0.235,0.236-0.62,0-0.856C10.428,8.261,10.041,8.261,9.806,8.498z"/>
</svg>