<svg width="16" height="16" xmlns="http://www.w3.org/2000/svg" fill="context-fill" fill-opacity="context-fill-opacity">
<path d="M13.833,7.423h-1.014V5.185c0-1.105-0.899-2.004-2.004-2.004H8.577V2.167C8.577,0.972,7.604,0,6.409,0S4.242,0.972,4.242,2.167v1.014H2.004C0.899,3.181,0,4.08,0,5.185v3.391h2.167c0.559,0,1.014,0.455,1.014,1.014c0,0.558-0.455,1.013-1.014,1.013H0v3.392C0,15.101,0.899,16,2.004,16h3.391v-2.167c0-0.559,0.455-1.014,1.014-1.014s1.014,0.455,1.014,1.014V16h3.391c1.105,0,2.004-0.899,2.004-2.004v-2.238h1.014c1.195,0,2.167-0.972,2.167-2.167S15.028,7.423,13.833,7.423z M6.409,11.665c-1.195,0-2.167,0.972-2.167,2.167v1.013H2.167c-0.559,0-1.014-0.455-1.014-1.013v-2.074h1.014c1.195,0,2.167-0.972,2.167-2.167S3.363,7.423,2.167,7.423H1.154V5.349c0-0.559,0.455-1.014,1.014-1.014h3.228V2.167c0-0.559,0.455-1.014,1.014-1.014s1.014,0.455,1.014,1.014v2.167h3.228c0.559,0,1.014,0.455,1.014,1.014v3.228h2.167c0.558,0,1.013,0.455,1.013,1.014c0,0.558-0.455,1.013-1.013,1.013h-2.167v3.228c0,0.558-0.455,1.013-1.014,1.013H8.577v-1.013C8.577,12.637,7.604,11.665,6.409,11.665z"/>
</svg>