<svg width="16" height="16" xmlns="http://www.w3.org/2000/svg" fill="context-fill" fill-opacity="context-fill-opacity">
<path d="M2.448,12.828V9.69H1v3.138C1,14.025,1.974,15,3.172,15H6.31v-1.448H3.172C2.773,13.552,2.448,13.226,2.448,12.828zM1,3.172V6.31h1.448V3.172c0-0.399,0.325-0.724,0.724-0.724H6.31V1H3.172C1.974,1,1,1.974,1,3.172z M12.828,1H9.69v1.448h3.138c0.399,0,0.724,0.325,0.724,0.724V6.31H15V3.172C15,1.974,14.025,1,12.828,1z M13.552,12.828c0,0.399-0.325,0.724-0.724,0.724H9.69V15h3.138C14.025,15,15,14.025,15,12.828V9.69h-1.448V12.828z"/>
</svg>
