<svg width="16" height="16" xmlns="http://www.w3.org/2000/svg" fill="context-fill" fill-opacity="context-fill-opacity">
<path d="M4.862,11.862V15H6.31v-3.138c0-1.197-0.974-2.172-2.172-2.172H1v1.448h3.138C4.537,11.138,4.862,11.464,4.862,11.862z
M6.31,4.138V1H4.862v3.138c0,0.399-0.325,0.724-0.724,0.724H1V6.31h3.138C5.336,6.31,6.31,5.336,6.31,4.138z M11.862,6.31H15V4.862h-3.138c-0.399,0-0.724-0.325-0.724-0.724V1H9.69v3.138C9.69,5.335,10.664,6.31,11.862,6.31z M15,11.138V9.69h-3.138c-1.197,0-2.172,0.975-2.172,2.172V15h1.448v-3.138c0-0.399,0.325-0.724,0.724-0.724H15z"/>
</svg>
