<svg width="16" height="16" xmlns="http://www.w3.org/2000/svg" fill="context-fill" fill-opacity="context-fill-opacity">
<path d="M0,8c0,4.411,3.589,8,8,8c4.412,0,8-3.589,8-8c0-4.412-3.588-8-8-8C3.589,0,0,3.588,0,8z M1.323,8
	c0-3.682,2.995-6.678,6.677-6.678S14.678,4.318,14.678,8c0,3.682-2.996,6.677-6.678,6.677S1.323,11.682,1.323,8z M7.522,3.174
	c0.328,0,0.594,0.265,0.594,0.593v4.076h3.727c0.328,0,0.594,0.266,0.594,0.594s-0.266,0.594-0.594,0.594h-4.32
	c-0.328,0-0.594-0.266-0.594-0.594v-4.67C6.929,3.439,7.194,3.173,7.522,3.174z"/>
</svg>
