<svg width="16" height="16" xmlns="http://www.w3.org/2000/svg" fill="context-fill" fill-opacity="context-fill-opacity">
<path d="M5.632,8.069c-0.105-0.11-0.163-0.255-0.16-0.408c0.003-0.153,0.065-0.296,0.176-0.403c0.107-0.104,0.249-0.161,0.399-0.161
	c0.149,0,0.291,0.057,0.399,0.161L7.426,8.24V1.774c0-0.391,0.183-0.574,0.574-0.574c0.391,0,0.574,0.183,0.574,0.574V8.24
	l0.983-0.983c0.106-0.103,0.247-0.16,0.397-0.16c0.158,0,0.304,0.062,0.413,0.175c0.217,0.224,0.217,0.575,0,0.798l-1.961,1.962
	C8.298,10.141,8.154,10.2,8.001,10.2c-0.153,0-0.297-0.059-0.406-0.168L5.632,8.069z M13.8,4.343h-2.256
	c-0.343,0-0.621,0.279-0.621,0.622c0,0.343,0.279,0.622,0.621,0.622h1.613c0.331,0,0.6,0.269,0.6,0.6v6.77
	c0,0.331-0.269,0.6-0.6,0.6H2.845c-0.331,0-0.6-0.269-0.6-0.6V6.183c0-0.331,0.269-0.6,0.6-0.6h1.613
	c0.166,0,0.322-0.065,0.44-0.182c0.117-0.118,0.182-0.274,0.182-0.44c0-0.343-0.279-0.622-0.622-0.622H2.2
	c-0.663,0-1.2,0.537-1.2,1.2V13.6c0,0.663,0.537,1.2,1.2,1.2h11.6c0.663,0,1.2-0.537,1.2-1.2V5.543
	C15,4.881,14.463,4.343,13.8,4.343z"/>
</svg>
