<svg width="16" height="16" xmlns="http://www.w3.org/2000/svg" fill="#B565A7" fill-opacity="context-fill-opacity">
<path d="M6.458,15.5c-0.094,0-0.184-0.023-0.267-0.067c-0.133-0.072-0.23-0.191-0.273-0.335c-0.044-0.145-0.028-0.298,0.044-0.43
	c1.179-2.193,1.676-4.682,1.475-7.396C7.429,7.125,7.481,6.98,7.582,6.868c0.101-0.112,0.239-0.178,0.39-0.186
	c0.001,0,0.001,0,0.002,0c0.321,0,0.562,0.219,0.59,0.51c0.216,2.927-0.325,5.624-1.607,8.011C6.858,15.387,6.667,15.5,6.458,15.5z
	 M10.311,14.729c-0.13,0-0.254-0.043-0.355-0.125c-0.242-0.197-0.279-0.554-0.083-0.796c0.939-1.158,1.416-3.112,1.416-5.808
	c0-0.312,0.253-0.564,0.565-0.564c0.311,0,0.565,0.253,0.565,0.564c0,3.004-0.545,5.137-1.667,6.521
	C10.643,14.653,10.482,14.729,10.311,14.729z M3.358,13.983c-0.112,0-0.222-0.033-0.316-0.096c-0.125-0.085-0.21-0.214-0.238-0.362
	c-0.029-0.148,0.002-0.299,0.087-0.423c0.215-0.293,0.361-0.583,0.465-0.905c0.191-0.584,0.226-1.093,0.226-1.884
	c0-0.312,0.253-0.565,0.565-0.565S4.712,10,4.712,10.312c0,0.91-0.044,1.505-0.282,2.235c-0.135,0.425-0.336,0.823-0.598,1.181
	C3.722,13.891,3.546,13.983,3.358,13.983z M14.164,12.418c-0.104,0-0.208-0.029-0.297-0.084c-0.265-0.165-0.347-0.514-0.183-0.779
	C14.139,10.818,14.37,9.622,14.37,8c0.001-3.512-2.856-6.371-6.368-6.372c-0.799,0-1.581,0.147-2.323,0.438
	C5.613,2.093,5.543,2.106,5.473,2.106c-0.234,0-0.441-0.141-0.527-0.36c-0.055-0.14-0.052-0.294,0.009-0.432
	c0.061-0.138,0.171-0.245,0.312-0.3C6.138,0.673,7.055,0.5,7.992,0.5C12.136,0.5,15.5,3.864,15.5,8c0,1.863-0.28,3.222-0.855,4.151
	C14.541,12.318,14.361,12.418,14.164,12.418z M1.065,10.877c-0.311,0-0.565-0.254-0.565-0.565V8c0-1.817,0.658-3.57,1.854-4.937
	c0.109-0.127,0.266-0.2,0.431-0.2c0.134,0,0.265,0.048,0.368,0.136c0.114,0.098,0.184,0.235,0.196,0.385S3.312,3.681,3.214,3.795
	C2.187,4.967,1.627,6.457,1.63,8v2.312C1.63,10.624,1.376,10.877,1.065,10.877z M4.147,8.565C3.836,8.565,3.582,8.312,3.582,8
	c0-2.436,1.982-4.418,4.417-4.418c1.086,0,2.13,0.397,2.94,1.12c0.232,0.207,0.252,0.565,0.045,0.798
	c-0.107,0.12-0.261,0.189-0.421,0.189c-0.139,0-0.273-0.051-0.376-0.143c-0.603-0.537-1.38-0.833-2.186-0.833
	c-0.937,0-1.833,0.401-2.456,1.101C5.008,6.416,4.712,7.192,4.712,8C4.712,8.312,4.459,8.565,4.147,8.565z"/>
</svg>
