<?xml version="1.0" encoding="UTF-8" standalone="no"?>
<!DOCTYPE svg PUBLIC "-//W3C//DTD SVG 1.1//EN" "http://www.w3.org/Graphics/SVG/1.1/DTD/svg11.dtd">
<svg width="16px" height="16px" version="1.1" xmlns="http://www.w3.org/2000/svg" xmlns:xlink="http://www.w3.org/1999/xlink" xml:space="preserve" xmlns:serif="http://www.serif.com/" style="fill-rule:evenodd;clip-rule:evenodd;stroke-linejoin:round;stroke-miterlimit:2;">
    <path d="M9.4875,8.7186L5.339,8.7186C4.7872,10.5711 2.434,11.13 1.106,9.7258C-0.2237,8.3217 0.4669,6.0045 2.3502,5.5578C2.952,5.4137 3.5838,5.4974 4.1267,5.791L5.2073,4.7107C5.0079,4.3424 4.9047,3.933 4.9047,3.5148C4.9047,1.5821 6.998,0.3737 8.6749,1.34C8.7934,1.4086 8.9035,1.4845 9.0053,1.5665C8.636,1.8758 8.3178,2.2442 8.0652,2.6571C7.8812,2.5182 7.6542,2.4398 7.4164,2.4398C6.5886,2.4398 6.0706,3.3368 6.4836,4.0558C6.6759,4.3886 7.0318,4.5932 7.4164,4.5932L7.4321,4.5931C7.4219,4.7163 7.4166,4.8408 7.4166,4.9667C7.4166,5.3311 7.4607,5.6853 7.5437,6.0243C7.091,6.0471 6.6335,5.9476 6.2219,5.7252L5.1415,6.8054C5.2233,6.9566 5.2892,7.1169 5.339,7.2824L8.069,7.2824C8.4254,7.8629 8.9118,8.3551 9.4875,8.7186ZM2.9306,9.078C3.76,9.078 4.2781,8.1811 3.8634,7.4639C3.6711,7.1311 3.315,6.9264 2.9306,6.9264C2.101,6.9264 1.583,7.8234 1.9978,8.5406C2.1901,8.8734 2.546,9.078 2.9306,9.078ZM14.3322,8.6403C14.1093,9.4849 13.4554,10.2142 12.4843,10.4466C11.8826,10.5907 11.2507,10.5071 10.7078,10.2135L9.6273,11.2937C10.5475,12.9951 9.2801,15.0524 7.3469,14.999C5.4138,14.9438 4.2638,12.8171 5.2767,11.1709C5.9745,10.0355 7.4377,9.644 8.6109,10.2775L9.6931,9.1955C9.6122,9.0461 9.547,8.8881 9.4974,8.7247C10.1792,9.1526 10.9858,9.4 11.85,9.4C12.7696,9.4 13.6239,9.1198 14.3322,8.6403ZM6.8788,13.4187C7.5961,13.8333 8.4933,13.3154 8.4933,12.4861C8.4933,12.1017 8.2886,11.7458 7.9557,11.5536C7.2384,11.1389 6.3412,11.6568 6.3412,12.4861C6.3412,12.8705 6.5459,13.2265 6.8788,13.4187Z" style="fill:context-fill;fill-opacity:context-fill-opacity;fill-rule:nonzero;"/>
    <path d="M11.85,1.2333C13.9114,1.2333 15.5833,2.9052 15.5833,4.9667C15.5833,7.0281 13.9114,8.7 11.85,8.7C9.7885,8.7 8.1167,7.0281 8.1167,4.9667C8.1167,2.9052 9.7885,1.2333 11.85,1.2333ZM12.41,2.6333C12.41,2.4788 12.2845,2.3533 12.13,2.3533L11.57,2.3533C11.4154,2.3533 11.29,2.4788 11.29,2.6333L11.29,5.4333C11.29,5.5879 11.4154,5.7133 11.57,5.7133L12.13,5.7133C12.2845,5.7133 12.41,5.5879 12.41,5.4333L12.41,2.6333ZM12.41,6.8939C12.41,6.7393 12.2845,6.6139 12.13,6.6139L11.57,6.6139C11.4154,6.6139 11.29,6.7393 11.29,6.8939L11.29,7.4539C11.29,7.6084 11.4154,7.7339 11.57,7.7339L12.13,7.7339C12.2845,7.7339 12.41,7.6084 12.41,7.4539L12.41,6.8939Z" style="fill:#FD8208;fill-opacity:context-fill-opacity;fill-rule:nonzero;"/>
</svg>
