<?xml version="1.0" encoding="UTF-8" standalone="no"?>
<!DOCTYPE svg PUBLIC "-//W3C//DTD SVG 1.1//EN" "http://www.w3.org/Graphics/SVG/1.1/DTD/svg11.dtd">
<svg width="48px" height="16px" version="1.1" xmlns="http://www.w3.org/2000/svg" xmlns:xlink="http://www.w3.org/1999/xlink" xml:space="preserve" xmlns:serif="http://www.serif.com/" style="fill-rule:evenodd;clip-rule:evenodd;stroke-linejoin:round;stroke-miterlimit:2;">
    <path d="M23.5739,12.75L20.3,3.75L21.564,3.75L23.1441,8.2374C23.6118,9.5583 24.0732,10.8855 24.2691,11.7135C24.465,10.974 24.9643,9.5772 25.4447,8.2753L27.1006,3.75L28.3267,3.75L24.939,12.75L23.5739,12.75ZM30.7,3.75L34.1129,3.75C35.8573,3.75 37.0645,4.736 37.0645,6.3729C37.0645,8.1173 35.8004,9.0527 34.0371,9.0527L31.9008,9.0527L31.9008,12.75L30.7,12.75L30.7,3.75ZM31.9008,8.0414L33.9802,8.0414C35.2063,8.0414 35.832,7.4473 35.832,6.3982C35.832,5.349 35.0799,4.7549 34.0181,4.7549L31.8945,4.7549L31.9008,8.0414ZM39.2574,12.75L39.2574,3.75L40.8375,3.75C42.1015,5.861 44.9393,10.3357 45.4386,11.3343C45.3501,10.184 45.3627,8.7619 45.3627,7.302L45.3627,3.75L46.4877,3.75L46.4877,12.75L45.0151,12.75C43.8269,10.7971 40.9007,5.9874 40.3445,4.9761C40.4077,6 40.4077,7.5042 40.4077,9.1538L40.4077,12.75L39.2574,12.75ZM11.2188,8.7699L6.774,8.7699C6.1827,10.7548 3.6614,11.3536 2.2386,9.8491C0.8139,8.3447 1.5539,5.862 3.5717,5.3834C4.2164,5.229 4.8934,5.3186 5.4751,5.6332L6.6328,4.4758C6.4192,4.0811 6.3086,3.6425 6.3086,3.1944C6.3086,1.1237 8.5515,-0.171 10.3481,0.8643C10.4751,0.9378 10.5931,1.0191 10.7021,1.107C10.3064,1.4384 9.9655,1.8331 9.6949,2.2755C9.4977,2.1266 9.2545,2.0427 8.9997,2.0427C8.1128,2.0427 7.5578,3.0037 8.0003,3.7741C8.2063,4.1307 8.5877,4.3499 8.9997,4.3499L9.0166,4.3498C9.0056,4.4818 9,4.6152 9,4.75C9,5.1405 9.0472,5.52 9.1361,5.8832C8.6511,5.9076 8.1609,5.801 7.7199,5.5627L6.5623,6.7201C6.65,6.8821 6.7206,7.0538 6.774,7.2311L9.6989,7.2311C10.0808,7.8531 10.6019,8.3805 11.2188,8.7699ZM4.1935,9.155C5.0822,9.155 5.6373,8.194 5.1929,7.4256C4.9869,7.069 4.6054,6.8497 4.1935,6.8497C3.3047,6.8497 2.7497,7.8108 3.1941,8.5792C3.4001,8.9358 3.7815,9.155 4.1935,9.155ZM16.4095,8.686C16.1707,9.591 15.4701,10.3724 14.4296,10.6214C13.7849,10.7758 13.1079,10.6862 12.5262,10.3716L11.3685,11.529C12.3545,13.3519 10.9966,15.5561 8.9253,15.4989C6.8541,15.4398 5.622,13.1612 6.7072,11.3974C7.4548,10.1809 9.0226,9.7614 10.2795,10.4402L11.4391,9.2809C11.3524,9.1208 11.2825,8.9515 11.2294,8.7765C11.9599,9.2349 12.8241,9.5 13.75,9.5C14.7353,9.5 15.6506,9.1998 16.4095,8.686ZM8.4237,13.8057C9.1923,14.25 10.1536,13.6951 10.1536,12.8065C10.1536,12.3947 9.9342,12.0133 9.5776,11.8074C8.809,11.3631 7.8477,11.918 7.8477,12.8065C7.8477,13.2184 8.0671,13.5998 8.4237,13.8057Z" style="fill:context-fill;fill-opacity:context-fill-opacity;fill-rule:nonzero;"/>
    <path d="M13.75,0.75C11.5413,0.75 9.75,2.5413 9.75,4.75C9.75,6.9587 11.5413,8.75 13.75,8.75C15.9587,8.75 17.75,6.9587 17.75,4.75C17.75,2.5413 15.9587,0.75 13.75,0.75Z" style="fill:#fc2125;fill-opacity:context-fill-opacity;fill-rule:nonzero;"/>
</svg>
