<?xml version="1.0" encoding="UTF-8" standalone="no"?>
<!DOCTYPE svg PUBLIC "-//W3C//DTD SVG 1.1//EN" "http://www.w3.org/Graphics/SVG/1.1/DTD/svg11.dtd">
<svg width="48px" height="16px" version="1.1" xmlns="http://www.w3.org/2000/svg" xmlns:xlink="http://www.w3.org/1999/xlink" xml:space="preserve" xmlns:serif="http://www.serif.com/" style="fill-rule:evenodd;clip-rule:evenodd;stroke-linejoin:round;stroke-miterlimit:2;">
    <path d="M23.5739,12.75L20.3,3.75L21.564,3.75L23.1441,8.2374C23.6118,9.5583 24.0732,10.8855 24.2691,11.7135C24.465,10.974 24.9643,9.5772 25.4447,8.2753L27.1006,3.75L28.3267,3.75L24.939,12.75L23.5739,12.75ZM30.7,3.75L34.1129,3.75C35.8573,3.75 37.0645,4.736 37.0645,6.3729C37.0645,8.1173 35.8004,9.0527 34.0371,9.0527L31.9008,9.0527L31.9008,12.75L30.7,12.75L30.7,3.75ZM31.9008,8.0414L33.9802,8.0414C35.2063,8.0414 35.832,7.4473 35.832,6.3982C35.832,5.349 35.0799,4.7549 34.0181,4.7549L31.8945,4.7549L31.9008,8.0414ZM39.2574,12.75L39.2574,3.75L40.8375,3.75C42.1015,5.861 44.9393,10.3357 45.4386,11.3343C45.3501,10.184 45.3627,8.7619 45.3627,7.302L45.3627,3.75L46.4877,3.75L46.4877,12.75L45.0151,12.75C43.8269,10.7971 40.9007,5.9874 40.3445,4.9761C40.4077,6 40.4077,7.5042 40.4077,9.1538L40.4077,12.75L39.2574,12.75Z" style="fill:context-fill;fill-opacity:context-fill-opacity;fill-rule:nonzero;"/>
    <path d="M15.7594,6.1519C17.1819,7.6582 16.442,10.1389 14.4266,10.6214C13.7821,10.7758 13.1052,10.6862 12.5236,10.3716L11.3662,11.529C12.352,13.3519 10.9943,15.5561 8.9236,15.4989C6.8528,15.4398 5.621,13.1612 6.706,11.3974C7.4534,10.1809 9.0208,9.7614 10.2774,10.4402L11.4367,9.2809C11.349,9.1188 11.2785,8.9472 11.2251,8.7699L6.7727,8.7699C6.1816,10.7548 3.6609,11.3536 2.2384,9.8491C0.814,8.3447 1.5539,5.862 3.5712,5.3834C4.2157,5.229 4.8926,5.3186 5.4742,5.6332L6.6316,4.4758C6.4181,4.0811 6.3075,3.6425 6.3075,3.1944C6.3075,1.1237 8.5498,-0.171 10.346,0.8643C12.1384,1.9016 12.1384,4.491 10.3441,5.5264C9.5337,5.9936 8.5403,6.0069 7.7185,5.5627L6.5611,6.7201C6.6488,6.8821 6.7193,7.0538 6.7727,7.2311L11.2251,7.2311C11.8162,5.2461 14.335,4.6474 15.7594,6.1519ZM4.1928,9.155C5.0814,9.155 5.6363,8.194 5.192,7.4256C4.9861,7.069 4.6047,6.8497 4.1928,6.8497C3.3043,6.8497 2.7494,7.8108 3.1937,8.5792C3.3996,8.9358 3.781,9.155 4.1928,9.155ZM8.9979,2.0427C8.1113,2.0427 7.5564,3.0037 7.9988,3.7741C8.2047,4.1307 8.5861,4.3499 8.9979,4.3499C9.8865,4.3499 10.4414,3.3889 9.9971,2.6205C9.7912,2.262 9.4098,2.0427 8.9979,2.0427ZM13.2272,9.0006C13.9956,9.4449 14.9566,8.89 14.9566,8.0014C14.9566,7.5896 14.7374,7.2082 14.3808,7.0023C13.6124,6.558 12.6513,7.1129 12.6513,8.0014C12.6494,8.4133 12.8706,8.7947 13.2272,9.0006ZM8.4221,13.8057C9.1905,14.25 10.1515,13.6951 10.1515,12.8065C10.1515,12.3947 9.9323,12.0133 9.5757,11.8074C8.8073,11.3631 7.8462,11.918 7.8462,12.8065C7.8462,13.2184 8.0655,13.5998 8.4221,13.8057Z" style="fill:context-fill;fill-opacity:0.5;fill-rule:nonzero;"/>
</svg>
