<?xml version="1.0" encoding="UTF-8" standalone="no"?>
<!DOCTYPE svg PUBLIC "-//W3C//DTD SVG 1.1//EN" "http://www.w3.org/Graphics/SVG/1.1/DTD/svg11.dtd">
<svg width="48px" height="16px" version="1.1" xmlns="http://www.w3.org/2000/svg" xmlns:xlink="http://www.w3.org/1999/xlink" xml:space="preserve" xmlns:serif="http://www.serif.com/" style="fill-rule:evenodd;clip-rule:evenodd;stroke-linejoin:round;stroke-miterlimit:2;">
    <path d="M26.33679402,3.75L28.49896179,3.75L24.83056478,12.75L22.66839701,12.75L19,3.75L21.17524917,3.75L23.75602159,10.0907392L26.33679402,3.75ZM29.55855482,12.75C29.55855482,12.75 29.55855482,3.75 29.56042359,3.75186877L33.60818106,3.75186877C35.56104651,3.75186877 37.00186877,5.0095515 37.00186877,6.79049003C37.00186877,8.57142857 35.56104651,9.8291113 33.60818106,9.8291113L31.48525748,9.8291113L31.48525748,12.75L29.55855482,12.75ZM31.48525748,8.05938538L33.39887874,8.05938538C34.3538206,8.05938538 35.00975914,7.56229236 35.00975914,6.78862126C35.00975914,6.01495017 34.35568937,5.51785714 33.39887874,5.51785714L31.48525748,5.51785714L31.48525748,8.05938538ZM38.28571429,12.75C38.28571429,12.75 38.28571429,3.75 38.28758306,3.75L40.21241694,3.75L44.54796512,9.56748339L44.54796512,3.75L46.48774917,3.75L46.48774917,12.75L44.54609635,12.75L40.21054817,6.93251661L40.21054817,12.75L38.28571429,12.75Z" style="fill:context-fill;fill-opacity:context-fill-opacity;fill-rule:nonzero;"/>
    <path d="M11.21879449,8.76986567L6.77396134,8.76986567C6.18271937,10.75482869 3.66135845,11.35355913 2.23856326,9.84910589C0.81386083,8.34465265 1.55386691,5.86201879 3.57171854,5.3834158C4.21636301,5.22896623 4.89343043,5.31858511 5.47513624,5.63320461L6.63282616,4.47578622C6.41921616,4.08108175 6.3085967,3.64252124 6.3085967,3.1944268C6.3085967,1.12365847 8.55150172,-0.17104844 10.34811442,0.86433573C10.47509898,0.93780743 10.59308918,1.01906605 10.70208439,1.10700775C10.3063848,1.4384455 9.9654625,1.83313966 9.69489195,2.27551614C9.49771599,2.12664415 9.2545476,2.04272876 8.99970128,2.04272876C8.11283832,2.04272876 7.55783376,3.00374832 8.00031162,3.77408939C8.2062927,4.13065816 8.58773913,4.34993842 8.99970128,4.34993842C9.00535713,4.34993842 9.01099948,4.3498995 9.01662813,4.34982194C9.00561649,4.48175816 9,4.61522462 9,4.75C9,5.14050679 9.0471521,5.52002482 9.13607211,5.88316989C8.65114192,5.90759508 8.16085384,5.80095253 7.7199485,5.56265357L6.56225857,6.72007197C6.64999125,6.88214868 6.72055884,7.05375932 6.77396134,7.23109031L9.69893977,7.23109031C10.08079282,7.85312932 10.60189094,8.38053433 11.21879449,8.76986567ZM16.40945915,8.68600523C16.17072824,9.59098206 15.47012196,10.3723542 14.42959125,10.62135375C13.78494678,10.77580332 13.10787936,10.68618443 12.52617355,10.37156494L11.36848363,11.52898333C12.35452265,13.35186964 10.99657335,15.55611291 8.92531922,15.49890937C6.85406509,15.43979904 5.62199312,13.16119115 6.70720822,11.39741518C7.45484323,10.18088645 9.02258806,9.76139379 10.27945406,10.44020919L11.43905122,9.28088401C11.35241535,9.12083355 11.28251807,8.95148606 11.22935938,8.77651385C11.95994754,9.23491426 12.82408477,9.5 13.75,9.5C14.73526267,9.5 15.65057409,9.19984336 16.40945915,8.68600523ZM8.42371716,13.80568443C9.19233173,14.2499653 10.15357674,13.69509091 10.15357674,12.80652917C10.15357674,12.39466365 9.93424504,12.01330668 9.57759262,11.80737392C8.80897806,11.36309305 7.84773305,11.91796744 7.84773305,12.80652917C7.84773305,13.2183947 8.06706475,13.59975167 8.42371716,13.80568443ZM4.19347623,9.15503621C5.08224641,9.15503621 5.63725097,8.19401665 5.19286588,7.42558236C4.98688481,7.0690136 4.60543837,6.84973334 4.19347623,6.84973334C3.30470604,6.84973334 2.74970148,7.8107529 3.19408657,8.57918719C3.40006765,8.93575595 3.78151408,9.15503621 4.19347623,9.15503621Z" style="fill:context-fill;fill-opacity:context-fill-opacity;fill-rule:nonzero;"/>
    <path d="M13.75,0.75C15.95872727,0.75 17.75,2.54127273 17.75,4.75C17.75,6.95872727 15.95872727,8.75 13.75,8.75C11.54127273,8.75 9.75,6.95872727 9.75,4.75C9.75,2.54127273 11.54127273,0.75 13.75,0.75ZM14.35,6.81485149C14.35,6.64927698 14.21557451,6.51485149 14.05,6.51485149L13.45,6.51485149C13.28442549,6.51485149 13.15,6.64927698 13.15,6.81485149L13.15,7.41485149C13.15,7.58042599 13.28442549,7.71485149 13.45,7.71485149L14.05,7.71485149C14.21557451,7.71485149 14.35,7.58042599 14.35,7.41485149L14.35,6.81485149ZM14.35,2.25000001C14.35,2.0844255 14.21557451,1.95 14.05,1.95L13.45,1.95C13.28442549,1.95 13.15,2.0844255 13.15,2.25000001L13.15,5.24999999C13.15,5.4155745 13.28442549,5.55 13.45,5.55L14.05,5.55C14.21557451,5.55 14.35,5.4155745 14.35,5.24999999L14.35,2.25000001Z" style="fill:#FD8208;fill-opacity:context-fill-opacity;fill-rule:nonzero;"/>
</svg>
