<?xml version="1.0" encoding="UTF-8" standalone="no"?>
<!DOCTYPE svg PUBLIC "-//W3C//DTD SVG 1.1//EN" "http://www.w3.org/Graphics/SVG/1.1/DTD/svg11.dtd">
<svg width="16px" height="16px" version="1.1" xmlns="http://www.w3.org/2000/svg" xmlns:xlink="http://www.w3.org/1999/xlink" xml:space="preserve" xmlns:serif="http://www.serif.com/" style="fill-rule:evenodd;clip-rule:evenodd;stroke-linejoin:round;stroke-miterlimit:2;">
    <path d="M14.3104,6.2751C15.6381,7.681 14.9475,9.9963 13.0665,10.4466C12.4649,10.5907 11.8332,10.5071 11.2903,10.2135L10.2101,11.2937C11.1302,12.9951 9.863,15.0524 7.9303,14.999C5.9976,14.9438 4.8479,12.8171 5.8606,11.1709C6.5581,10.0355 8.021,9.644 9.1939,10.2775L10.2759,9.1955C10.194,9.0442 10.1282,8.8841 10.0784,8.7186L5.9228,8.7186C5.3711,10.5711 3.0185,11.13 1.6908,9.7258C0.3614,8.3217 1.0519,6.0045 2.9347,5.5578C3.5363,5.4137 4.1681,5.4974 4.7109,5.791L5.7911,4.7107C5.5919,4.3424 5.4886,3.933 5.4886,3.5148C5.4886,1.5821 7.5814,0.3737 9.2579,1.34C10.9308,2.3082 10.9308,4.7249 9.2561,5.6913C8.4998,6.1274 7.5726,6.1398 6.8056,5.7252L5.7253,6.8054C5.8072,6.9566 5.873,7.1169 5.9228,7.2824L10.0784,7.2824C10.6301,5.4297 12.981,4.8709 14.3104,6.2751ZM3.5149,9.078C4.3443,9.078 4.8622,8.1811 4.4475,7.4639C4.2553,7.1311 3.8994,6.9264 3.5149,6.9264C2.6856,6.9264 2.1677,7.8234 2.5824,8.5406C2.7746,8.8734 3.1306,9.078 3.5149,9.078ZM7.9997,2.4398C7.1722,2.4398 6.6543,3.3368 7.0672,4.0558C7.2594,4.3886 7.6153,4.5932 7.9997,4.5932C8.829,4.5932 9.3469,3.6963 8.9323,2.9791C8.7401,2.6445 8.3841,2.4398 7.9997,2.4398ZM11.947,8.9339C12.6642,9.3486 13.5611,8.8307 13.5611,8.0013C13.5611,7.617 13.3565,7.261 13.0237,7.0688C12.3065,6.6541 11.4095,7.172 11.4095,8.0013C11.4077,8.3857 11.6142,8.7417 11.947,8.9339ZM7.4623,13.4187C8.1794,13.8333 9.0764,13.3154 9.0764,12.4861C9.0764,12.1017 8.8718,11.7458 8.539,11.5536C7.8218,11.1389 6.9248,11.6568 6.9248,12.4861C6.9248,12.8705 7.1294,13.2265 7.4623,13.4187Z" style="fill:context-fill;fill-opacity:context-fill-opacity;fill-rule:nonzero;"/>
</svg>
