<svg width="16" height="16" xmlns="http://www.w3.org/2000/svg" fill="context-fill" fill-opacity="context-fill-opacity">
<path d="M14.5,1.5h-13C0.672,1.5,0,2.172,0,3v10c0,0.828,0.672,1.5,1.5,1.5h13c0.828,0,1.5-0.672,1.5-1.5V3
	C16,2.172,15.328,1.5,14.5,1.5z M11.219,7.058L15,3.349v8.814L11.219,7.058z M14.5,2.5c0.064,0,0.125,0.015,0.181,0.037L9.253,7.861
	C8.915,8.199,8.456,8.385,7.96,8.385c-0.481,0-0.937-0.176-1.285-0.497L1.242,2.582C1.319,2.535,1.404,2.5,1.5,2.5H14.5z M1,12.16
	v-8.69l3.772,3.701L1,12.16z M1.5,13.5c-0.123,0-0.232-0.05-0.319-0.124l4.222-5.586l0.702,0.689
	C6.577,8.929,7.25,9.186,7.951,9.186c0.704,0,1.351-0.262,1.871-0.758l0.764-0.75l4.226,5.704C14.725,13.452,14.62,13.5,14.5,13.5
	H1.5z"/>
</svg>
