<!-- Generator: Adobe Illustrator 25.4.1, SVG Export Plug-In . SVG Version: 6.00 Build 0)  -->
<svg xmlns="http://www.w3.org/2000/svg" width="540" height="20" fill="context-fill" fill-opacity="context-fill-opacity">
<path d="M15.328,10.1c0,3.008-2.414,5.457-5.42,5.501c-1.984,0.03-3.829-1.012-4.83-2.726c-1.001-1.714-1.001-3.832-0.001-5.546
	c1-1.714,2.846-2.756,4.829-2.727C12.912,4.646,15.327,7.094,15.328,10.1z M29.906,4.601c-1.984-0.028-3.829,1.014-4.83,2.727
	c-1,1.714-1,3.832,0.001,5.546c1,1.714,2.846,2.755,4.831,2.726c3.006-0.044,5.42-2.493,5.42-5.501
	C35.327,7.095,32.912,4.645,29.906,4.601z M49.906,4.601c-1.984-0.028-3.829,1.014-4.83,2.727c-1,1.714-1,3.832,0.001,5.546
	c1,1.714,2.846,2.755,4.831,2.726c3.006-0.044,5.42-2.493,5.42-5.501C55.327,7.095,52.912,4.645,49.906,4.601z M69.906,4.601
	c-1.984-0.028-3.83,1.014-4.83,2.727c-1,1.714-1,3.832,0.001,5.546c1,1.714,2.846,2.755,4.831,2.726
	c3.006-0.044,5.42-2.493,5.42-5.501C75.327,7.095,72.912,4.645,69.906,4.601z M89.906,4.601c-1.984-0.028-3.83,1.014-4.83,2.727
	c-1,1.714-1,3.832,0.001,5.546c1,1.714,2.846,2.755,4.831,2.726c3.006-0.044,5.42-2.493,5.42-5.501
	C95.327,7.095,92.912,4.645,89.906,4.601z M109.906,4.601c-1.984-0.029-3.83,1.013-4.83,2.727c-1,1.714-1,3.832,0.001,5.546
	c1,1.714,2.846,2.755,4.831,2.726c3.006-0.044,5.42-2.493,5.42-5.501C115.327,7.095,112.912,4.645,109.906,4.601z M129.906,4.601
	c-1.984-0.029-3.83,1.013-4.83,2.727c-1,1.714-1,3.832,0.001,5.546c1,1.714,2.846,2.755,4.831,2.726
	c3.006-0.044,5.42-2.493,5.42-5.501C135.327,7.095,132.912,4.645,129.906,4.601z M149.906,4.601c-1.984-0.029-3.83,1.013-4.83,2.727
	c-1,1.714-1,3.832,0.001,5.546c1,1.714,2.846,2.755,4.831,2.726c3.006-0.044,5.42-2.493,5.42-5.501
	C155.328,7.091,152.912,4.645,149.906,4.601z M169.908,5.102c-1.803-0.026-3.482,0.922-4.391,2.479
	c-0.91,1.558-0.91,3.485,0.001,5.043c0.91,1.557,2.587,2.505,4.391,2.478c2.733-0.04,4.927-2.267,4.927-5.001
	C174.836,7.367,172.642,5.14,169.908,5.102z M189.915,6.396c-1.336-0.019-2.58,0.683-3.254,1.837s-0.674,2.583,0,3.738
	c0.674,1.154,1.918,1.856,3.254,1.836c2.026-0.03,3.652-1.681,3.652-3.706C193.568,8.075,191.942,6.425,189.915,6.396z
	 M209.909,8.057c-0.738-0.011-1.423,0.376-1.795,1.014c-0.372,0.637-0.372,1.425,0,2.062c0.372,0.637,1.059,1.024,1.795,1.014
	c1.118-0.016,2.015-0.927,2.015-2.044C211.924,8.984,211.026,8.074,209.909,8.057z M229.914,9.506
	c-0.215-0.003-0.415,0.11-0.523,0.296c-0.108,0.186-0.108,0.416,0,0.601c0.108,0.186,0.308,0.298,0.523,0.296
	c0.326-0.004,0.588-0.271,0.588-0.596C230.502,9.776,230.24,9.51,229.914,9.506z M285.597,9.358l2.614,2.615l1.141-1.14
	l-2.614-2.615L285.597,9.358z M309.261,10.166l-2.506-2.507l-1.141,1.14l3.745,3.745l2.108-2.485l-1.231-1.043L309.261,10.166z
	 M329.261,10.481l-2.506-2.507l-1.141,1.14l3.745,3.746l3.792-4.472l-1.229-1.044L329.261,10.481z M349.251,10.898l-2.505-2.507
	l-1.141,1.14l3.744,3.746l4.499-5.306l-1.231-1.044L349.251,10.898z M369.251,10.898l-2.505-2.507l-1.141,1.14l3.744,3.746
	l4.499-5.306l-1.231-1.044L369.251,10.898z M389.251,10.898l-2.505-2.507l-1.141,1.14l3.744,3.746l4.499-5.306l-1.231-1.044
	L389.251,10.898z M417.907,10.101c0,4.411-3.589,8-8,8s-8-3.588-8-8c0-4.411,3.588-8,8-8C414.318,2.101,417.907,5.69,417.907,10.101
	z M416.964,10.102c0-3.892-3.165-7.058-7.057-7.058c-3.892,0-7.058,3.166-7.058,7.058c0,3.892,3.165,7.058,7.058,7.058
	C413.799,17.16,416.964,13.994,416.964,10.102z M409.31,10.836l-2.321-2.321l-1.059,1.059l3.471,3.471l4.165-4.917l-1.141-0.968
	L409.31,10.836z M430.352,9.612l-0.001,0.003l-0.01,0.01l-0.965,1.138l-2.072-2.073l-0.941,0.94l3.094,3.094l3.716-4.383
	l-1.014-0.86L430.352,9.612z M269.977,5.843c-1.536-0.022-2.966,0.785-3.74,2.113c-0.774,1.327-0.774,2.969,0.001,4.296
	c0.775,1.327,2.205,2.134,3.741,2.112c2.329-0.034,4.198-1.932,4.198-4.26C274.177,7.774,272.305,5.876,269.977,5.843z
	 M451.052,10.366l-0.638,0.638V8.423c0-0.177-0.144-0.322-0.322-0.322c-0.177,0-0.322,0.144-0.322,0.322v2.581l-0.637-0.638
	c-0.122-0.122-0.333-0.122-0.455,0c-0.125,0.125-0.125,0.329,0,0.455l1.186,1.186c0.031,0.03,0.067,0.054,0.107,0.071
	c0.04,0.016,0.08,0.024,0.12,0.024c0.041,0,0.082-0.008,0.12-0.024c0.04-0.016,0.076-0.04,0.106-0.071l1.187-1.186
	c0.125-0.125,0.125-0.329,0-0.455C451.383,10.24,451.177,10.24,451.052,10.366z M471.292,10.432l-0.797,0.797V8.003
	c0-0.221-0.18-0.401-0.401-0.401c-0.221,0-0.401,0.18-0.401,0.401v3.226l-0.797-0.797c-0.152-0.153-0.416-0.153-0.569,0
	c-0.156,0.156-0.156,0.411,0,0.568l1.483,1.483c0.039,0.039,0.083,0.068,0.134,0.088c0.049,0.02,0.1,0.031,0.151,0.031
	c0.051,0,0.103-0.01,0.151-0.031c0.05-0.02,0.095-0.05,0.133-0.088L471.862,11c0.157-0.156,0.157-0.411,0-0.568
	C471.706,10.275,471.449,10.275,471.292,10.432z M491.782,10.498l-0.956,0.956v-3.87c0-0.265-0.216-0.482-0.482-0.482
	c-0.265,0-0.482,0.216-0.482,0.482v3.87l-0.955-0.956c-0.183-0.183-0.499-0.183-0.683,0c-0.187,0.187-0.187,0.494,0,0.682l1.78,1.78
	c0.047,0.047,0.1,0.081,0.16,0.106c0.059,0.024,0.12,0.037,0.181,0.037c0.062,0,0.123-0.012,0.181-0.037
	c0.061-0.025,0.114-0.06,0.159-0.106l1.78-1.78c0.188-0.187,0.188-0.494,0-0.682C492.278,10.31,491.969,10.31,491.782,10.498z
	 M511.726,10.565l-1.116,1.116V7.165c0-0.309-0.252-0.562-0.562-0.562c-0.309,0-0.562,0.252-0.562,0.562v4.516l-1.115-1.116
	c-0.213-0.214-0.583-0.214-0.796,0c-0.218,0.218-0.218,0.576,0,0.795l2.076,2.076c0.054,0.054,0.117,0.095,0.186,0.124
	c0.068,0.028,0.141,0.043,0.211,0.043c0.071,0,0.144-0.015,0.211-0.043c0.07-0.029,0.134-0.069,0.186-0.124l2.076-2.076
	c0.219-0.218,0.219-0.576,0-0.795C512.304,10.344,511.944,10.344,511.726,10.565z M538.094,10.102c0,4.411-3.589,8-8,8s-8-3.589-8-8
	s3.589-8,8-8S538.094,5.691,538.094,10.102z M536.843,10.102c0-3.721-3.028-6.748-6.749-6.748s-6.748,3.027-6.748,6.748
	s3.027,6.749,6.748,6.749S536.843,13.823,536.843,10.102z M531.9,10.6l-1.201,1.201V6.942c0-0.333-0.271-0.605-0.605-0.605
	c-0.333,0-0.605,0.271-0.605,0.605v4.859l-1.2-1.201c-0.229-0.23-0.627-0.23-0.857,0c-0.235,0.235-0.235,0.62,0,0.856l2.234,2.234
	c0.058,0.058,0.126,0.102,0.201,0.133c0.074,0.03,0.151,0.046,0.227,0.046c0.077,0,0.155-0.016,0.227-0.046
	c0.076-0.031,0.144-0.075,0.2-0.133l2.234-2.234c0.236-0.235,0.236-0.62,0-0.856C532.521,10.363,532.135,10.363,531.9,10.6z
	 M429.202,10.293c0.019,0.019,0.042,0.034,0.067,0.044c0.025,0.01,0.05,0.015,0.075,0.015c0.025,0,0.052-0.005,0.075-0.015
	c0.025-0.011,0.047-0.025,0.067-0.044l0.732-0.732l0.01-0.011c0.076-0.079,0.076-0.204-0.001-0.282
	c-0.078-0.08-0.206-0.08-0.284-0.001l-0.398,0.398V8.052c0-0.111-0.09-0.201-0.201-0.201c-0.111,0-0.201,0.09-0.201,0.201v1.613
	l-0.398-0.398c-0.076-0.076-0.208-0.076-0.284,0c-0.078,0.078-0.078,0.206,0,0.284L429.202,10.293z M409.295,10.464
	c0.007,0.003,0.014,0.004,0.022,0.004c0.007,0,0.015-0.002,0.022-0.004c0.007-0.002,0.014-0.007,0.02-0.013l0.218-0.218
	c0.023-0.023,0.023-0.06,0-0.083c-0.022-0.023-0.06-0.023-0.083,0l-0.117,0.117V9.794c0-0.032-0.027-0.059-0.059-0.059
	s-0.059,0.027-0.059,0.059v0.474l-0.117-0.117c-0.022-0.022-0.061-0.022-0.083,0c-0.023,0.023-0.023,0.06,0,0.083l0.218,0.218
	C409.28,10.457,409.288,10.461,409.295,10.464z M17.906,10.103c0,4.411-3.589,8-8,8s-8-3.589-8-8s3.589-8,8-8
	S17.906,5.692,17.906,10.103z M16.655,10.103c0-3.721-3.028-6.748-6.749-6.748s-6.748,3.027-6.748,6.748s3.027,6.749,6.748,6.749
	S16.655,13.824,16.655,10.103z M37.907,10.076c0,4.411-3.589,8-8,8s-8-3.589-8-8s3.589-8,8-8S37.907,5.665,37.907,10.076z
	 M36.656,10.076c0-3.721-3.028-6.748-6.749-6.748s-6.748,3.027-6.748,6.748s3.027,6.749,6.748,6.749S36.656,13.797,36.656,10.076z
	 M57.827,10.076c0,4.411-3.589,8-8,8s-8-3.589-8-8s3.589-8,8-8S57.827,5.665,57.827,10.076z M56.576,10.076
	c0-3.721-3.028-6.748-6.749-6.748s-6.748,3.027-6.748,6.748s3.027,6.749,6.748,6.749S56.576,13.797,56.576,10.076z M77.907,10.103
	c0,4.411-3.589,8-8,8s-8-3.589-8-8s3.589-8,8-8S77.907,5.692,77.907,10.103z M76.656,10.103c0-3.721-3.028-6.748-6.749-6.748
	s-6.748,3.027-6.748,6.748s3.027,6.749,6.748,6.749S76.656,13.824,76.656,10.103z M97.907,9.895c0,4.411-3.589,8-8,8s-8-3.589-8-8
	s3.589-8,8-8S97.907,5.484,97.907,9.895z M96.656,9.895c0-3.721-3.028-6.748-6.749-6.748s-6.748,3.027-6.748,6.748
	s3.027,6.749,6.748,6.749S96.656,13.616,96.656,9.895z M117.906,10.102c0,4.411-3.589,8-8,8s-8-3.589-8-8s3.589-8,8-8
	S117.906,5.691,117.906,10.102z M116.655,10.102c0-3.721-3.028-6.748-6.749-6.748s-6.748,3.027-6.748,6.748s3.027,6.749,6.748,6.749
	S116.655,13.823,116.655,10.102z M137.827,10.076c0,4.411-3.589,8-8,8c-4.411,0-8-3.589-8-8s3.589-8,8-8
	C134.238,2.076,137.827,5.665,137.827,10.076z M136.576,10.076c0-3.721-3.028-6.748-6.749-6.748c-3.721,0-6.748,3.027-6.748,6.748
	s3.027,6.749,6.748,6.749C133.548,16.825,136.576,13.797,136.576,10.076z M157.906,10.076c0,4.411-3.589,8-8,8s-8-3.589-8-8
	s3.589-8,8-8S157.906,5.665,157.906,10.076z M156.655,10.076c0-3.721-3.028-6.748-6.749-6.748s-6.748,3.027-6.748,6.748
	s3.027,6.749,6.748,6.749S156.655,13.797,156.655,10.076z M177.906,10.102c0,4.411-3.589,8-8,8s-8-3.589-8-8s3.589-8,8-8
	S177.906,5.691,177.906,10.102z M176.655,10.102c0-3.721-3.028-6.748-6.749-6.748s-6.748,3.027-6.748,6.748s3.027,6.749,6.748,6.749
	S176.655,13.823,176.655,10.102z M197.906,10.076c0,4.411-3.589,8-8,8s-8-3.589-8-8s3.589-8,8-8S197.906,5.665,197.906,10.076z
	 M196.655,10.076c0-3.721-3.028-6.748-6.749-6.748s-6.748,3.027-6.748,6.748s3.027,6.749,6.748,6.749S196.655,13.797,196.655,10.076
	z M218.038,10.102c0,4.411-3.589,8-8,8s-8-3.589-8-8s3.589-8,8-8S218.038,5.691,218.038,10.102z M216.787,10.102
	c0-3.721-3.028-6.748-6.749-6.748s-6.748,3.027-6.748,6.748s3.027,6.749,6.748,6.749S216.787,13.823,216.787,10.102z
	 M237.906,10.103c0,4.411-3.589,8-8,8s-8-3.589-8-8s3.589-8,8-8S237.906,5.692,237.906,10.103z M236.655,10.103
	c0-3.721-3.028-6.748-6.749-6.748s-6.748,3.027-6.748,6.748s3.027,6.749,6.748,6.749S236.655,13.824,236.655,10.103z
	 M257.907,10.076c0,4.411-3.589,8-8,8s-8-3.589-8-8s3.589-8,8-8S257.907,5.665,257.907,10.076z M256.656,10.076
	c0-3.721-3.028-6.748-6.749-6.748s-6.748,3.027-6.748,6.748s3.027,6.749,6.748,6.749S256.656,13.797,256.656,10.076z
	 M277.917,10.103c0,4.411-3.589,8-8,8s-8-3.589-8-8s3.589-8,8-8S277.917,5.692,277.917,10.103z M276.666,10.103
	c0-3.721-3.028-6.748-6.749-6.748s-6.748,3.027-6.748,6.748s3.027,6.749,6.748,6.749S276.666,13.824,276.666,10.103z
	 M297.907,10.076c0,4.411-3.589,8-8,8s-8-3.589-8-8s3.589-8,8-8S297.907,5.665,297.907,10.076z M296.656,10.076
	c0-3.721-3.028-6.748-6.749-6.748s-6.748,3.027-6.748,6.748s3.027,6.749,6.748,6.749S296.656,13.797,296.656,10.076z
	 M317.907,10.076c0,4.411-3.589,8-8,8s-8-3.589-8-8s3.589-8,8-8S317.907,5.665,317.907,10.076z M316.656,10.076
	c0-3.721-3.028-6.748-6.749-6.748s-6.748,3.027-6.748,6.748s3.027,6.749,6.748,6.749S316.656,13.797,316.656,10.076z
	 M337.908,10.076c0,4.411-3.589,8-8,8s-8-3.589-8-8s3.589-8,8-8S337.908,5.665,337.908,10.076z M336.657,10.076
	c0-3.721-3.028-6.748-6.749-6.748s-6.748,3.027-6.748,6.748s3.027,6.749,6.748,6.749S336.657,13.797,336.657,10.076z
	 M357.907,10.076c0,4.411-3.589,8-8,8s-8-3.589-8-8s3.589-8,8-8S357.907,5.665,357.907,10.076z M356.656,10.076
	c0-3.721-3.028-6.748-6.749-6.748s-6.748,3.027-6.748,6.748s3.027,6.749,6.748,6.749S356.656,13.797,356.656,10.076z
	 M377.907,10.076c0,4.411-3.589,8-8,8s-8-3.589-8-8s3.589-8,8-8S377.907,5.665,377.907,10.076z M376.656,10.076
	c0-3.721-3.028-6.748-6.749-6.748s-6.748,3.027-6.748,6.748s3.027,6.749,6.748,6.749S376.656,13.797,376.656,10.076z
	 M398.086,10.076c0,4.411-3.589,8-8,8s-8-3.589-8-8s3.589-8,8-8S398.086,5.665,398.086,10.076z M396.835,10.076
	c0-3.721-3.028-6.748-6.749-6.748s-6.748,3.027-6.748,6.748s3.027,6.749,6.748,6.749S396.835,13.797,396.835,10.076z
	 M417.907,10.076c0,4.411-3.589,8-8,8s-8-3.589-8-8s3.589-8,8-8S417.907,5.665,417.907,10.076z M416.656,10.076
	c0-3.721-3.028-6.748-6.749-6.748s-6.748,3.027-6.748,6.748s3.027,6.749,6.748,6.749S416.656,13.797,416.656,10.076z
	 M458.092,10.076c0,4.411-3.589,8-8,8s-8-3.589-8-8s3.589-8,8-8S458.092,5.665,458.092,10.076z M456.841,10.076
	c0-3.721-3.028-6.748-6.749-6.748s-6.748,3.027-6.748,6.748s3.027,6.749,6.748,6.749S456.841,13.797,456.841,10.076z
	 M478.095,10.104c0,4.411-3.589,8-8,8s-8-3.589-8-8s3.589-8,8-8S478.095,5.693,478.095,10.104z M476.844,10.104
	c0-3.721-3.028-6.748-6.749-6.748s-6.748,3.027-6.748,6.748s3.027,6.749,6.748,6.749S476.844,13.825,476.844,10.104z
	 M498.345,10.105c0,4.411-3.589,8-8,8s-8-3.589-8-8s3.589-8,8-8S498.345,5.694,498.345,10.105z M497.094,10.105
	c0-3.721-3.028-6.748-6.749-6.748s-6.748,3.027-6.748,6.748s3.027,6.749,6.748,6.749S497.094,13.826,497.094,10.105z
	 M518.047,10.076c0,4.411-3.589,8-8,8c-4.411,0-8-3.589-8-8s3.589-8,8-8C514.458,2.076,518.047,5.665,518.047,10.076z
	 M516.796,10.076c0-3.721-3.028-6.748-6.749-6.748c-3.721,0-6.748,3.027-6.748,6.748s3.027,6.749,6.748,6.749
	C513.768,16.825,516.796,13.797,516.796,10.076z M437.344,10.076c0,4.411-3.589,8-8,8s-8-3.589-8-8s3.589-8,8-8
	S437.344,5.665,437.344,10.076z M436.093,10.076c0-3.721-3.028-6.748-6.749-6.748s-6.748,3.027-6.748,6.748s3.027,6.749,6.748,6.749
	S436.093,13.797,436.093,10.076z"/>
</svg>
