<!-- Generator: Adobe Illustrator 25.4.1, SVG Export Plug-In . SVG Version: 6.00 Build 0)  -->
<svg xmlns="http://www.w3.org/2000/svg" width="340" height="20" fill="context-fill" fill-opacity="context-fill-opacity">
<path d="M10.071,2.029c-4.411,0-8,3.589-8,8s3.589,8,8,8s8-3.589,8-8S14.482,2.029,10.071,2.029z M10.071,16.777
	c-3.72,0-6.748-3.029-6.748-6.749c0-3.72,3.028-6.748,6.748-6.748c3.72,0,6.749,3.028,6.749,6.748
	C16.82,13.748,13.792,16.777,10.071,16.777z M12.731,10.526c0.235,0.236,0.235,0.621,0,0.856l-2.234,2.234
	c-0.055,0.058-0.124,0.102-0.2,0.133c-0.072,0.029-0.151,0.045-0.227,0.045c-0.075,0-0.153-0.015-0.227-0.045
	c-0.074-0.031-0.142-0.074-0.2-0.133l-2.234-2.234c-0.234-0.236-0.234-0.621,0-0.856c0.23-0.23,0.629-0.23,0.857,0l1.199,1.202
	v-4.86c0-0.334,0.272-0.605,0.605-0.605c0.334,0,0.605,0.272,0.605,0.605v4.859l1.202-1.202
	C12.112,10.289,12.499,10.289,12.731,10.526z M30.444,7.034v4.516l1.116-1.116c0.221-0.22,0.581-0.22,0.796,0
	c0.219,0.219,0.219,0.577,0,0.796l-2.076,2.076c-0.052,0.054-0.115,0.095-0.186,0.124c-0.067,0.028-0.139,0.043-0.211,0.043
	c-0.071,0-0.142-0.015-0.211-0.043c-0.07-0.029-0.133-0.07-0.187-0.124l-2.076-2.076c-0.218-0.219-0.218-0.577,0-0.796
	c0.214-0.214,0.584-0.214,0.796,0l1.115,1.116V7.034c0-0.31,0.253-0.562,0.562-0.562C30.192,6.472,30.444,6.725,30.444,7.034z
	 M50.366,7.454v3.871l0.957-0.957c0.187-0.188,0.496-0.188,0.681,0c0.188,0.188,0.188,0.495,0,0.682l-1.78,1.78
	c-0.044,0.046-0.1,0.081-0.16,0.105c-0.058,0.025-0.12,0.037-0.181,0.037c-0.061,0-0.123-0.012-0.181-0.037
	c-0.06-0.024-0.114-0.059-0.16-0.105l-1.78-1.78c-0.187-0.188-0.187-0.495,0-0.682c0.183-0.183,0.5-0.183,0.683,0l0.957,0.957V7.454
	c0-0.267,0.217-0.482,0.482-0.482C50.15,6.972,50.365,7.19,50.366,7.454z M71.245,10.302c0.156,0.157,0.156,0.413,0,0.568
	l-1.483,1.483c-0.037,0.039-0.083,0.067-0.133,0.088c-0.048,0.02-0.1,0.031-0.151,0.031c-0.05,0-0.102-0.01-0.151-0.031
	c-0.05-0.02-0.095-0.05-0.133-0.088L67.71,10.87c-0.156-0.157-0.156-0.413,0-0.568c0.153-0.153,0.417-0.153,0.569,0l0.797,0.797
	V7.875c0-0.222,0.181-0.402,0.402-0.402c0.222,0,0.402,0.181,0.402,0.402V11.1l0.797-0.797
	C70.833,10.144,71.09,10.144,71.245,10.302z M87.482,10.781c-0.14-0.141-0.14-0.371,0-0.511c0.137-0.138,0.375-0.138,0.512,0
	l0.716,0.718V8.083c0-0.199,0.163-0.361,0.361-0.361c0.2,0,0.361,0.163,0.364,0.361v2.904l0.718-0.718
	c0.141-0.141,0.372-0.141,0.511,0.001c0.141,0.141,0.141,0.371,0,0.511l-1.335,1.335c-0.033,0.034-0.075,0.061-0.12,0.079
	c-0.043,0.019-0.09,0.027-0.136,0.027s-0.092-0.01-0.136-0.027c-0.045-0.018-0.086-0.045-0.12-0.079L87.482,10.781z M110.154,10.229
	c0.122,0.122,0.122,0.321,0,0.443l-1.157,1.157c-0.029,0.03-0.065,0.053-0.104,0.069c-0.038,0.016-0.078,0.024-0.118,0.024
	c-0.04,0-0.08-0.008-0.118-0.024c-0.039-0.016-0.074-0.039-0.104-0.069l-1.157-1.157c-0.122-0.122-0.122-0.321,0-0.443
	c0.119-0.119,0.325-0.119,0.444,0l0.621,0.622V8.336c0-0.173,0.141-0.313,0.313-0.313c0.173,0,0.313,0.141,0.313,0.313v2.516
	l0.622-0.622C109.831,10.107,110.031,10.107,110.154,10.229z M130.621,10.159c0.088,0.088,0.088,0.231,0,0.318l-0.83,0.83
	c-0.02,0.021-0.046,0.037-0.074,0.049c-0.026,0.011-0.055,0.017-0.084,0.017c-0.028,0-0.057-0.006-0.084-0.017
	c-0.028-0.011-0.053-0.027-0.075-0.049l-0.83-0.83c-0.087-0.088-0.087-0.231,0-0.318c0.086-0.085,0.234-0.085,0.319,0l0.446,0.446
	V8.797c0-0.124,0.101-0.225,0.225-0.225c0.124,0,0.225,0.101,0.225,0.225v1.805l0.446-0.446
	C130.392,10.068,130.536,10.068,130.621,10.159z M150.373,10.061c0.042,0.042,0.042,0.111,0,0.153l-0.4,0.4
	c-0.01,0.011-0.022,0.018-0.036,0.024c-0.013,0.005-0.027,0.008-0.041,0.008c-0.014,0-0.028-0.003-0.041-0.008
	c-0.013-0.006-0.026-0.014-0.036-0.024l-0.4-0.4c-0.042-0.042-0.042-0.111,0-0.153c0.042-0.041,0.113-0.041,0.154,0l0.215,0.215
	V9.406c0-0.059,0.048-0.108,0.108-0.108c0.059,0,0.108,0.048,0.108,0.108v0.87l0.215-0.215
	C150.261,10.019,150.331,10.019,150.373,10.061z M170.095,10.021c0.024-0.023,0.062-0.023,0.086,0c0.023,0.023,0.023,0.062,0,0.085
	l-0.222,0.222c-0.006,0.006-0.012,0.01-0.02,0.013s-0.015,0.005-0.023,0.005s-0.016-0.002-0.023-0.005s-0.014-0.007-0.02-0.013
	l-0.222-0.222c-0.023-0.023-0.023-0.062,0-0.085s0.062-0.023,0.085,0l0.119,0.12V9.659c0-0.033,0.027-0.06,0.06-0.06
	c0.033,0,0.06,0.027,0.06,0.06v0.484L170.095,10.021z M189.987,10C190,9.987,190.02,9.987,190.033,10
	c0.013,0.012,0.013,0.033,0,0.045l-0.119,0.119c-0.003,0.003-0.007,0.005-0.011,0.007c-0.004,0.001-0.008,0.002-0.012,0.002
	c-0.004,0-0.008,0-0.012-0.002c-0.004-0.002-0.008-0.004-0.011-0.007l-0.119-0.119c-0.012-0.012-0.012-0.033,0-0.045
	c0.013-0.012,0.034-0.012,0.046,0l0.064,0.064V9.805c0-0.018,0.014-0.032,0.032-0.032c0.018,0,0.032,0.014,0.032,0.032v0.259
	L189.987,10z M105.53,16v1.376c-2.083-0.852-3.722-2.558-4.494-4.68h1.343C103.014,14.13,104.134,15.298,105.53,16z M125.374,15.201
	v1.531c-2.244-1.419-3.741-3.915-3.741-6.76c0-1.638,0.497-3.162,1.345-4.432h1.579c-1.038,1.187-1.672,2.735-1.672,4.432
	C122.885,12.079,123.857,13.962,125.374,15.201z M157.381,7.175h-1.351c-1.066-2.327-3.412-3.951-6.134-3.951
	c-3.721,0-6.748,3.027-6.748,6.748c0,2.122,0.987,4.017,2.524,5.255v1.526c-2.263-1.415-3.776-3.922-3.776-6.781
	c0-4.411,3.589-8,8-8C153.322,1.972,156.244,4.141,157.381,7.175z M177.916,9.972c0,2.21-0.901,4.213-2.355,5.662V13.66
	c0.696-1.061,1.104-2.327,1.104-3.688c0-3.721-3.028-6.748-6.749-6.748s-6.748,3.027-6.748,6.748c0,2.246,1.108,4.235,2.801,5.462
	v1.487c-2.417-1.378-4.053-3.974-4.053-6.95c0-4.411,3.589-8,8-8S177.916,5.561,177.916,9.972z M197.892,9.972
	c0,3.703-2.533,6.817-5.954,7.725v-1.295c2.724-0.869,4.703-3.422,4.703-6.43c0-3.721-3.028-6.748-6.749-6.748
	s-6.748,3.027-6.748,6.748c0,2.233,1.095,4.211,2.772,5.44v1.491c-2.4-1.383-4.024-3.969-4.024-6.932c0-4.411,3.589-8,8-8
	S197.892,5.561,197.892,9.972z M217.929,9.972c0,4.411-3.589,8-8,8c-0.298,0-0.592-0.019-0.882-0.051l0.462-1.221
	c0.139,0.009,0.278,0.021,0.419,0.021c3.721,0,6.749-3.028,6.749-6.749s-3.028-6.748-6.749-6.748c-3.721,0-6.748,3.027-6.748,6.748
	c0,2.329,1.187,4.387,2.987,5.6l-0.45,1.189c-2.27-1.413-3.789-3.924-3.789-6.789c0-4.411,3.589-8,8-8
	C214.339,1.972,217.929,5.561,217.929,9.972z M237.93,9.972c0,4.411-3.589,8-8,8c-0.919,0-1.798-0.164-2.621-0.45l0.562-1.125
	c0.65,0.209,1.341,0.324,2.058,0.324c3.721,0,6.749-3.028,6.749-6.749s-3.028-6.748-6.749-6.748c-3.721,0-6.748,3.027-6.748,6.748
	c0,2.338,1.196,4.401,3.007,5.612l-0.561,1.121c-2.22-1.423-3.698-3.907-3.698-6.734c0-4.411,3.589-8,8-8S237.93,5.561,237.93,9.972
	z M257.93,9.972c0,4.411-3.589,8-8,8c-1.38,0-2.679-0.351-3.814-0.969l0.626-1.085c0.95,0.511,2.035,0.803,3.187,0.803
	c3.721,0,6.749-3.028,6.749-6.749s-3.028-6.748-6.749-6.748s-6.748,3.027-6.748,6.748c0,2.333,1.19,4.392,2.994,5.605l-0.625,1.082
	c-2.178-1.431-3.622-3.892-3.622-6.687c0-4.411,3.589-8,8-8S257.93,5.561,257.93,9.972z M277.931,9.972c0,4.411-3.589,8-8,8
	c-1.553,0-2.998-0.452-4.227-1.22l0.561-1.121c1.057,0.687,2.314,1.091,3.666,1.091c3.721,0,6.749-3.028,6.749-6.749
	c0-3.721-3.028-6.748-6.749-6.748c-3.721,0-6.748,3.027-6.748,6.748c0,2.261,1.122,4.262,2.834,5.487l-0.568,1.136
	c-2.121-1.44-3.518-3.871-3.518-6.622c0-4.411,3.589-8,8-8S277.931,5.561,277.931,9.972z M289.929,1.972c-4.411,0-8,3.589-8,8
	s3.589,8,8,8s8-3.589,8-8S294.34,1.972,289.929,1.972z M289.929,16.721c-3.721,0-6.748-3.028-6.748-6.749s3.027-6.748,6.748-6.748
	s6.749,3.027,6.749,6.748S293.65,16.721,289.929,16.721z M309.734,1.972c-4.411,0-8,3.589-8,8s3.589,8,8,8s8-3.589,8-8
	S314.145,1.972,309.734,1.972z M309.734,16.721c-3.721,0-6.748-3.028-6.748-6.749s3.027-6.748,6.748-6.748
	c3.721,0,6.749,3.027,6.749,6.748S313.455,16.721,309.734,16.721z M329.929,1.972c-4.411,0-8,3.589-8,8s3.589,8,8,8s8-3.589,8-8
	S334.34,1.972,329.929,1.972z M329.929,16.721c-3.721,0-6.748-3.028-6.748-6.749s3.027-6.748,6.748-6.748s6.749,3.027,6.749,6.748
	S333.65,16.721,329.929,16.721z M72.435,3.929c-0.895-0.441-1.893-0.704-2.957-0.704c-3.721,0-6.748,3.027-6.748,6.748
	c0,0.884,0.176,1.726,0.488,2.5h-1.332c-0.26-0.788-0.408-1.626-0.408-2.5c0-4.411,3.589-8,8-8c1.203,0,2.341,0.275,3.366,0.753
	v0.003L72.435,3.929z M37.499,12.472c-1.036,3.219-4.056,5.556-7.615,5.556c-4.411,0-8-3.589-8-8s3.589-8,8-8
	c1.277,0,2.48,0.31,3.553,0.845l-0.412,1.208c-0.941-0.501-2.003-0.801-3.141-0.801c-3.721,0-6.748,3.027-6.748,6.748
	s3.027,6.749,6.748,6.749c2.858,0,5.302-1.79,6.284-4.305H37.499z M96.746,12.222c-0.975,3.318-4.043,5.75-7.672,5.75
	c-0.582,0-1.149-0.066-1.696-0.185v-1.29c0.543,0.141,1.109,0.224,1.696,0.224c2.931,0,5.425-1.882,6.355-4.499H96.746z
	 M52.145,17.634c-0.718,0.214-1.475,0.339-2.262,0.339c-4.411,0-8-3.589-8-8s3.589-8,8-8c1.274,0,2.475,0.308,3.546,0.84
	l-0.412,1.209c-0.939-0.498-1.998-0.797-3.133-0.797c-3.721,0-6.748,3.027-6.748,6.748s3.027,6.749,6.748,6.749
	c0.794,0,1.553-0.148,2.261-0.402V17.634z"/>
</svg>
