<svg width="16" height="16" xmlns="http://www.w3.org/2000/svg" fill="context-fill" fill-opacity="context-fill-opacity">
<path d="M8,0.5C3.865,0.5,0.5,3.865,0.5,8c0,4.136,3.365,7.5,7.5,7.5c4.136,0,7.5-3.364,7.5-7.5C15.5,3.865,12.136,0.5,8,0.5z
	 M8,14.295c-3.471,0-6.294-2.824-6.294-6.295c0-3.47,2.823-6.293,6.294-6.293C11.466,1.711,14.29,4.534,14.294,8
	C14.294,11.471,11.47,14.295,8,14.295z M5.316,9.937c-0.551,0-1-0.448-1-0.999c0-0.201,0.061-0.396,0.174-0.564l2.684-3.937
	C7.361,4.163,7.67,4,8.001,4c0.201,0,0.396,0.06,0.563,0.174c0.103,0.07,0.192,0.159,0.263,0.264l2.684,3.937
	c0.114,0.167,0.173,0.362,0.173,0.563c0,0.551-0.448,0.999-1,0.999H5.316z M8,4.926c-0.015,0-0.029,0.005-0.042,0.013L5.254,8.896
	l0.059,0.116h5.371l0.149-0.175l-0.087,0.059L8.061,4.958L8,4.926z M11.222,12c0.255,0,0.463-0.208,0.463-0.464
	c0-0.255-0.207-0.463-0.463-0.463H4.779c-0.255,0-0.464,0.207-0.464,0.463C4.315,11.792,4.523,12,4.779,12H11.222z"/>
</svg>
