<svg width="16" height="16" xmlns="http://www.w3.org/2000/svg" fill="context-fill" fill-opacity="context-fill-opacity">
<path d="M15.25,10H14V1.75C14,1.336,13.664,1,13.25,1H0.75C0.336,1,0,1.336,0,1.75v10.5C0,12.664,0.336,13,0.75,13H7v1.25
	C7,14.664,7.336,15,7.75,15h7.5c0.414,0,0.75-0.336,0.75-0.75v-3.5C16,10.336,15.664,10,15.25,10z M1.3,12.1
	c-0.221,0-0.4-0.179-0.4-0.4V2.3c0-0.221,0.179-0.4,0.4-0.4h11.4c0.221,0,0.4,0.179,0.4,0.4V10H7.75C7.336,10,7,10.336,7,10.75v1.35
	H1.3z M2.623,3.619c0.159-0.159,0.416-0.159,0.574,0l0,0l3.486,3.486V4.033c0-0.224,0.182-0.406,0.406-0.406
	c0.224,0,0.406,0.182,0.406,0.406l0,4.06C7.496,8.318,7.314,8.5,7.09,8.5c0,0,0,0,0,0l-4.06,0c-0.224,0-0.406-0.182-0.406-0.406
	c0-0.224,0.182-0.406,0.406-0.406l0,0l3.088,0L2.623,4.193C2.465,4.035,2.465,3.778,2.623,3.619L2.623,3.619L2.623,3.619z"/>
</svg>
