<svg width="16" height="16" xmlns="http://www.w3.org/2000/svg" fill="context-fill" fill-opacity="context-fill-opacity">
<path d="M12.126,5.092H3.933c0.532-1.663,1.122-3.526,1.16-3.621c0.028-0.086,0.095-0.143,0.209-0.114
	c0.209,0.047,1.891,0.408,1.891,0.408s3.498-0.532,3.621-0.561c0.105-0.019,0.181,0.038,0.2,0.133
	C11.023,1.376,11.613,3.362,12.126,5.092z M8.02,6.982c-4.144,0-7.014,1.416-7.509,1.673c-0.019,0.01-0.01,0.038,0.009,0.038H15.48
	c0.019,0,0.028-0.029,0.009-0.038C15.006,8.389,12.174,6.982,8.02,6.982z M13.257,12.618c-0.076,1.16-1.017,2.101-2.177,2.177
	c-1.359,0.086-2.481-0.989-2.481-2.329c0-0.066,0-0.133,0.009-0.199c-0.189-0.068-0.398-0.096-0.607-0.096
	c-0.219,0-0.428,0.038-0.637,0.105c0.009,0.066,0.009,0.124,0.009,0.19c0,1.34-1.121,2.414-2.481,2.329
	c-1.16-0.076-2.1-1.017-2.177-2.177c-0.076-1.35,0.998-2.481,2.329-2.481c0.969,0,1.806,0.599,2.158,1.445
	c0.257-0.076,0.523-0.124,0.799-0.124c0.266,0,0.523,0.038,0.77,0.114c0.352-0.846,1.179-1.435,2.158-1.435
	C12.269,10.137,13.343,11.268,13.257,12.618z M6.775,12.468c0-0.956-0.775-1.731-1.731-1.731c-0.956,0-1.731,0.775-1.731,1.731
	c0,0.956,0.774,1.731,1.731,1.731C6.001,14.199,6.775,13.424,6.775,12.468z M12.662,12.468c0-0.956-0.775-1.731-1.731-1.731
	c-0.956,0-1.731,0.775-1.731,1.731c0,0.956,0.775,1.731,1.731,1.731C11.887,14.199,12.662,13.424,12.662,12.468z"/>
</svg>
