<svg width="16" height="16" xmlns="http://www.w3.org/2000/svg" fill="context-fill" fill-opacity="context-fill-opacity">
<path d="M11.576,5.593c0.248,0.244,0.251,0.643,0.007,0.891l-3.892,3.885c-0.064,0.063-0.141,0.112-0.225,0.143
	c-0.247,0.134-0.553,0.088-0.75-0.113L4.421,8.104C4.302,7.985,4.235,7.825,4.236,7.657C4.239,7.313,4.52,7.036,4.863,7.039
	c0.165,0.002,0.324,0.066,0.443,0.18l1.875,1.883l3.517-3.503c0.155-0.16,0.385-0.223,0.6-0.165
	C11.403,5.462,11.499,5.516,11.576,5.593z M15.5,8c0-4.135-3.364-7.5-7.5-7.5C3.865,0.5,0.5,3.865,0.5,8c0,4.136,3.365,7.5,7.5,7.5
	C12.136,15.5,15.5,12.136,15.5,8z M8,1.707C11.466,1.711,14.29,4.534,14.294,8c0,3.471-2.824,6.295-6.294,6.295
	c-3.471,0-6.294-2.824-6.294-6.295C1.706,4.53,4.53,1.707,8,1.707L8,1.707z"/>
</svg>
