<svg width="16" height="16" xmlns="http://www.w3.org/2000/svg" fill="context-fill" fill-opacity="context-fill-opacity">
<path d="M13.739,0.801L2.261,0.8C1.014,0.8,0,1.839,0,3.116v9.768C0,14.161,1.014,15.2,2.261,15.2h11.478
c1.247,0,2.261-1.039,2.261-2.316V3.116C16,1.839,14.986,0.801,13.739,0.801z M5.725,14.025H2.261c-0.614,0-1.113-0.513-1.113-1.141V3.116c0-0.629,0.499-1.14,1.113-1.14h3.464V14.025z M14.851,12.885c0,0.629-0.499,1.141-1.112,1.141l-6.864-0.001V1.976h6.864c0.614,0,1.112,0.511,1.112,1.14V12.885z M2.016,3.976h2.84v1.2h-2.84V3.976z M2.016,7.401h2.84v1.2h-2.84V7.401z M2.016,10.825h2.84v1.2h-2.84V10.825z"/>
</svg>