<svg width="16" height="16" xmlns="http://www.w3.org/2000/svg" fill="context-fill" fill-opacity="context-fill-opacity">
<path d="M13.739,0.801L2.261,0.8C1.014,0.8,0,1.839,0,3.116v9.768C0,14.161,1.014,15.2,2.261,15.2h11.478
c1.247,0,2.261-1.039,2.261-2.316V3.116C16,1.839,14.986,0.801,13.739,0.801z M1.148,12.884V3.116c0-0.629,0.499-1.14,1.113-1.14h1.364v12.049l-1.364,0C1.647,14.025,1.148,13.512,1.148,12.884z M14.851,12.885c0,0.629-0.499,1.141-1.112,1.141l-8.964-0.001V1.976h8.964c0.614,0,1.112,0.511,1.112,1.14V12.885z M1.887,3.976h1v1.2h-1V3.976z M1.887,10.825h1v1.2h-1V10.825z M1.887,7.401h1v1.2h-1V7.401z"/>
</svg>