<!-- Generator: Adobe Illustrator 25.4.1, SVG Export Plug-In . SVG Version: 6.00 Build 0)  -->
<svg xmlns="http://www.w3.org/2000/svg" width="300" height="20" fill="context-fill" fill-opacity="context-fill-opacity">
<path d="M15.421,5.236l-4.685,4.685l4.685,4.813c0.284,0.286,0.284,0.751,0,1.036c-0.139,0.14-0.323,0.216-0.517,0.216
	c-0.197,0-0.382-0.076-0.519-0.215L9.7,11.087l-4.814,4.685c-0.139,0.138-0.323,0.214-0.518,0.214s-0.379-0.075-0.518-0.213
	c-0.285-0.286-0.285-0.753,0-1.038l4.685-4.685L3.849,5.236C3.711,5.098,3.635,4.914,3.635,4.718c0-0.195,0.076-0.379,0.214-0.518
	c0.132-0.131,0.321-0.206,0.518-0.206S4.753,4.069,4.885,4.2L9.57,8.886l4.814-4.685c0.139-0.139,0.323-0.215,0.52-0.215
	c0.195,0,0.379,0.076,0.516,0.214c0.139,0.139,0.215,0.323,0.215,0.518S15.559,5.097,15.421,5.236z M294.862,10.958v0.252
	c0,2.635-2.143,4.779-4.779,4.779s-4.78-2.143-4.78-4.779s2.145-4.78,4.78-4.78h0.251l0.237,0.008l-1.378,1.371l1.059,1.066
	l3.198-3.191l-3.19-3.198l-1.067,1.059l1.375,1.386h-0.485l-0.251,0.013c-3.379,0.135-6.026,2.887-6.026,6.265
	c0,3.461,2.816,6.277,6.277,6.277c3.46,0,6.276-2.816,6.277-6.277l0.005-0.246L294.862,10.958z M274.157,10.841l0.006,0.252
	c0.065,2.634-2.025,4.83-4.66,4.895c-2.635,0.065-4.831-2.025-4.896-4.66s2.027-4.831,4.661-4.896l0.251-0.006l0.237,0.002
	l-1.344,1.404l1.085,1.04l3.119-3.268l-3.268-3.119l-1.041,1.085l1.409,1.352l-0.485,0.012l-0.251,0.019
	c-3.374,0.218-5.953,3.034-5.87,6.411c0.085,3.46,2.969,6.206,6.429,6.121c3.458-0.085,6.205-2.969,6.122-6.43l-0.001-0.246
	L274.157,10.841z M255.807,8.535l-1.387,0.581l0.097,0.232c1.027,2.427-0.112,5.237-2.54,6.263
	c-2.428,1.026-5.238-0.113-6.264-2.541c-1.026-2.428,0.115-5.239,2.542-6.265l0.231-0.097l0.221-0.084l-0.735,1.799l1.391,0.57
	l1.703-4.185l-4.184-1.703l-0.57,1.392l1.806,0.741l-0.447,0.189l-0.226,0.11c-3.059,1.44-4.425,5.006-3.11,8.117
	c1.349,3.188,5.04,4.685,8.227,3.337c3.186-1.347,4.683-5.039,3.336-8.227L255.807,8.535z M235.152,6.875l-0.156-0.191l-1.199,1.012
	l0.164,0.193c1.707,2.007,1.392,5.09-0.703,6.873c-2.097,1.784-5.191,1.602-6.898-0.406c-1.708-2.008-1.391-5.093,0.704-6.875
	l0.199-0.17l0.194-0.153l-0.206,1.977l1.533,0.096l0.475-4.594l-4.608-0.276l-0.161,1.528l1.991,0.125l-0.385,0.329l-0.191,0.179
	c-2.598,2.389-2.919,6.276-0.73,8.848c2.243,2.636,6.308,2.874,9.059,0.534C236.984,13.562,237.398,9.513,235.152,6.875z
	 M35.635,4.718c0-0.195-0.076-0.379-0.215-0.518c-0.137-0.138-0.321-0.214-0.516-0.214c-0.197,0-0.381,0.076-0.52,0.215L29.57,8.886
	L24.885,4.2c-0.132-0.131-0.321-0.206-0.518-0.206S23.981,4.069,23.849,4.2c-0.138,0.139-0.214,0.323-0.214,0.518
	c0,0.196,0.076,0.38,0.215,0.518l4.685,4.814l-1.185,1.185l1.084,1.084l1.266-1.232l4.685,4.684
	c0.137,0.139,0.322,0.215,0.519,0.215c0.194,0,0.378-0.076,0.517-0.216c0.284-0.285,0.284-0.75,0-1.036l-4.685-4.813l4.685-4.685
	C35.559,5.097,35.635,4.913,35.635,4.718z M54.904,3.986c-0.197,0-0.381,0.076-0.52,0.215l-1.341,1.305l1.054,1.054l1.324-1.324
	c0.138-0.139,0.214-0.323,0.214-0.518S55.559,4.339,55.419,4.2C55.283,4.062,55.099,3.986,54.904,3.986z M50.736,9.921l0.796-0.796
	l-1.089-1.089l-0.873,0.85L44.885,4.2c-0.132-0.131-0.321-0.206-0.518-0.206S43.981,4.069,43.849,4.2
	c-0.138,0.139-0.214,0.323-0.214,0.518c0,0.196,0.076,0.38,0.215,0.518l4.685,4.814l-0.963,0.963l1.087,1.087l1.041-1.013
	l4.685,4.684c0.137,0.139,0.322,0.215,0.519,0.215c0.194,0,0.378-0.076,0.517-0.216c0.284-0.285,0.284-0.75,0-1.036L50.736,9.921z
	 M70.854,9.918l0.796-0.796L70.56,8.033l-0.873,0.849l-4.685-4.686C64.87,4.065,64.682,3.99,64.484,3.99
	c-0.197,0-0.386,0.075-0.518,0.206c-0.138,0.139-0.214,0.323-0.214,0.518c0,0.196,0.076,0.38,0.215,0.518l4.685,4.814l-0.963,0.963
	l1.087,1.087l1.041-1.013l4.685,4.684c0.137,0.139,0.322,0.215,0.519,0.215c0.194,0,0.378-0.076,0.517-0.216
	c0.284-0.285,0.284-0.75,0-1.036L70.854,9.918z M91.095,9.96l0.796-0.796l-1.089-1.089l-0.873,0.849l-4.685-4.685
	c-0.132-0.131-0.321-0.206-0.518-0.206s-0.386,0.075-0.518,0.206c-0.138,0.139-0.214,0.323-0.214,0.518
	c0,0.196,0.076,0.38,0.215,0.518l4.685,4.814l-0.963,0.963l1.087,1.087l1.041-1.013l4.685,4.684
	c0.137,0.139,0.322,0.215,0.519,0.215c0.194,0,0.378-0.076,0.517-0.216c0.284-0.285,0.284-0.75,0-1.036L91.095,9.96z M95.286,6.805
	L95.14,6.601c-1.539-2.184-4.201-3.081-6.65-2.461l1.32,1.32c1.637-0.072,3.268,0.682,4.22,2.156l0.137,0.211l0.121,0.203
	l-1.901-0.412l-0.093,0.427h4.619l0.18-0.832l-1.544-0.001L95.286,6.805z M113.031,9.524l-0.097-0.232
	c-1.155-2.816-4.101-4.343-6.994-3.776l1.386,1.386c1.878,0.079,3.616,1.264,4.298,3.137l0.086,0.235l0.072,0.225l-1.759-0.826
	l-0.242,0.514l3.808,2.517l0.919-1.968l-1.311-0.757L113.031,9.524z M134.686,15.266l0.221-0.431l0.104-0.229
	c1.424-3.066,0.184-6.679-2.82-8.221c-1.718-0.882-3.658-0.891-5.311-0.192l0.472,1.447c1.286-0.585,2.808-0.618,4.159,0.075
	c2.345,1.204,3.273,4.092,2.068,6.436l-0.115,0.224l-0.116,0.207l-0.591-1.853l-1.433,0.455l1.377,4.302l4.301-1.377l-0.454-1.434
	L134.686,15.266z M146.08,4.348c-0.046,0.026-0.088,0.058-0.133,0.084l1.046,1.138c2.267-1.165,5.072-0.356,6.338,1.882
	c1.299,2.295,0.488,5.217-1.804,6.516l-0.218,0.124l-0.21,0.109l0.524-1.872l-1.447-0.406l-1.21,4.353l4.352,1.21l0.407-1.447
	l-1.879-0.529l0.421-0.239l0.212-0.134c2.872-1.782,3.82-5.48,2.155-8.42C152.929,3.704,149.092,2.642,146.08,4.348z M169.885,4.938
	l0.029,1.499c1.182,0.003,2.366,0.429,3.287,1.308c1.908,1.819,1.981,4.85,0.161,6.758c-1.819,1.907-4.851,1.979-6.758,0.16
	l-0.181-0.173l-0.166-0.169l1.943-0.041l-0.031-1.502l-4.517,0.103l0.101,4.516l1.503-0.03l-0.039-1.952l0.351,0.335l0.191,0.164
	c2.539,2.234,6.353,2.07,8.684-0.375c2.388-2.504,2.293-6.486-0.211-8.874C173.016,5.502,171.449,4.933,169.885,4.938z
	 M193.252,5.577l-1.135,1.155c1.85,0.673,3.176,2.438,3.158,4.517c-0.023,2.637-2.186,4.761-4.821,4.738
	c-2.636-0.023-4.76-2.187-4.738-4.822l0.002-0.251l0.01-0.236l1.359,1.391l1.076-1.05l-3.162-3.227l-3.225,3.162l1.05,1.077
	l1.398-1.362l-0.004,0.485l0.011,0.251c0.105,3.381,2.834,6.051,6.212,6.082c3.462,0.03,6.301-2.76,6.333-6.221
	C196.797,8.773,195.353,6.61,193.252,5.577z M214.605,7.114l-1.65,0.45c1.69,1.458,2.176,3.957,1.036,5.971
	c-1.299,2.293-4.221,3.101-6.514,1.802s-3.101-4.223-1.802-6.515l0.124-0.219l0.124-0.203l0.514,1.875l1.45-0.396l-1.2-4.355
	l-4.356,1.198l0.395,1.451l1.884-0.513l-0.239,0.422l-0.112,0.224c-1.549,3.007-0.459,6.667,2.48,8.332
	c3.011,1.707,6.85,0.645,8.556-2.366C216.627,11.919,216.262,9.065,214.605,7.114z M103.695,3.851c-0.197,0-0.386,0.075-0.518,0.206
	c-0.138,0.139-0.214,0.323-0.214,0.518c0,0.196,0.076,0.38,0.215,0.518l1.805,1.854l1.039-1.081l-1.809-1.809
	C104.082,3.926,103.893,3.851,103.695,3.851z"/>
</svg>
