<svg width="16" height="16" xmlns="http://www.w3.org/2000/svg" fill="context-fill" fill-opacity="context-fill-opacity">
<path d="M8,1c0.399,0,0.728,0.3,0.773,0.687l0.005,0.091v12.444C8.778,14.652,8.43,15,8,15c-0.399,0-0.728-0.3-0.773-0.687
	l-0.005-0.091V1.778C7.222,1.348,7.57,1,8,1z M4.888,3.334c0.399,0,0.728,0.3,0.773,0.687l0.005,0.091v7.778
	c0,0.43-0.348,0.778-0.778,0.778c-0.399,0-0.728-0.3-0.773-0.687l-0.005-0.091V4.111C4.111,3.682,4.46,3.334,4.888,3.334z
	 M11.111,3.334c0.399,0,0.728,0.3,0.773,0.687l0.005,0.091v7.778c0,0.43-0.348,0.778-0.778,0.778c-0.399,0-0.728-0.3-0.773-0.687
	l-0.005-0.091V4.111C10.334,3.682,10.682,3.334,11.111,3.334z M1.778,5.666c0.399,0,0.728,0.3,0.773,0.687l0.005,0.091v3.111
	c0,0.43-0.348,0.778-0.778,0.778c-0.399,0-0.728-0.3-0.773-0.687L1,9.556V6.444C1,6.015,1.348,5.666,1.778,5.666z M14.222,5.666
	c0.399,0,0.728,0.3,0.773,0.687L15,6.444v3.111c0,0.43-0.348,0.778-0.778,0.778c-0.399,0-0.728-0.3-0.773-0.687l-0.005-0.091V6.444
	C13.444,6.015,13.792,5.666,14.222,5.666z"/>
</svg>
