<svg width="16" height="16" xmlns="http://www.w3.org/2000/svg" fill="context-fill" fill-opacity="context-fill-opacity">
<path d="M13.408,3.545h-2.227V1.318C11.181,1.127,11.054,1,10.863,1H2.592C2.401,1,2.274,1.127,2.274,1.318v10.816
	c0,0.095,0.064,0.223,0.159,0.286c0.032,0.032,0.095,0.032,0.159,0.032c0.064,0,0.095,0,0.159-0.064l2.068-1.034v3.324
	c0,0.095,0.064,0.223,0.127,0.255c0.095,0.064,0.223,0.095,0.318,0.032l4.008-1.94l4.008,1.94c0.032,0.032,0.095,0.032,0.127,0.032
	c0.064,0,0.127-0.032,0.159-0.064c0.095-0.032,0.159-0.159,0.159-0.255V3.863C13.726,3.672,13.599,3.545,13.408,3.545z M2.91,11.625
	V1.636h7.635v1.909H5.137c-0.191,0-0.318,0.127-0.318,0.318v6.808L2.91,11.625z M13.09,14.17L9.4,12.389
	c-0.032-0.032-0.095-0.032-0.127-0.032s-0.095,0-0.127,0.032l-3.69,1.781V4.181h7.635V14.17z"/>
</svg>
