<!-- Generator: Adobe Illustrator 25.4.1, SVG Export Plug-In . SVG Version: 6.00 Build 0)  -->
<svg width="16" height="16" xmlns="http://www.w3.org/2000/svg" fill="context-fill" fill-opacity="context-fill-opacity">
<path d="M13.5,2.25h-11c-1.103,0-2,0.897-2,2v8c0,1.103,0.897,2,2,2h11c1.103,0,2-0.897,2-2v-8C15.5,3.147,14.603,2.25,13.5,2.25z
	 M1.5,4.25c0-0.551,0.449-1,1-1h11c0.552,0,1,0.449,1,1V4.6h-13V4.25z M14.5,12.25c0,0.552-0.448,1-1,1h-11c-0.551,0-1-0.448-1-1
	V5.4h13V12.25z M13,10.75v0.5c0,0.276-0.224,0.5-0.5,0.5h-9c-0.276,0-0.5-0.224-0.5-0.5v-0.5c0-0.276,0.224-0.5,0.5-0.5h9
	C12.776,10.25,13,10.474,13,10.75z"/>
</svg>
