<!-- Generator: Adobe Illustrator 25.4.1, SVG Export Plug-In . SVG Version: 6.00 Build 0)  -->
<svg width="16" height="16" xmlns="http://www.w3.org/2000/svg" fill="context-fill" fill-opacity="context-fill-opacity">
<path d="M2,2.65c0-0.221,0.179-0.4,0.4-0.4h11.2c0.221,0,0.4,0.179,0.4,0.4c0,0.221-0.179,0.4-0.4,0.4H2.4
	C2.179,3.05,2,2.871,2,2.65z M15.5,7v5.25c0,1.103-0.897,2-2,2h-11c-1.103,0-2-0.897-2-2V7c0-1.103,0.897-2,2-2h11
	C14.603,5,15.5,5.897,15.5,7z M14.5,7c0-0.551-0.448-1-1-1h-11c-0.551,0-1,0.449-1,1v5.25c0,0.552,0.449,1,1,1h11
	c0.552,0,1-0.448,1-1V7z M7.594,7.848l-2.016,3.024c-0.216,0.324,0.016,0.759,0.406,0.759h4.032c0.39,0,0.622-0.434,0.406-0.759
	L8.406,7.848C8.213,7.558,7.787,7.558,7.594,7.848z"/>
</svg>
