<svg width="16" height="16" xmlns="http://www.w3.org/2000/svg" fill="context-fill" fill-opacity="context-fill-opacity">
<path d="M14,2H2.1C1.216,2,0.5,2.716,0.5,3.6v8.9C0.5,13.328,1.172,14,2,14h12c0.828,0,1.5-0.672,1.5-1.5v-9
	C15.5,2.672,14.828,2,14,2z M14.618,12.379c0,0.414-0.336,0.75-0.75,0.75H2.132c-0.414,0-0.75-0.336-0.75-0.75V4.975h13.236V12.379z
	 M14.618,4.225H1.382V3.621c0-0.414,0.336-0.75,0.75-0.75h11.736c0.414,0,0.75,0.336,0.75,0.75V4.225z M12.5,11.75h-9
	c-0.276,0-0.5-0.224-0.5-0.5v-0.5c0-0.276,0.224-0.5,0.5-0.5h9c0.276,0,0.5,0.224,0.5,0.5v0.5C13,11.526,12.776,11.75,12.5,11.75z"
	/>
</svg>
