<svg width="16" height="16" xmlns="http://www.w3.org/2000/svg" fill="context-fill" fill-opacity="context-fill-opacity">
<path d="M10.373,4.543H2.492l2.344-2.344c0.234-0.234,0.234-0.586,0-0.82c-0.234-0.234-0.586-0.234-0.82,0
	l-3.34,3.311C0.559,4.807,0.5,4.953,0.5,5.1s0.059,0.293,0.176,0.41L3.986,8.82c0.234,0.234,0.586,0.234,0.82,0
	c0.234-0.234,0.234-0.586,0-0.82L2.521,5.715h7.852c2.197,0,3.955,1.758,3.955,3.955s-1.758,3.955-3.955,3.955H4.367
	c-0.322,0-0.586,0.264-0.586,0.586c0,0.322,0.264,0.586,0.586,0.586h6.006c2.842,0,5.127-2.285,5.127-5.127
	S13.215,4.543,10.373,4.543z"/>
</svg>
