<svg width="16" height="16" xmlns="http://www.w3.org/2000/svg" fill="context-fill" fill-opacity="context-fill-opacity">
<path d="M5.952,0.914c0.654-0.181,1.331-0.273,2.014-0.273s1.38,0.092,2.07,0.273c2.778,0.731,4.958,2.911,5.689,5.69
	c0.867,3.25-0.364,6.71-3.07,8.613c-0.102,0.08-0.222,0.123-0.349,0.123c-0.213,0-0.422-0.12-0.527-0.295
	c-0.11-0.219-0.065-0.589,0.17-0.765c2.366-1.602,3.437-4.542,2.668-7.311c-0.595-2.306-2.461-4.173-4.873-4.874
	C9.176,1.944,8.587,1.867,7.993,1.867S6.81,1.944,6.242,2.095c-1.773,0.48-3.257,1.612-4.178,3.188
	c-0.926,1.582-1.173,3.425-0.696,5.184c0.371,1.558,1.268,2.877,2.588,3.809c0.139,0.103,0.238,0.27,0.262,0.434
	c0.012,0.083,0.009,0.205-0.086,0.335c-0.099,0.197-0.274,0.315-0.469,0.315c-0.121,0-0.234-0.047-0.339-0.147
	c-1.508-1.077-2.538-2.576-3.062-4.448C-0.846,6.407,1.653,2.08,5.952,0.914z M7.236,11.287c-0.137,0.193-0.08,0.463,0.125,0.581
	l0.847,0.489c0.205,0.118,0.468,0.034,0.565-0.182l2.844-6.301c0.1-0.221-0.203-0.396-0.344-0.199L7.236,11.287z"/>
</svg>
