<svg width="16" height="16" version="1.1" xmlns="http://www.w3.org/2000/svg">
 <defs>
  <linearGradient id="a" x1="-28.0305" y1="10.1098" x2="-17.588" y2="10.1098" gradientTransform="translate(30.395 .10979)" gradientUnits="userSpaceOnUse">
   <stop stop-color="#005ed6" offset="0"/>
   <stop stop-color="#730aeb" offset="1"/>
  </linearGradient>
 </defs>
 <path d="M8,0.5c-0.125,0-0.248,0.024-0.364,0.071L2.733,2.532c-0.372,0.149-0.616,0.509-0.617,0.91
	v6.864c0,0.899,0.49,1.582,1.034,2.159s1.207,1.072,1.858,1.502C6.31,14.824,7.59,15.41,7.59,15.41c0.26,0.12,0.56,0.12,0.82,0
	c0,0,1.28-0.586,2.582-1.444c0.651-0.429,1.314-0.925,1.858-1.502c0.544-0.577,1.034-1.26,1.034-2.159V3.442
	c0-0.401-0.245-0.761-0.617-0.91L8.364,0.571C8.248,0.524,8.125,0.5,8,0.5L8,0.5z M8,1.481l4.903,1.961v6.864
	C12.903,12.267,8,14.52,8,14.52V1.481z" fill="url(#a)"/>
</svg>
