<!-- Generator: Adobe Illustrator 25.4.1, SVG Export Plug-In . SVG Version: 6.00 Build 0)  -->
<svg width="16" height="16" xmlns="http://www.w3.org/2000/svg" fill="context-fill" fill-opacity="context-fill-opacity">
<path d="M14.164,5.81H9.542V3.153c0-1.049-0.823-1.903-1.836-1.903h-5.87C0.823,1.25,0,2.104,0,3.153v3.228
	C0,7.43,0.823,8.284,1.836,8.284h0.712v1.391c0,0.214,0.138,0.407,0.343,0.483c0.058,0.021,0.118,0.032,0.177,0.032
	c0.143,0,0.281-0.062,0.378-0.176l1.461-1.729h1.551v2.656c0,1.05,0.823,1.904,1.836,1.904h2.8l1.462,1.73
	c0.097,0.114,0.234,0.175,0.377,0.175c0.059,0,0.119-0.01,0.177-0.032c0.205-0.075,0.343-0.269,0.343-0.483v-1.391h0.712
	c1.012,0,1.836-0.854,1.836-1.904V7.713C16,6.664,15.177,5.81,14.164,5.81z M8.758,5.81H8.293c-0.942,0-1.711,0.742-1.815,1.691
	H4.543l-1.21,1.432V7.5H1.836c-0.579,0-1.051-0.502-1.051-1.118V3.153c0-0.617,0.471-1.119,1.051-1.119h5.871
	c0.579,0,1.051,0.502,1.051,1.119V5.81z M12.789,11.961c-0.64-0.41-1.183-0.862-1.629-1.382c-0.399,0.386-0.852,0.747-1.328,1.075
	L9.477,11.14c0.471-0.325,0.917-0.681,1.301-1.059c-0.354-0.518-0.626-1.1-0.813-1.769l0.602-0.168
	c0.154,0.549,0.37,1.031,0.647,1.464c0.189-0.229,0.352-0.464,0.482-0.705c0.082-0.153,0.152-0.312,0.205-0.475h0.001
	c0.04-0.121,0.07-0.246,0.092-0.373H9.332v-0.68h1.467V6.961h0.655v0.413h1.472v0.679h-0.302c-0.024,0.191-0.068,0.381-0.13,0.568
	h0.001c-0.062,0.191-0.147,0.383-0.248,0.572c-0.172,0.322-0.395,0.631-0.653,0.928c0.413,0.493,0.924,0.923,1.533,1.313
	L12.789,11.961z M5.072,2.325H4.474L2.861,6.66L2.837,6.725h0.667l0.437-1.232h1.662l0.424,1.2l0.012,0.032h0.667L5.084,2.356
	L5.072,2.325z M4.137,4.94l0.636-1.795L5.408,4.94H4.137z"/>
</svg>
