<?xml version="1.0" encoding="UTF-8" standalone="no"?>
<!DOCTYPE svg PUBLIC "-//W3C//DTD SVG 1.1//EN" "http://www.w3.org/Graphics/SVG/1.1/DTD/svg11.dtd">
<svg width="16px" height="16px" version="1.1" xmlns="http://www.w3.org/2000/svg" xmlns:xlink="http://www.w3.org/1999/xlink" xml:space="preserve" xmlns:serif="http://www.serif.com/" style="fill-rule:evenodd;clip-rule:evenodd;stroke-linejoin:round;stroke-miterlimit:2;">
    <path d="M8,0.5C7.88,0.5 7.75,0.52 7.64,0.57L2.73,2.53C2.36,2.68 2.12,3.04 2.12,3.44L2.12,10.31C2.12,11.21 2.61,11.89 3.15,12.46C3.69,13.04 4.36,13.54 5.01,13.97C6.31,14.82 7.59,15.41 7.59,15.41C7.85,15.53 8.15,15.53 8.41,15.41C8.41,15.41 9.69,14.82 10.99,13.97C11.64,13.54 12.31,13.04 12.85,12.46C13.39,11.89 13.88,11.2 13.88,10.3L13.88,3.44C13.88,3.04 13.64,2.68 13.27,2.53L8.36,0.57C8.25,0.52 8.12,0.5 8,0.5ZM8,1.48L12.9,3.44L12.9,10.31C12.9,12.27 8,14.52 8,14.52L8,1.48Z" style="fill:url(#_Linear1);fill-rule:nonzero;"/>
    <defs>
        <linearGradient id="_Linear1" x1="0" y1="0" x2="1" y2="0" gradientUnits="userSpaceOnUse" gradientTransform="matrix(10.4425,0,0,10.4425,2.3645,10.21959)"><stop offset="0" style="stop-color:#ff1814;stop-opacity:1"/><stop offset="1" style="stop-color:#bf1932;stop-opacity:1"/></linearGradient>
    </defs>
</svg>
