<svg width="16" height="16" xmlns="http://www.w3.org/2000/svg" fill="context-fill" fill-opacity="context-fill-opacity">
<path d="M6.464,8.336H1.7c-0.663,0-1.2,0.537-1.2,1.2V14.3c0,0.663,0.537,1.2,1.2,1.2h4.764c0.663,0,1.2-0.537,1.2-1.2V9.536
	C7.664,8.873,7.127,8.336,6.464,8.336z M6.769,14.004c0,0.331-0.269,0.6-0.6,0.6H1.996c-0.331,0-0.6-0.269-0.6-0.6V9.831
	c0-0.331,0.269-0.6,0.6-0.6h4.173c0.331,0,0.6,0.269,0.6,0.6V14.004z M15.5,2.291v9.851c0,0.989-0.802,1.791-1.791,1.791H8.666
	v-1.075h4.864c0.495,0,0.896-0.401,0.896-0.896V2.47c0-0.495-0.401-0.896-0.896-0.896H4.037c-0.495,0-0.896,0.401-0.896,0.896v4.865
	H2.067V2.291c0-0.989,0.802-1.791,1.791-1.791h9.851C14.698,0.5,15.5,1.302,15.5,2.291z"/>
</svg>
