<?xml version="1.0" encoding="utf-8"?>
<svg version="1.1" id="katman_1" xmlns="http://www.w3.org/2000/svg" xmlns:xlink="http://www.w3.org/1999/xlink" x="0px" y="0px"
	 viewBox="0 0 64 64" style="enable-background:new 0 0 64 64;" xml:space="preserve">
<linearGradient id="SVGID_1_" gradientUnits="userSpaceOnUse" x1="29.5503" y1="591.9841" x2="61.1302" y2="560.4054" gradientTransform="matrix(1.1742 0 0 -1.1742 -21.2933 709.0203)">
	<stop  offset="0" style="stop-color:#3FE0C5"/>
	<stop  offset="0.5" style="stop-color:#E4A663"/>
	<stop  offset="0.56" style="stop-color:#E49D68"/>
	<stop  offset="0.67" style="stop-color:#E58577"/>
	<stop  offset="0.8" style="stop-color:#E65D8F"/>
	<stop  offset="0.95" style="stop-color:#E826B0"/>
	<stop  offset="1" style="stop-color:#E911BD"/>
</linearGradient>
<path style="fill:url(#SVGID_1_);" d="M31.681,6.642c4.617-0.032,9.17,1.117,13.213,3.351c4.053,2.234,7.234,5.277,9.543,9.128
	C56.819,23.11,58,27.472,58,32.227c0,5.809-1.628,11-4.872,15.574c-3.245,4.574-7.5,7.745-12.734,9.489
	c-0.564,0.138-1,0.064-1.309-0.213c-0.309-0.266-0.479-0.649-0.468-1.053v-8.809c0-2.234-0.596-3.84-1.787-4.819
	c2.585-0.277,4.511-0.628,5.766-1.053c1.957-0.702,3.468-1.745,4.511-3.149c1.191-1.819,1.787-4.298,1.777-7.447
	c0-1.33-0.245-2.479-0.734-3.457c-0.351-0.702-1.011-1.574-1.989-2.617c0.298-0.809,0.479-1.66,0.521-2.521
	c0.064-1.574-0.181-3.138-0.734-4.617c-0.702-0.213-1.681-0.074-2.936,0.415c-1.011,0.436-1.989,0.926-2.936,1.468l-1.362,0.947
	c-2.16-0.628-4.404-0.947-6.66-0.947c-2.223-0.011-4.426,0.309-6.553,0.947l-1.362-0.947c-0.979-0.564-1.989-1.053-3.043-1.468
	c-1.255-0.489-2.202-0.628-2.83-0.415c-0.617,1.457-0.862,3.043-0.723,4.617c0,0.979,0.138,1.787,0.415,2.415
	c-0.734,0.883-1.351,1.851-1.83,2.894c-0.383,0.872-0.574,1.968-0.574,3.309c0,3.149,0.564,5.596,1.681,7.351
	c0.979,1.468,2.447,2.553,4.404,3.245c1.255,0.415,3.149,0.766,5.66,1.053c-0.904,0.84-1.468,2.021-1.681,3.564
	c-1.191,0.564-2.351,0.766-3.468,0.617c-1.819-0.138-3.213-1.085-4.191-2.83c-0.404-0.755-0.979-1.394-1.681-1.883
	c-0.5-0.287-1.032-0.532-1.574-0.734l-0.734-0.106c-0.766,0-1.17,0.117-1.202,0.362s0.117,0.511,0.468,0.787l0.521,0.415
	c0.574,0.351,1.074,0.819,1.468,1.362c0.426,0.5,0.787,1.074,1.053,1.681l0.415,0.83c0.33,1.032,1.043,1.894,1.989,2.415
	c0.936,0.521,1.979,0.84,3.043,0.947c0.872,0.064,1.745,0.032,2.617-0.106l1.16-0.106l0.106,6.394
	c0.011,0.404-0.17,0.787-0.468,1.053c-0.319,0.277-0.755,0.351-1.309,0.213c-5.319-1.745-9.617-4.915-12.904-9.489
	S6,38.036,6,32.227c0-4.755,1.117-9.096,3.351-13c2.181-3.862,5.372-7.053,9.223-9.223C22.479,7.759,26.851,6.642,31.681,6.642z
	 M15,41.982c0.138-0.138,0.362-0.16,0.521-0.053c0.213,0.106,0.277,0.245,0.213,0.415c-0.064,0.17-0.223,0.191-0.468,0.053
	C15.021,42.259,14.936,42.121,15,41.982z M16.16,42.823c0.138-0.138,0.319-0.106,0.521,0.106c0.213,0.213,0.245,0.383,0.106,0.521
	c-0.138,0.138-0.319,0.106-0.521-0.106C16.053,43.131,16.021,42.961,16.16,42.823z M17.202,44.185
	c0.191-0.128,0.447-0.085,0.574,0.106c0.021,0.032,0.043,0.064,0.053,0.106c0.213,0.277,0.213,0.489,0,0.628
	c-0.074,0.074-0.16,0.074-0.266,0c-0.117-0.074-0.245-0.149-0.372-0.213C17.064,44.461,17.064,44.248,17.202,44.185L17.202,44.185z
	 M18.468,45.653c0.085-0.074,0.213-0.096,0.319-0.053c0.277,0.074,0.5,0.298,0.574,0.574c0.043,0.106,0.021,0.223-0.053,0.319
	c-0.213,0.213-0.457,0.17-0.734-0.106c-0.128-0.106-0.202-0.255-0.213-0.415C18.351,45.855,18.394,45.738,18.468,45.653
	L18.468,45.653z M20.149,47.014c0.064-0.277,0.277-0.372,0.628-0.266c0.351,0.106,0.511,0.245,0.468,0.415
	c-0.021,0.16-0.117,0.298-0.266,0.372c-0.128,0.074-0.287,0.074-0.415,0c-0.138-0.064-0.255-0.16-0.362-0.266
	C20.096,47.174,20.074,47.078,20.149,47.014L20.149,47.014z M23.394,47.429c0-0.074-0.053-0.138-0.16-0.213
	c-0.149-0.085-0.309-0.117-0.468-0.106c-0.351,0-0.521,0.138-0.521,0.415s0.191,0.404,0.574,0.372
	C23.191,47.876,23.394,47.716,23.394,47.429L23.394,47.429z M24.766,46.812c0.351,0,0.543,0.106,0.574,0.309
	c0.032,0.202-0.128,0.383-0.468,0.521c-0.128,0-0.245-0.011-0.362-0.053c-0.106-0.032-0.17-0.16-0.213-0.362
	C24.255,47.025,24.404,46.876,24.766,46.812z"/>
</svg>
