<svg width="12" height="12" xmlns="http://www.w3.org/2000/svg">
  <path stroke="context-stroke" stroke-width="0.8" fill="none" d="M10.117,10.5c-0.104,0-0.201-0.04-0.273-0.112L6.052,6.597l-3.894,3.789
	C2.084,10.46,1.988,10.5,1.885,10.5s-0.2-0.04-0.273-0.112c-0.149-0.15-0.149-0.395,0.001-0.545l3.791-3.791L1.615,2.158
	C1.54,2.084,1.5,1.987,1.5,1.884c0-0.103,0.04-0.199,0.112-0.273C1.68,1.545,1.779,1.506,1.884,1.506s0.204,0.039,0.273,0.106
	l3.791,3.792l3.893-3.789C9.916,1.54,10.013,1.5,10.117,1.5c0.103,0,0.199,0.04,0.271,0.112C10.46,1.684,10.5,1.782,10.5,1.884
	c0,0.103-0.04,0.199-0.113,0.273L6.597,5.948l3.789,3.893c0.151,0.152,0.151,0.395,0.002,0.545
	C10.316,10.46,10.219,10.5,10.117,10.5z"/>
</svg>
