<svg width="12" height="12" xmlns="http://www.w3.org/2000/svg">
  <path stroke="context-stroke" stroke-width=".8" fill="none"  d="M10.263,1.5H3.632c-0.131,0-0.237,0.106-0.237,0.237v1.658H1.737C1.606,3.395,1.5,3.501,1.5,3.632v6.632
	c0,0.131,0.106,0.237,0.237,0.237h6.632c0.131,0,0.237-0.106,0.237-0.237V8.605h1.658c0.131,0,0.237-0.106,0.237-0.237V1.737
	C10.5,1.606,10.394,1.5,10.263,1.5z M8.132,9.884c0,0.079-0.064,0.142-0.142,0.142H2.116c-0.079,0-0.142-0.064-0.142-0.142V4.011
	c0-0.079,0.064-0.142,0.142-0.142h5.874c0.079,0,0.142,0.064,0.142,0.142V9.884z M10.026,7.989c0,0.079-0.064,0.142-0.142,0.142
	H8.605v-4.5c0-0.131-0.106-0.237-0.237-0.237h-4.5V2.116c0-0.079,0.064-0.142,0.142-0.142h6.016V7.989z"/>
</svg>
