<svg width="16" height="16" xmlns="http://www.w3.org/2000/svg" fill="context-fill" fill-opacity="context-fill-opacity">
<path d="M6.021,7.997l5.749-5.589c0.162-0.157,0.252-0.366,0.251-0.589c0-0.223-0.089-0.431-0.25-0.587
	c-0.316-0.31-0.867-0.311-1.189-0.001L4.229,7.409C4.067,7.566,3.978,7.775,3.978,7.997s0.089,0.431,0.251,0.588l6.354,6.176
	C10.747,14.921,10.962,15,11.177,15c0.215,0,0.429-0.079,0.593-0.238c0.161-0.156,0.251-0.365,0.251-0.588
	c0.001-0.223-0.088-0.431-0.25-0.589L6.021,7.997z"/>
</svg>