<svg width="16" height="16" xmlns="http://www.w3.org/2000/svg" fill="context-fill" fill-opacity="context-fill-opacity">
<path d="M11.223,15c-0.203,0-0.392-0.076-0.532-0.214L4.244,8.522C4.101,8.381,4.021,8.194,4.021,7.996c0-0.198,0.079-0.384,0.223-0.523l6.447-6.267C10.827,1.075,11.021,1,11.223,1c0.201,0,0.394,0.076,0.53,0.207c0.145,0.139,0.224,0.325,0.224,0.523c0.001,0.198-0.078,0.384-0.224,0.524L5.858,7.987l5.896,5.752c0.146,0.142,0.225,0.329,0.224,0.526c0,0.198-0.079,0.383-0.224,0.522C11.613,14.924,11.424,15,11.223,15z"/>
</svg>