<svg width="16" height="16" xmlns="http://www.w3.org/2000/svg" fill="context-fill" fill-opacity="context-fill-opacity">
<path d="M14.998,8.21v0.18c0,0.116-0.094,0.21-0.21,0.21H9.994L10.82,8h3.968C14.904,8,14.998,8.094,14.998,8.21z M13.595,10.252
	v-0.185c0-0.115-0.093-0.208-0.208-0.208H9.36l0.195,0.6h3.832C13.502,10.46,13.595,10.367,13.595,10.252z M14.737,11.72H7.863
	l0.826,0.6h6.05c0.144,0,0.261-0.117,0.261-0.261V11.98C14.998,11.837,14.881,11.72,14.737,11.72z M9.15,9.213L9.262,9.56H9.9
	L9.863,9.446L10.615,8.9H9.581L9.15,9.213z M9.867,11.42h0.638l-0.215-0.66H9.652L9.867,11.42z M7.297,10.559L4.3,12.737
	l1.145-3.524L2.449,7.037h3.704l1.145-3.523l1.145,3.523h3.703L11.233,7.7h1.034l1.246-0.905c0.159-0.115,0.077-0.366-0.119-0.366
	H8.884L7.49,2.141c-0.061-0.187-0.324-0.187-0.385,0L5.712,6.43H1.203c-0.196,0-0.278,0.251-0.119,0.366l3.648,2.65l-1.394,4.287
	c-0.061,0.186,0.153,0.342,0.311,0.226l3.647-2.651l0.152,0.111h1.032L7.297,10.559z M10.257,12.62l0.038,0.117l-0.161-0.117H9.101
	l1.845,1.34c0.159,0.115,0.372-0.04,0.311-0.226l-0.362-1.114H10.257z"/>
</svg>
