<svg width="16" height="16" xmlns="http://www.w3.org/2000/svg" fill="context-fill" fill-opacity="context-fill-opacity">
<path d="M15.981,6.185c-0.05-0.158-0.19-0.26-0.358-0.26l-5.55-0.013L8.37,0.628c-0.051-0.158-0.191-0.26-0.358-0.26
c-0.165,0-0.305,0.102-0.357,0.259L5.929,5.903L0.376,5.891c-0.165,0-0.305,0.102-0.357,0.258c-0.051,0.157,0.003,0.322,0.137,0.418L4.64,9.843l-1.728,5.274c-0.051,0.158,0.002,0.324,0.137,0.421c0.134,0.096,0.307,0.096,0.44,0l4.499-3.253l4.484,3.273c0.065,0.049,0.141,0.074,0.221,0.074c0.078,0,0.154-0.025,0.22-0.073c0.135-0.097,0.189-0.262,0.138-0.42l-1.704-5.284l4.498-3.252C15.978,6.506,16.033,6.342,15.981,6.185z M10.715,9.085l-0.538,0.39l0.204,0.633l1.138,3.525l-2.993-2.185l-0.538-0.392l-0.539,0.389l-3.003,2.171L5.6,10.095l0.207-0.633L5.272,9.073L2.278,6.888l3.706,0.009l0.664,0.001l0.208-0.633l1.152-3.521l1.138,3.527L9.35,6.905l0.663,0.001l3.704,0.008L10.715,9.085z"/>
</svg>
