<svg width="16" height="16" xmlns="http://www.w3.org/2000/svg" fill="context-fill" fill-opacity="context-fill-opacity">
<path d="M3.312,3H2.438C2.196,3,2,3.196,2,3.438v0.874C2,4.554,2.196,4.75,2.438,4.75h0.874c0.242,0,0.438-0.196,0.438-0.438V3.438
	C3.749,3.196,3.553,3,3.312,3z M13.562,3h-0.874c-0.242,0-0.438,0.196-0.438,0.438v0.874c0,0.242,0.196,0.438,0.438,0.438h0.874
	C13.804,4.75,14,4.554,14,4.312V3.438C13.999,3.196,13.803,3,13.562,3z M10.145,3H9.271C9.029,3,8.833,3.196,8.833,3.438v0.874
	c0,0.242,0.196,0.438,0.438,0.438h0.874c0.242,0,0.438-0.196,0.438-0.438V3.438C10.582,3.196,10.386,3,10.145,3z M6.729,3H5.855
	C5.613,3,5.417,3.196,5.417,3.438v0.874c0,0.242,0.196,0.438,0.438,0.438h0.874c0.242,0,0.438-0.196,0.438-0.438V3.438
	C7.166,3.196,6.97,3,6.729,3z M3.312,7.125H2.438C2.196,7.125,2,7.321,2,7.563v0.874c0,0.242,0.196,0.438,0.438,0.438h0.874
	c0.242,0,0.438-0.196,0.438-0.438V7.563C3.749,7.321,3.553,7.125,3.312,7.125z M13.562,7.125h-0.874
	c-0.242,0-0.438,0.196-0.438,0.438v0.874c0,0.242,0.196,0.438,0.438,0.438h0.874C13.804,8.875,14,8.679,14,8.437V7.563
	C13.999,7.321,13.803,7.125,13.562,7.125z M10.145,7.125H9.271c-0.242,0-0.438,0.196-0.438,0.438v0.874
	c0,0.242,0.196,0.438,0.438,0.438h0.874c0.242,0,0.438-0.196,0.438-0.438V7.563C10.582,7.321,10.386,7.125,10.145,7.125z
	 M6.729,7.125H5.855c-0.242,0-0.438,0.196-0.438,0.438v0.874c0,0.242,0.196,0.438,0.438,0.438h0.874
	c0.242,0,0.438-0.196,0.438-0.438V7.563C7.166,7.321,6.97,7.125,6.729,7.125z M3.312,11.25H2.438C2.196,11.25,2,11.446,2,11.688
	v0.874C2,12.804,2.196,13,2.438,13h0.874c0.242,0,0.438-0.196,0.438-0.438v-0.874C3.749,11.446,3.553,11.25,3.312,11.25z
	 M13.562,11.25h-0.874c-0.242,0-0.438,0.196-0.438,0.438v0.874c0,0.242,0.196,0.438,0.438,0.438h0.874
	C13.804,13,14,12.804,14,12.562v-0.874C13.999,11.446,13.803,11.25,13.562,11.25z M10.145,11.25H9.271
	c-0.242,0-0.438,0.196-0.438,0.438v0.874C8.833,12.804,9.029,13,9.271,13h0.874c0.242,0,0.438-0.196,0.438-0.438v-0.874
	C10.582,11.446,10.386,11.25,10.145,11.25z M6.729,11.25H5.855c-0.242,0-0.438,0.196-0.438,0.438v0.874
	C5.417,12.804,5.613,13,5.855,13h0.874c0.242,0,0.438-0.196,0.438-0.438v-0.874C7.166,11.446,6.97,11.25,6.729,11.25z"/>
</svg>
