<svg width="16" height="16" xmlns="http://www.w3.org/2000/svg" fill="context-fill" fill-opacity="context-fill-opacity">
<path d="M9.006,10.519c0.103,0.261,0.414,0.396,0.697,0.301c0.283-0.095,0.428-0.383,0.324-0.644L5.936,0.824
	C5.854,0.613,5.635,0.492,5.404,0.5C5.175,0.492,4.956,0.613,4.873,0.824l-4.092,9.352c-0.103,0.26,0.042,0.549,0.324,0.644
	c0.282,0.095,0.594-0.039,0.697-0.301l1.217-2.78h4.768L9.006,10.519z M3.472,6.705l1.932-4.416l1.932,4.416H3.472z M15.104,9.093
	l-6.261,6.26c-0.196,0.195-0.515,0.195-0.71,0c-0.039-0.038-0.064-0.085-0.088-0.131l-3.014-3.014c-0.192-0.192-0.192-0.503,0-0.695
	c0.192-0.192,0.502-0.192,0.695,0l2.769,2.769l5.898-5.898c0.196-0.195,0.515-0.195,0.71,0C15.301,8.58,15.301,8.897,15.104,9.093z"
	/>
</svg>
