<svg width="16" height="16" xmlns="http://www.w3.org/2000/svg" fill="context-fill" fill-opacity="context-fill-opacity">
<path style="fill:#707070;" d="M8.905,7.998c0,0.184-0.074,0.357-0.208,0.486l-6.499,6.317C2.062,14.934,1.882,15,1.703,15
	c-0.18,0-0.359-0.066-0.496-0.199C1.074,14.67,1,14.498,1,14.315c0-0.183,0.074-0.357,0.207-0.488l5.998-5.83l-5.998-5.83
	C1.074,2.036,1,1.864,1,1.68s0.074-0.356,0.208-0.486C1.47,0.936,1.933,0.935,2.198,1.194L8.697,7.51
	C8.831,7.641,8.905,7.814,8.905,7.998z M14.792,7.51L8.293,1.194C8.028,0.935,7.565,0.936,7.303,1.194
	C7.169,1.324,7.095,1.496,7.095,1.68s0.074,0.357,0.208,0.487l5.998,5.83l-5.998,5.83c-0.134,0.131-0.207,0.304-0.207,0.488
	c0.001,0.183,0.074,0.356,0.207,0.486C7.439,14.934,7.618,15,7.798,15c0.179,0,0.359-0.066,0.495-0.199l6.499-6.317
	C14.926,8.354,15,8.181,15,7.998C15,7.814,14.926,7.641,14.792,7.51z"/>
</svg>
