<svg width="16" height="16" xmlns="http://www.w3.org/2000/svg" fill="context-fill" fill-opacity="context-fill-opacity">
<path d="M8.735,8.525l-6.442,6.261C2.151,14.924,1.961,15,1.759,15c-0.201,0-0.392-0.076-0.535-0.214C1.08,14.645,1,14.457,1,14.259
	s0.079-0.385,0.224-0.529l5.893-5.726L1.224,2.262C1.079,2.121,1,1.933,1,1.735c0-0.199,0.08-0.386,0.224-0.527
	C1.36,1.076,1.555,1,1.759,1c0.204,0,0.399,0.076,0.534,0.209L8.735,7.47C8.88,7.61,8.96,7.798,8.96,7.996
	C8.961,8.195,8.881,8.382,8.735,8.525z M14.775,7.47L8.333,1.209C8.198,1.076,8.003,1,7.799,1S7.4,1.076,7.264,1.208
	C7.12,1.349,7.04,1.536,7.04,1.735c0,0.198,0.079,0.386,0.224,0.527l5.893,5.742L7.264,13.73c-0.145,0.144-0.224,0.331-0.224,0.529
	s0.08,0.386,0.224,0.527C7.407,14.924,7.598,15,7.799,15c0.202,0,0.392-0.076,0.534-0.214l6.442-6.261
	c0.146-0.143,0.226-0.33,0.225-0.529C15,7.798,14.92,7.61,14.775,7.47z"/>
</svg>
