<svg width="32" height="16" xmlns="http://www.w3.org/2000/svg" fill="context-fill" fill-opacity="context-fill-opacity">
	<path d="M8.087,4.215C7.493,3.881,6.778,3.714,5.942,3.714H3.101v8.455h2.842c0.84,0,1.557-0.167,2.15-0.501
		s1.049-0.817,1.365-1.45s0.475-1.393,0.475-2.279V7.927c0-0.887-0.159-1.644-0.478-2.271S8.681,4.549,8.087,4.215z M8.854,7.95
		c0,0.699-0.115,1.292-0.346,1.778s-0.567,0.856-1.011,1.11S6.513,11.22,5.872,11.22H4.155V4.663h1.717
		c0.641,0,1.183,0.126,1.626,0.378s0.78,0.622,1.011,1.11s0.346,1.084,0.346,1.787V7.95z
		M15.086,6.342c-0.424-0.256-0.917-0.384-1.479-0.384c-0.559,0-1.05,0.128-1.474,0.384s-0.754,0.619-0.99,1.09
		s-0.354,1.03-0.354,1.679v0.012c0,0.645,0.118,1.204,0.354,1.679s0.566,0.841,0.99,1.099s0.917,0.387,1.479,0.387
		s1.055-0.129,1.477-0.387s0.751-0.623,0.987-1.096s0.354-1.033,0.354-1.682V9.11c0-0.648-0.118-1.208-0.354-1.679
		S15.51,6.598,15.086,6.342z M15.388,9.122c0,0.477-0.073,0.884-0.22,1.222s-0.352,0.596-0.615,0.773s-0.575,0.267-0.935,0.267
		s-0.673-0.089-0.94-0.267s-0.476-0.436-0.624-0.773s-0.223-0.745-0.223-1.222V9.11c0-0.477,0.074-0.882,0.223-1.216
		s0.356-0.59,0.624-0.768s0.577-0.267,0.929-0.267c0.359,0,0.673,0.088,0.94,0.264s0.475,0.432,0.621,0.768s0.22,0.742,0.22,1.219
		V9.122z
		M20.374,5.958c-0.461,0-0.848,0.093-1.16,0.278s-0.551,0.421-0.715,0.706h-0.023V6.075h-1.02v6.094h1.02V8.583
		c0-0.348,0.065-0.65,0.196-0.908s0.315-0.458,0.554-0.601s0.518-0.214,0.838-0.214c0.469,0,0.819,0.132,1.052,0.396
		s0.349,0.644,0.349,1.14v3.773h1.02V8.214c0-0.695-0.185-1.245-0.554-1.649S21.042,5.958,20.374,5.958z
		M28.899,9.022c0-0.609-0.107-1.145-0.322-1.605s-0.522-0.819-0.923-1.075s-0.878-0.384-1.433-0.384
		s-1.037,0.134-1.447,0.401S24.046,7,23.819,7.479s-0.34,1.032-0.34,1.661v0.006c0,0.637,0.112,1.19,0.337,1.661
		s0.547,0.835,0.967,1.093s0.921,0.387,1.503,0.387c0.332,0,0.641-0.046,0.926-0.138s0.539-0.221,0.762-0.387
		s0.405-0.358,0.548-0.577s0.239-0.453,0.29-0.703l0.012-0.059h-1.002l-0.018,0.053c-0.059,0.176-0.156,0.332-0.293,0.469
		s-0.307,0.244-0.51,0.322s-0.434,0.117-0.691,0.117c-0.367,0-0.686-0.081-0.955-0.243s-0.478-0.396-0.624-0.7
		c-0.139-0.29-0.208-0.64-0.214-1.043h4.383V9.022z M25.343,7.098c0.258-0.158,0.549-0.237,0.873-0.237s0.611,0.075,0.861,0.226
		s0.446,0.38,0.589,0.688c0.104,0.226,0.157,0.512,0.185,0.826h-3.31c0.03-0.3,0.084-0.575,0.192-0.8
		C24.882,7.49,25.085,7.256,25.343,7.098z"/>
</svg>
