<svg width="16" height="16" xmlns="http://www.w3.org/2000/svg" fill="context-fill" fill-opacity="context-fill-opacity">
<path d="M11.119,15.5H2.734c-1.232,0-2.234-1.002-2.234-2.234V4.881c0-1.232,1.002-2.234,2.234-2.234h8.385
	c1.232,0,2.234,1.002,2.234,2.234v8.385C13.353,14.498,12.351,15.5,11.119,15.5L11.119,15.5z M2.734,3.74
	c-0.629,0-1.141,0.512-1.141,1.141v8.385c0,0.629,0.512,1.141,1.141,1.141h8.385c0.629,0,1.141-0.512,1.141-1.141V4.881
	c0-0.629-0.512-1.141-1.141-1.141L2.734,3.74L2.734,3.74z M15.5,2.974c0-1.366-1.108-2.474-2.474-2.474H4.885
	c-0.302,0-0.547,0.245-0.547,0.547c0,0.302,0.245,0.547,0.547,0.547h8.141c0.762,0,1.38,0.618,1.38,1.38v7.993
	c0,0.302,0.245,0.547,0.547,0.547c0.302,0,0.547-0.245,0.547-0.547L15.5,2.974z M3.782,5.074c-0.472,0-0.856,0.384-0.856,0.856
	v6.289c0,0.472,0.384,0.856,0.856,0.856h6.289c0.472,0,0.856-0.384,0.856-0.856V5.929c0-0.472-0.384-0.856-0.856-0.856L3.782,5.074
	L3.782,5.074z"/>
</svg>
