<svg width="16" height="16" xmlns="http://www.w3.org/2000/svg" fill="context-fill" fill-opacity="context-fill-opacity">
<path d="M12.56,9.61c-1.181,0-2.199,0.701-2.668,1.707L8.699,8.897l4.031-7.611c0.139-0.261,0.039-0.585-0.223-0.724
	c-0.261-0.139-0.585-0.039-0.724,0.223L8.114,7.713L4.705,0.799C4.574,0.533,4.253,0.425,3.988,0.555
	C3.722,0.686,3.614,1.007,3.744,1.272L7.497,8.88l-1.342,2.535c-0.446-1.06-1.495-1.805-2.715-1.805
	c-1.624,0-2.946,1.322-2.946,2.945c0,1.624,1.322,2.946,2.946,2.946c1.196,0,2.225-0.718,2.686-1.744
	c0.001-0.002,0.002-0.002,0.003-0.004l1.953-3.689l1.688,3.423c0.39,1.168,1.493,2.013,2.791,2.013c1.624,0,2.946-1.322,2.946-2.946
	C15.506,10.931,14.185,9.61,12.56,9.61z M3.439,14.43c-1.034,0-1.875-0.841-1.875-1.875c0-1.034,0.841-1.874,1.875-1.874
	c1.033,0,1.874,0.841,1.874,1.874S4.472,14.43,3.439,14.43z M12.56,14.43c-0.628,0-1.181-0.313-1.521-0.789l-0.254-0.515
	c-0.058-0.182-0.099-0.371-0.099-0.571c0-1.034,0.84-1.874,1.874-1.874c1.034,0,1.875,0.841,1.875,1.874
	C14.435,13.588,13.594,14.43,12.56,14.43z"/>
</svg>
