<svg width="16" height="16" xmlns="http://www.w3.org/2000/svg" fill="context-fill" fill-opacity="context-fill-opacity">
<path d="M15.066,6.15L9.868,6.138L8.273,1.19C8.191,0.937,7.834,0.936,7.751,1.189L6.134,6.13L0.935,6.119
	C0.669,6.118,0.558,6.458,0.773,6.614l4.199,3.065L3.354,14.62c-0.083,0.252,0.206,0.463,0.421,0.307l4.213-3.047l4.199,3.065
	c0.214,0.157,0.504-0.053,0.422-0.306l-1.596-4.948l4.212-3.046C15.442,6.49,15.332,6.15,15.066,6.15z M11.262,13.221l-2.774-2.025
	L7.99,10.833l-0.499,0.361l-2.783,2.012l1.068-3.264l0.192-0.586L5.471,8.995L2.697,6.97l3.434,0.008l0.616,0.001L6.94,6.393
	l1.068-3.264l1.054,3.269l0.19,0.587l0.615,0.001L13.3,6.993l-2.783,2.012l-0.498,0.362l0.189,0.586L11.262,13.221z"/>
</svg>