<svg width="16" height="16" xmlns="http://www.w3.org/2000/svg" fill="context-fill" fill-opacity="context-fill-opacity">
<path d="M14,3.666h-1.667V2c0-1.105-0.895-2-2-2H2C0.895,0,0,0.895,0,2v8.333c0,1.105,0.895,2,2,2h1.666V14c0,1.105,0.895,2,2,2H14
	c1.105,0,2-0.895,2-2V5.666C16,4.562,15.105,3.666,14,3.666z M10.999,2.335v1.331H5.666c-1.105,0-2,0.895-2,2V11H2.335
	c-0.552,0-1-0.448-1-1V2.335c0-0.552,0.448-1,1-1h7.663C10.551,1.335,10.999,1.783,10.999,2.335z M13.665,14.665H6.002
	c-0.552,0-1-0.448-1-1V6.002c0-0.552,0.448-1,1-1h7.663c0.552,0,1,0.448,1,1v7.663C14.665,14.217,14.217,14.665,13.665,14.665z"/>
</svg>