<svg width="16" height="16" xmlns="http://www.w3.org/2000/svg" fill="context-fill" fill-opacity="context-fill-opacity">
<path d="M3.678,13.986l0.011-1.635l-1.701-0.011C0.886,12.332-0.002,11.436,0,10.335l0.017-8.338C0.019,0.892,0.917-0.002,2.022,0l8.303,0.017c1.109,0.002,2.004,0.905,1.997,2.014l-0.011,1.638l1.702,0.011c1.101,0.007,1.99,0.903,1.987,2.004l-0.017,8.319C15.981,15.107,15.086,16,13.982,16H5.679C4.568,16,3.67,15.096,3.678,13.986z M5.973,14.689l7.694,0.019c0.553,0.001,1.002-0.445,1.003-0.998l0.019-7.704c0.001-0.552-0.445-1.001-0.998-1.003l-7.714-0.02c-0.554-0.001-1.003,0.447-1.003,1v7.705C4.976,14.24,5.422,14.688,5.973,14.689z M2.297,11.026l1.367,0.014l0.018-5.371C3.686,4.564,4.585,3.671,5.69,3.675L11,3.693l0.014-1.352c0.006-0.555-0.442-1.009-0.998-1.011L2.31,1.311c-0.554-0.001-1.003,0.447-1.003,1v7.715C1.307,10.574,1.748,11.02,2.297,11.026z"/>
</svg>