<svg width="16" height="16" xmlns="http://www.w3.org/2000/svg" fill="context-fill" fill-opacity="context-fill-opacity">
<path d="M2.654,10.836l0.316,0.003v1.232l-0.606-0.004C1.331,12.06,0.498,11.22,0.5,10.188l0.016-7.816
	C0.519,1.336,1.361,0.498,2.397,0.5l7.784,0.016c1.04,0.002,1.879,0.848,1.872,1.888l-0.004,0.552h-1.226l0.003-0.26
	c0.006-0.52-0.414-0.946-0.936-0.948L2.667,1.729c-0.519-0.001-0.94,0.419-0.94,0.937v7.232C1.726,10.412,2.14,10.83,2.654,10.836z
	 M15.5,5.83l-0.016,7.798c-0.002,1.035-0.841,1.872-1.876,1.872H5.824c-0.975,0-1.764-0.744-1.857-1.692h0.002L3.952,5.816
	C3.956,4.78,4.799,3.943,5.834,3.947l7.804,0.004C14.669,3.958,15.503,4.798,15.5,5.83z M14.27,6.132
	c0.001-0.517-0.417-0.938-0.936-0.94L6.103,5.173c-0.519-0.001-0.94,0.419-0.94,0.937v7.222c0.002,0.518,0.42,0.938,0.937,0.939
	l7.213,0.018c0.518,0.001,0.939-0.417,0.94-0.936L14.27,6.132z"/>
</svg>
