<svg width="16" height="16" xmlns="http://www.w3.org/2000/svg" fill="context-fill" fill-opacity="context-fill-opacity">
<path d="M6.778,3.769C6.343,3.752,6.325,3.828,5.999,3.495C5.674,3.161,5.539,3,5,3H3.5C2.669,3,2,3.686,2,4.538v6.923
C2,12.314,2.669,13,3.5,13h9c0.831,0,1.5-0.686,1.5-1.538V5.308c0-0.852-0.669-1.538-1.5-1.538 M12.5,4.538c0.415,0,0.75,0.343,0.75,0.769v0.769H2.75V4.538c0-0.426,0.335-0.769,0.75-0.769l0,0H5c0.233,0,0.39,0,0.748,0.362c0.359,0.362,0.479,0.407,0.75,0.407 M2.75,6.846h10.5v4.615c0,0.426-0.335,0.769-0.75,0.769h-9c-0.415,0-0.75-0.343-0.75-0.769V6.846z"/>
</svg>
