<svg width="16" height="16" xmlns="http://www.w3.org/2000/svg" fill="context-fill" fill-opacity="context-fill-opacity">
<path d="M8,0C3.588,0,0,3.588,0,8c0,4.411,3.588,8,8,8c4.411,0,8-3.589,8-8C16,3.588,12.411,0,8,0z M8,14.677c-3.682,0-6.678-2.995-6.678-6.677S4.318,1.322,8,1.322S14.677,4.318,14.677,8S11.682,14.677,8,14.677z M9.071,3.767v4.67c0,0.328-0.266,0.594-0.594,0.594H4.157c-0.328,0-0.594-0.266-0.594-0.594s0.266-0.594,0.594-0.594h3.727V3.767c0-0.328,0.266-0.593,0.594-0.593C8.806,3.173,9.071,3.439,9.071,3.767z"/>
</svg>
