<svg width="16" height="16" xmlns="http://www.w3.org/2000/svg" fill="context-fill" fill-opacity="context-fill-opacity">
<path d="M4.779,15c-0.201,0-0.392-0.076-0.535-0.214C4.1,14.645,4.02,14.457,4.02,14.259c0-0.198,0.079-0.385,0.224-0.529l5.893-5.726L4.244,2.262C4.099,2.121,4.02,1.933,4.02,1.735c0-0.199,0.08-0.386,0.224-0.527C4.38,1.076,4.575,1,4.779,1s0.399,0.076,0.534,0.209l6.442,6.261C11.9,7.61,11.98,7.798,11.98,7.996c0.001,0.199-0.079,0.386-0.225,0.529l-6.442,6.261C5.171,14.924,4.981,15,4.779,15z"/>
</svg>