<svg width="16" height="16" xmlns="http://www.w3.org/2000/svg" fill="context-fill" fill-opacity="context-fill-opacity">
<path d="M15.355,7.722l-2.384-2.408V1.893c0-0.245-0.199-0.444-0.444-0.444H11.64c-0.245,0-0.444,0.199-0.444,0.444v1.628
	L8.35,0.647C8.253,0.549,8.127,0.5,8,0.5l0,0c-0.127,0-0.253,0.049-0.35,0.147L0.645,7.722c-0.194,0.196-0.194,0.511,0,0.707
	s0.506,0.196,0.7,0l0.71-0.717v5.787c0,1.108,0.884,2.001,1.981,2.001h1.231h5.18h1.515c1.098,0,1.981-0.892,1.981-2.001V7.712
	l0.71,0.717c0.194,0.196,0.506,0.196,0.7,0C15.549,8.233,15.549,7.917,15.355,7.722z M12.954,13.499c0,0.552-0.448,1-1,1h-1.917
	v-4.262c0-0.49-0.397-0.888-0.888-0.888H6.841c-0.49,0-0.888,0.397-0.888,0.888V14.5H4.047c-0.552,0-1-0.448-1-1V6.711L8,1.709
	l4.954,5.002V13.499z"/>
</svg>
