<svg width="16" height="16" xmlns="http://www.w3.org/2000/svg" fill="context-fill" fill-opacity="context-fill-opacity">
<path d="M15.822,7.664l-2.489-2.321V1.516c0-0.046-0.04-0.083-0.089-0.083H11.37c-0.049,0-0.089,0.038-0.089,0.083l0.031,1.882L8.433,0.67C8.315,0.56,8.162,0.5,8,0.5c-0.163,0-0.316,0.06-0.433,0.17L0.178,7.665c-0.237,0.224-0.237,0.592,0,0.817c0.116,0.11,0.269,0.171,0.433,0.171c0.163,0,0.317-0.061,0.432-0.171L1.64,7.917v5.521c0,1.137,0.977,2.062,2.178,2.062h8.361c1.202,0,2.18-0.924,2.18-2.062V7.917l0.597,0.565c0.115,0.11,0.269,0.171,0.433,0.171s0.317-0.061,0.432-0.171C16.059,8.256,16.059,7.89,15.822,7.664z M8.22,8.487H7.78c-1.115,0-2.022,0.85-2.022,1.896v3.962H3.821c-0.527,0-0.956-0.407-0.956-0.907L2.838,6.784L8,1.898l5.136,4.828v6.712c0,0.5-0.429,0.907-0.955,0.907h-1.938v-3.962C10.241,9.336,9.335,8.487,8.22,8.487z"/>
</svg>
