<svg width="16" height="16" xmlns="http://www.w3.org/2000/svg" fill="context-fill" fill-opacity="context-fill-opacity">
<path d="M8.062,0.5C3.87,0.463,0.464,3.869,0.501,8.063c0.038,4.075,3.363,7.4,7.437,7.437c4.194,0.037,7.6-3.369,7.562-7.562
	C15.463,3.863,12.138,0.538,8.062,0.5z M5.452,2.231C5.478,2.153,5.539,2.103,5.64,2.129c0.189,0.043,1.703,0.368,1.703,0.368
	s3.147-0.478,3.258-0.504c0.096-0.017,0.162,0.035,0.179,0.12c0.009,0.035,0.539,1.821,1.001,3.379H4.408
	C4.887,3.993,5.418,2.318,5.452,2.231z M10.841,14.006c-1.224,0.078-2.233-0.89-2.233-2.095c0-0.061,0-0.12,0.009-0.18
	c-0.171-0.061-0.36-0.087-0.548-0.087c-0.197,0-0.386,0.035-0.574,0.094c0.009,0.061,0.009,0.111,0.009,0.172
	c0,1.206-1.01,2.173-2.233,2.095c-1.044-0.069-1.891-0.915-1.958-1.959C3.242,10.83,4.21,9.812,5.407,9.812
	c0.873,0,1.625,0.539,1.942,1.3c0.231-0.069,0.47-0.111,0.719-0.111c0.24,0,0.47,0.035,0.693,0.102
	c0.316-0.763,1.061-1.291,1.942-1.291c1.206,0,2.173,1.018,2.095,2.233C12.731,13.092,11.884,13.939,10.841,14.006z M1.338,8.624
	c-0.017,0-0.026-0.026-0.009-0.035c0.446-0.23,3.028-1.505,6.758-1.505c3.738,0,6.286,1.266,6.723,1.505
	c0.017,0.009,0.009,0.035-0.009,0.035H1.338z"/>
</svg>
