<svg width="16" height="16" xmlns="http://www.w3.org/2000/svg" fill="context-fill" fill-opacity="context-fill-opacity">
<path d="M14.785,9.901L14.785,9.901c-0.808-0.758-1.763-1.343-2.807-1.714L9.09,7.159C8.878,6.286,8.22,5.547,7.296,5.279
	c-0.349-0.1-0.701-0.124-1.039-0.082C6.256,5.014,6.244,4.836,6.225,4.663h3.764c0.397,0,0.718-0.322,0.718-0.718V1.218
	c0-0.397-0.322-0.718-0.718-0.718H5.448c-0.832,0-1.544,0.491-1.877,1.197C2.194,1.783,1.132,3.291,1.132,5.205
	c0,0.972,0.275,1.839,0.724,2.47C1.961,7.824,2.077,7.957,2.2,8.078c-0.545,0.984-0.411,2.244,0.426,3.08
	c0.505,0.505,1.167,0.758,1.829,0.758c0.231,0,0.46-0.031,0.684-0.091l0.753,0.668c0.085,0.075,0.194,0.114,0.303,0.114
	c0.075,0,0.151-0.019,0.219-0.056l0.32-0.176c0.02-0.011,0.04-0.016,0.062-0.016c0.033,0,0.066,0.013,0.09,0.038
	c0.04,0.04,0.05,0.102,0.023,0.152l-0.138,0.255c-0.1,0.186-0.06,0.416,0.098,0.557c0.085,0.075,0.193,0.113,0.303,0.113
	c0.075,0,0.151-0.019,0.219-0.056l0.249-0.137c0.02-0.01,0.04-0.016,0.062-0.016c0.033,0,0.066,0.013,0.09,0.037
	c0.04,0.04,0.05,0.102,0.023,0.152l-0.008,0.013c-0.156,0.288-0.092,0.643,0.152,0.861c0.132,0.117,0.299,0.177,0.467,0.177
	c0.116,0,0.233-0.029,0.339-0.087l0.007-0.004c0.02-0.011,0.04-0.016,0.062-0.016c0.033,0,0.066,0.013,0.09,0.038
	c0.04,0.04,0.05,0.101,0.023,0.152c-0.053,0.098-0.06,0.217-0.018,0.321c0.041,0.104,0.128,0.185,0.234,0.219
	c0,0,0.84,0.273,1.121,0.364c0.102,0.033,0.22-0.014,0.272-0.065c0.071-0.071,0.096-0.175,0.066-0.271l-0.001-0.001
	c-0.341-1.054-0.897-2.026-1.633-2.854l-2.034-2.292c0.235-0.867,0.015-1.832-0.666-2.513c-0.504-0.506-1.167-0.759-1.83-0.759
	c-0.576,0-1.144,0.203-1.617,0.583C2.732,7.202,2.633,7.064,2.544,6.91C2.282,6.455,2.115,5.857,2.115,5.205
	c0-1.202,0.554-2.24,1.267-2.48c0.07,1.006,0.849,1.808,1.846,1.914c0.027,0.184,0.045,0.371,0.045,0.565
	c0,0.116-0.016,0.23-0.026,0.345C4.952,5.727,4.695,5.961,4.489,6.244c0.436,0.005,0.855,0.1,1.241,0.275
	c0.118-0.027,0.24-0.037,0.365-0.024C6.144,6.5,6.188,6.526,6.216,6.568c0.027,0.04,0.035,0.091,0.022,0.139L6.212,6.793
	c0.15,0.105,0.293,0.221,0.425,0.353C7.35,7.86,7.665,8.881,7.49,9.868l0.203,0.228c0.249-0.12,0.482-0.276,0.683-0.47l0.982,0.222
	C9.545,9.89,9.739,9.811,9.842,9.647l0.195-0.308c0.03-0.049,0.089-0.07,0.143-0.054c0.054,0.015,0.092,0.066,0.093,0.122
	l0.003,0.29c0.002,0.211,0.148,0.394,0.355,0.441c0.188,0.043,0.383-0.038,0.485-0.201l0.152-0.24
	c0.031-0.048,0.089-0.07,0.143-0.055c0.054,0.016,0.093,0.066,0.093,0.123v0.015c0.003,0.327,0.23,0.608,0.548,0.681
	c0.291,0.066,0.591-0.058,0.75-0.31l0.005-0.007c0.03-0.048,0.088-0.07,0.143-0.054c0.054,0.015,0.092,0.066,0.093,0.122
	c0.001,0.113,0.052,0.218,0.139,0.29c0.086,0.071,0.201,0.1,0.311,0.08l1.158-0.222c0.098-0.019,0.178-0.091,0.206-0.188
	C14.886,10.073,14.857,9.969,14.785,9.901z M3.338,9.571C3.307,9.602,3.264,9.619,3.22,9.619c-0.005,0-0.009,0-0.015-0.001
	c-0.049-0.005-0.094-0.03-0.122-0.07c-0.2-0.29-0.247-0.652-0.145-0.977c0.351,0.18,1.072,0.237,1.343,0.055L3.338,9.571z
	 M4.019,2.731C4.257,2.815,4.473,2.995,4.66,3.233C4.358,3.214,4.107,3.01,4.019,2.731z M4.451,1.84
	C4.53,1.811,4.615,1.792,4.704,1.792c0.399,0,0.723,0.323,0.723,0.723c0,0.026-0.005,0.051-0.008,0.076
	C5.146,2.25,4.818,1.991,4.451,1.84z"/>
</svg>
