<svg width="16" height="16" xmlns="http://www.w3.org/2000/svg" fill="context-fill" fill-opacity="context-fill-opacity">
<path d="M5.102,14.305c0,0.321,0.148,0.552,0.266,0.701l-0.482,0.48L4.827,15.5c-0.024,0-0.051-0.009-0.081-0.027L3.57,14.235
	L3.558,7.896L3.459,7.859C1.988,7.3,1,5.868,1,4.295C1,2.399,2.419,0.8,4.251,0.526c-1.057,0.95-1.676,2.318-1.676,3.749
	c0,1.803,0.966,3.468,2.528,4.366V14.305z M8.353,8.642C6.792,7.743,5.825,6.079,5.825,4.275c0-1.431,0.618-2.799,1.676-3.749
	C5.67,0.8,4.25,2.399,4.25,4.295c0,1.573,0.988,3.005,2.459,3.564l0.099,0.037l0.012,6.339l1.174,1.237
	c0.03,0.019,0.058,0.028,0.082,0.028l0.059-0.014l0.482-0.48c-0.118-0.15-0.266-0.38-0.266-0.701V8.642z M12.087,11.772
	l-0.178,0.182l1.423,1.438l-2.066,2.082c0,0-0.009-0.001-0.028-0.012l-1.167-1.235l0.016-6.408L9.92,7.755
	c-1.447-0.55-2.419-1.959-2.419-3.506c0-2.067,1.682-3.749,3.749-3.749C13.318,0.5,15,2.182,15,4.249
	c0,1.715-1.159,3.208-2.819,3.633l-0.435,0.111l2.059,2.098L12.087,11.772z M12.592,2.878c0-0.733-0.596-1.329-1.329-1.329
	S9.934,2.145,9.934,2.878c0,0.732,0.596,1.329,1.329,1.329S12.592,3.61,12.592,2.878z"/>
</svg>
