<svg width="16" height="16" xmlns="http://www.w3.org/2000/svg" fill="context-fill" fill-opacity="context-fill-opacity">
<path d="M10.734,10.567C10.026,11.323,9.036,11.751,8,11.75c-2.071,0-3.75-1.679-3.75-3.75S5.929,4.25,8,4.25
	c0.914,0,1.752,0.327,2.403,0.871c0.084-0.367,0.449-0.597,0.816-0.513c0.31,0.071,0.53,0.346,0.53,0.665v4.091
	c0,0.55,0.521,1.023,1.193,1.023s1.193-0.473,1.193-1.023V8c0-3.389-2.747-6.136-6.136-6.136S1.864,4.611,1.864,8
	S4.611,14.136,8,14.136c0.377,0,0.682,0.305,0.682,0.681c0,0.377-0.305,0.682-0.681,0.682c0,0-0.001,0-0.001,0
	c-4.142,0-7.5-3.358-7.5-7.5S3.858,0.5,8,0.5s7.5,3.358,7.5,7.5v1.364c0,1.333-1.158,2.386-2.557,2.386
	C12.007,11.75,11.179,11.279,10.734,10.567L10.734,10.567z M8,10.386c1.318,0,2.387-1.068,2.387-2.386
	c0-1.318-1.068-2.387-2.386-2.387c0,0,0,0-0.001,0C6.682,5.614,5.614,6.682,5.614,8C5.614,9.318,6.682,10.386,8,10.386z"/>
</svg>
