<svg width="16" height="16" xmlns="http://www.w3.org/2000/svg" fill="context-fill" fill-opacity="context-fill-opacity">
<path d="M14.5,1.5h-13C0.672,1.5,0,2.172,0,3v10c0,0.828,0.672,1.5,1.5,1.5h13c0.828,0,1.5-0.672,1.5-1.5V3
	C16,2.172,15.328,1.5,14.5,1.5z M11.378,7.041L14.8,3.684v7.976L11.378,7.041z M1.2,11.669V3.807l3.412,3.348L1.2,11.669z
	 M1.516,2.7h12.845L9.193,7.769C8.532,8.43,7.422,8.43,6.734,7.796L1.516,2.7z M1.5,13.3c-0.052,0-0.09-0.032-0.132-0.055
	l4.025-5.325L6.02,8.536C6.549,9.039,7.263,9.277,7.95,9.277c0.714,0,1.402-0.264,1.957-0.793l0.689-0.676l4.03,5.44
	C14.585,13.269,14.549,13.3,14.5,13.3H1.5z"/>
</svg>
