<svg width="16" height="16" xmlns="http://www.w3.org/2000/svg" fill="context-fill" fill-opacity="context-fill-opacity">
<path d="M8,0c4.418,0,8,3.582,8,8s-3.582,8-8,8s-8-3.582-8-8c0-1.171,0.251-2.283,0.704-3.285C1.077,3.964,1.69,3.216,2.184,2.96C1.662,3.986,1.406,4.992,1.352,5.666c0.363-1.2,1.052-2.206,2.016-2.915c1.653-1.215,3.878-1.27,4.765-0.496C6.488,2.821,4.696,5.094,5.09,7.756c0.064,0.44,0.196,0.867,0.391,1.266C5.174,8.214,5.147,7.075,5.643,6.335c0.554-0.824,1.342-0.998,1.765-0.909C7.242,5.391,6.874,6.095,6.819,6.219c-0.138,0.315-0.207,0.656-0.201,1C6.63,7.938,6.927,8.623,7.442,9.123c1.538,1.497,4.018,0.908,5.13-0.802c0.762-1.177,0.855-3.174-0.124-4.762c-0.244-0.386-0.536-0.741-0.867-1.056c-1.48-1.413-3.584-2.056-5.586-1.764C5.11,0.882,4.358,1.137,3.736,1.505C4.604,0.638,6.328,0,8,0z"/>
</svg>
