<svg width="16" height="16" xmlns="http://www.w3.org/2000/svg" fill="context-fill" fill-opacity="context-fill-opacity">
<path d="M8,16c-4.337,0-8-3.663-8-8c0-4.411,3.586-8,7.992-8C12.408,0,16,3.589,16,8C16,12.337,12.337,16,8,16z M7.989,1.252C4.274,1.252,1.252,4.279,1.252,8c0,3.722,3.026,6.749,6.744,6.749c3.724,0,6.753-3.028,6.753-6.749C14.749,4.279,11.717,1.252,7.989,1.252z M4.344,6.857c-0.634,0-1.143,0.509-1.143,1.135c0,0.634,0.509,1.143,1.143,1.143c0.626,0,1.135-0.509,1.135-1.143C5.479,7.366,4.962,6.857,4.344,6.857z M7.992,6.857c-0.626,0-1.143,0.509-1.143,1.135c0,0.634,0.517,1.143,1.143,1.143s1.143-0.509,1.143-1.143C9.135,7.366,8.618,6.857,7.992,6.857z M11.648,6.857c-0.634,0-1.143,0.509-1.143,1.135c0,0.634,0.509,1.143,1.143,1.143c0.626,0,1.135-0.509,1.135-1.143C12.783,7.366,12.274,6.857,11.648,6.857z"/>
</svg>