<svg xmlns="http://www.w3.org/2000/svg" width="16" height="16" fill="context-fill" fill-opacity="context-fill-opacity">
  <path d="M 8.46944,13.848 H 7.7509284 c -0.1983092,0 -0.3592558,-0.187648 -0.3592558,-0.418858 V 2.538857 C 7.3916726,2.3076479 7.5526192,2.12 7.7509284,2.12 H 8.46944 c 0.1983088,0 0.359256,0.1876479 0.359256,0.418857 v 10.890285 c 0,0.23121 -0.1609472,0.418858 -0.359256,0.418858 M 13.968,8.5327903 c 0,0.2093097 -0.190848,0.3791849 -0.426001,0.3791849 H 2.466 C 2.230848,8.9119752 2.04,8.7421 2.04,8.5327903 V 7.7744214 c 0,-0.2093096 0.190848,-0.3791842 0.426,-0.3791842 h 11.075999 c 0.235153,0 0.426001,0.1698746 0.426001,0.3791842 z"/>
</svg>