<svg width="16" height="16" xmlns="http://www.w3.org/2000/svg" fill="context-fill" fill-opacity="context-fill-opacity">
<path d="M1,11.695c0,0.297,0.241,0.539,0.538,0.539h1.756c0.226,1.011,1.13,1.768,2.207,1.768s1.982-0.758,2.207-1.768h6.753c0.297,0,0.538-0.241,0.538-0.539c0-0.297-0.241-0.538-0.538-0.538H7.687c-0.258-0.965-1.14-1.678-2.185-1.678s-1.927,0.713-2.185,1.678H1.538C1.241,11.156,1,11.397,1,11.695z M4.317,11.74c0-0.653,0.531-1.185,1.185-1.185s1.185,0.531,1.185,1.185s-0.531,1.185-1.185,1.185S4.317,12.393,4.317,11.74z M1.538,4.907h6.793C8.61,5.84,9.476,6.522,10.498,6.522s1.888-0.682,2.167-1.615h1.796C14.759,4.907,15,4.666,15,4.369S14.759,3.83,14.462,3.83h-1.742c-0.201-1.042-1.121-1.832-2.221-1.832S8.479,2.788,8.278,3.83H1.538C1.241,3.83,1,4.071,1,4.369S1.241,4.907,1.538,4.907zM10.498,3.075c0.653,0,1.185,0.531,1.185,1.185s-0.531,1.185-1.185,1.185S9.314,4.913,9.314,4.26S9.845,3.075,10.498,3.075z"/>
</svg>
