<svg width="16" height="16" xmlns="http://www.w3.org/2000/svg" fill="context-fill" fill-opacity="context-fill-opacity">
<path d="M14.5,4H7.95C7.718,2.859,6.709,2,5.5,2S3.282,2.859,3.05,4H1.5l0,0C1.223,4,1,4.223,1,4.5S1.223,5,1.5,5h1.55C3.282,6.141,4.29,7,5.5,7s2.218-0.859,2.45-2h6.55C14.777,5,15,4.777,15,4.5S14.777,4,14.5,4z M5.5,6.006c-0.832,0-1.507-0.674-1.507-1.506S4.668,2.994,5.5,2.994S7.007,3.668,7.007,4.5S6.332,6.006,5.5,6.006z M14.5,11h-1.55c-0.232-1.141-1.24-2-2.45-2s-2.218,0.859-2.45,2H1.5l0,0C1.223,11,1,11.223,1,11.5S1.223,12,1.5,12h6.55c0.232,1.141,1.24,2,2.45,2s2.218-0.859,2.45-2h1.55c0.277,0,0.5-0.223,0.5-0.5S14.777,11,14.5,11z M10.5,13.006c-0.832,0-1.506-0.674-1.506-1.506S9.668,9.994,10.5,9.994s1.506,0.674,1.506,1.506S11.332,13.006,10.5,13.006z"/>
</svg>
