<svg width="16" height="16" xmlns="http://www.w3.org/2000/svg" fill="context-fill" fill-opacity="context-fill-opacity">
<path d="M4,7c1.657,0,3-1.343,3-3S5.657,1,4,1S1,2.343,1,4S2.343,7,4,7z M4,2c1.105,0,2,0.895,2,2S5.105,6,4,6S2,5.105,2,4
	S2.895,2,4,2z M7.997,4c0-0.337-0.043-0.673-0.127-1h6.627c0.276,0,0.5,0.224,0.5,0.5S14.773,4,14.497,4H7.997z M12,9
	c-1.657,0-3,1.343-3,3s1.343,3,3,3s3-1.343,3-3S13.657,9,12,9z M12,14c-1.105,0-2-0.895-2-2s0.895-2,2-2s2,0.895,2,2
	S13.105,14,12,14z M7.995,12c0.003,0.338,0.048,0.674,0.135,1H1.5C1.224,13,1,12.776,1,12.5S1.224,12,1.5,12H7.995z"/>
</svg>