<svg width="20" height="16" xmlns="http://www.w3.org/2000/svg" fill="context-fill" fill-opacity="context-fill-opacity">
<path d="M19.4,6.967l-7.632-4.361c-0.18-0.103-0.384-0.158-0.592-0.157c-0.657,0-1.19,0.533-1.189,1.191v4.138
c-0.063-0.33-0.259-0.632-0.573-0.811L1.781,2.606c-0.18-0.103-0.384-0.158-0.592-0.158C0.532,2.449,0,2.981,0,3.639v8.723c0,0.208,0.054,0.411,0.157,0.591c0.327,0.57,1.053,0.768,1.623,0.442l7.633-4.362C9.598,8.928,9.751,8.774,9.857,8.59c0.067-0.117,0.107-0.241,0.13-0.367v4.139c0,0.208,0.054,0.411,0.157,0.591c0.327,0.57,1.053,0.768,1.623,0.442L19.4,9.033c0.184-0.106,0.338-0.259,0.443-0.443C20.169,8.019,19.971,7.292,19.4,6.967z"/>
</svg>
