<svg width="16" height="16" xmlns="http://www.w3.org/2000/svg" fill="context-fill" fill-opacity="context-fill-opacity">
<path d="M1.95,11.444V3.848c0-1.052,0.847-1.899,1.899-1.899h7.597c1.052,0,1.899,0.847,1.899,1.899v5.697h0.949V3.848
C14.294,2.27,13.024,1,11.446,1H3.849C2.27,1,1,2.27,1,3.848v7.597c0,1.578,1.27,2.848,2.848,2.848h5.697v-0.949H3.849C2.796,13.343,1.95,12.496,1.95,11.444z M12.512,10.841l-0.004-0.842l-1.674,0.008l-0.836,0.005l0.004,0.842l0.009,1.685l0.837-0.004l-0.006-1.09L14.411,15L15,14.402l-3.569-3.555L12.512,10.841z M6.939,3.605H5.271c-0.924,0-1.667,0.744-1.667,1.667v1.667c0,0.923,0.744,1.666,1.667,1.666h1.667c0.924,0,1.667-0.744,1.667-1.667V5.272C8.607,4.349,7.861,3.605,6.939,3.605zM7.772,6.94c0,0.462-0.372,0.834-0.834,0.834H5.271c-0.462,0-0.834-0.372-0.834-0.834V5.273c0-0.462,0.372-0.834,0.834-0.834h1.667c0.462,0,0.834,0.372,0.834,0.834C7.771,5.273,7.771,6.94,7.772,6.94z"/>
</svg>
