<svg width="20" height="16" xmlns="http://www.w3.org/2000/svg" fill="context-fill" fill-opacity="context-fill-opacity">
<path d="M0.157,8.59C0.262,8.774,0.416,8.927,0.6,9.033l7.633,4.362c0.57,0.326,1.296,0.128,1.623-0.442
c0.103-0.18,0.157-0.383,0.157-0.591V8.223c0.023,0.126,0.063,0.25,0.13,0.367c0.106,0.184,0.259,0.338,0.444,0.443l7.633,4.362c0.57,0.326,1.296,0.128,1.623-0.442C19.946,12.773,20,12.57,20,12.362V3.639c0-0.658-0.532-1.19-1.189-1.191c-0.208,0-0.412,0.055-0.592,0.158l-7.633,4.361c-0.314,0.179-0.51,0.481-0.573,0.811V3.64c0.001-0.658-0.532-1.191-1.189-1.191C8.616,2.448,8.412,2.503,8.232,2.606L0.6,6.967C0.029,7.292-0.169,8.019,0.157,8.59z"/>
</svg>
