<svg width="16" height="16" xmlns="http://www.w3.org/2000/svg" fill="context-fill" fill-opacity="context-fill-opacity">
<path d="M7.094,7.096C6.967,7.222,6.793,7.3,6.6,7.3H2.4c-0.387,0-0.7-0.313-0.7-0.7c0-0.387,0.313-0.7,0.7-0.7h2.51L1.205,2.195c-0.273-0.273-0.273-0.717,0-0.99s0.717-0.273,0.99,0L5.9,4.91V2.4c0-0.387,0.313-0.7,0.7-0.7s0.7,0.313,0.7,0.7v4.2v0.002c0,0.094-0.019,0.184-0.053,0.266s-0.084,0.159-0.15,0.226L7.094,7.096z M14.795,14.795c-0.273,0.273-0.717,0.273-0.99,0L10.1,11.09v2.51c0,0.387-0.313,0.7-0.7,0.7s-0.7-0.313-0.7-0.7V9.4c0-0.095,0.019-0.185,0.053-0.268c0.034-0.082,0.084-0.159,0.15-0.226l0.003-0.003C9.042,8.768,9.22,8.7,9.397,8.699H9.4h4.2c0.387,0,0.7,0.313,0.7,0.7s-0.313,0.7-0.7,0.7h-2.51l3.705,3.705C15.068,14.078,15.068,14.521,14.795,14.795z"/>
</svg>
