<svg width="16" height="16" xmlns="http://www.w3.org/2000/svg" fill="context-fill" fill-opacity="context-fill-opacity">
<path d="M1.207,1.203c0.127-0.126,0.301-0.204,0.494-0.204h4.2c0.387,0,0.7,0.313,0.7,0.7s-0.313,0.7-0.7,0.7h-2.51l3.705,3.705c0.273,0.273,0.273,0.717,0,0.99c-0.273,0.273-0.717,0.273-0.99,0L2.4,3.39V5.9c0,0.387-0.313,0.7-0.7,0.7S1,6.287,1,5.9V1.7V1.698c0-0.094,0.019-0.184,0.053-0.266s0.084-0.159,0.15-0.226L1.207,1.203z M8.905,8.905c0.273-0.273,0.717-0.273,0.99,0L13.6,12.61V10.1c0-0.387,0.313-0.7,0.7-0.7S15,9.713,15,10.1v4.2c0,0.095-0.019,0.185-0.053,0.268c-0.034,0.082-0.084,0.159-0.15,0.226l-0.003,0.003c-0.136,0.135-0.314,0.203-0.491,0.204H14.3h-4.2c-0.387,0-0.7-0.313-0.7-0.7s0.313-0.7,0.7-0.7h2.51L8.905,9.895C8.632,9.621,8.632,9.178,8.905,8.905z"/>
</svg>
