<svg width="16" height="16" xmlns="http://www.w3.org/2000/svg" fill="context-fill" fill-opacity="context-fill-opacity">
<path d="M1.949,11.444V3.849c0-1.052,0.847-1.899,1.899-1.899h7.596c1.052,0,1.899,0.847,1.899,1.899v5.697h0.949V3.849
c0-1.578-1.27-2.848-2.848-2.848H3.848C2.27,1.001,1,2.271,1,3.849v7.598c0,1.578,1.27,2.848,2.848,2.848h5.697v-0.949H3.848C2.796,13.344,1.949,12.497,1.949,11.444z M7.758,7.174L4.202,3.605L3.605,4.193L7.16,7.762L6.07,7.755L6.065,8.594L7.75,8.602l0.842,0.004L8.597,7.77l0.008-1.675L7.763,6.092L7.758,7.174z M13.333,9.998h-1.667c-0.924,0-1.667,0.744-1.667,1.667v1.667c0,0.924,0.744,1.667,1.667,1.667h1.667c0.924,0,1.667-0.744,1.667-1.667v-1.667C15,10.743,14.256,9.998,13.333,9.998zM14.166,13.333c0,0.462-0.372,0.834-0.834,0.834h-1.667c-0.462,0-0.834-0.372-0.834-0.834v-1.667c0-0.462,0.372-0.834,0.834-0.834h1.667c0.462,0,0.834,0.372,0.834,0.834V13.333z"/>
</svg>
