<svg width="16" height="16" xmlns="http://www.w3.org/2000/svg" fill="context-fill" fill-opacity="context-fill-opacity">
<path d="M3,5.5H1.75c-0.23,0-0.417,0.187-0.417,0.417l0,0v4.167c0,0.23,0.187,0.417,0.417,0.417H3V9.25C3,8.56,3.56,8,4.25,8h7.5
	C12.44,8,13,8.56,13,9.25v1.25h1.25c0.23,0,0.417-0.187,0.417-0.417V5.917c0-0.23-0.187-0.417-0.417-0.417H3z M3,4.667V2.583
	c0-0.69,0.56-1.25,1.25-1.25l0,0h7.5c0.69,0,1.25,0.56,1.25,1.25v2.083h1.25c0.69,0,1.25,0.56,1.25,1.25v0v4.167
	c0,0.69-0.56,1.25-1.25,1.25H13v2.083c0,0.69-0.56,1.25-1.25,1.25h-7.5c-0.69,0-1.25-0.56-1.25-1.25v-2.083H1.75
	c-0.69,0-1.25-0.56-1.25-1.25v0V5.917c0-0.69,0.56-1.25,1.25-1.25c0,0,0,0,0,0H3z M4.25,8.833c-0.23,0-0.417,0.187-0.417,0.417
	v4.167c0,0.23,0.187,0.417,0.417,0.417h7.5c0.23,0,0.417-0.187,0.417-0.417V9.25c0-0.23-0.187-0.417-0.417-0.417L4.25,8.833
	L4.25,8.833z M5.202,10.924c-0.23,0-0.417-0.187-0.417-0.417c0-0.23,0.187-0.417,0.417-0.417h5.585c0.23,0,0.417,0.187,0.417,0.417
	c0,0.23-0.187,0.417-0.417,0.417H5.202L5.202,10.924z M5.202,12.591c-0.23,0-0.417-0.187-0.417-0.417
	c0-0.23,0.187-0.417,0.417-0.417h5.585c0.23,0,0.417,0.187,0.417,0.417c0,0.23-0.187,0.417-0.417,0.417H5.202L5.202,12.591z
	 M13.432,6.871c-0.23,0-0.417-0.187-0.417-0.417s0.187-0.417,0.417-0.417l0,0c0.23,0,0.417,0.187,0.417,0.417
	S13.662,6.871,13.432,6.871z M12.167,4.667V2.583c0-0.23-0.187-0.417-0.417-0.417h-7.5c-0.23,0-0.417,0.187-0.417,0.417l0,0v2.083
	H12.167z"/>
</svg>
