<svg width="16" height="16" xmlns="http://www.w3.org/2000/svg" fill="context-fill" fill-opacity="context-fill-opacity">
<path d="M13.93,1.5H2.07C1.755,1.5,1.5,1.76,1.5,2.08s0.255,0.58,0.57,0.58h11.86c0.315,0,0.57-0.26,0.57-0.58S14.245,1.5,13.93,1.5
L13.93,1.5z M13.93,5.446H2.07c-0.315,0-0.57,0.26-0.57,0.58s0.255,0.58,0.57,0.58h11.86c0.315,0,0.57-0.26,0.57-0.58S14.245,5.446,13.93,5.446L13.93,5.446z M13.93,9.393H2.07c-0.315,0-0.57,0.26-0.57,0.58s0.255,0.58,0.57,0.58h11.86c0.315,0,0.57-0.26,0.57-0.58S14.245,9.393,13.93,9.393L13.93,9.393z M9.224,13.339H2.133c-0.349,0-0.633,0.26-0.633,0.58s0.284,0.58,0.633,0.58h7.091c0.349,0,0.633-0.26,0.633-0.58S9.573,13.339,9.224,13.339L9.224,13.339z"/>
</svg>
