<svg width="16" height="16" xmlns="http://www.w3.org/2000/svg" fill="context-fill" fill-opacity="context-fill-opacity">
<path d="M14.386,1H1.614C1.275,1,1,1.28,1,1.625S1.275,2.25,1.614,2.25h12.772C14.725,2.25,15,1.97,15,1.625S14.725,1,14.386,1L14.386,1z M14.386,5.25H1.614C1.275,5.25,1,5.53,1,5.875S1.275,6.5,1.614,6.5h12.772C14.725,6.5,15,6.22,15,5.875S14.725,5.25,14.386,5.25L14.386,5.25z M14.386,9.5H1.614C1.275,9.5,1,9.78,1,10.125s0.275,0.625,0.614,0.625h12.772c0.339,0,0.614-0.28,0.614-0.625S14.725,9.5,14.386,9.5L14.386,9.5z M9.318,13.75H1.682C1.306,13.75,1,14.03,1,14.375S1.306,15,1.682,15h7.636C9.694,15,10,14.72,10,14.375S9.694,13.75,9.318,13.75L9.318,13.75z"/>
</svg>