<!-- Generator: Adobe Illustrator 25.4.1, SVG Export Plug-In . SVG Version: 6.00 Build 0)  -->
<svg xmlns="http://www.w3.org/2000/svg" width="260" height="20" fill="context-fill" fill-opacity="context-fill-opacity">
<path d="M255.927,14.748c0.284,0.286,0.284,0.751,0,1.036c-0.139,0.14-0.323,0.216-0.517,0.216c-0.197,0-0.382-0.076-0.519-0.215
	l-4.685-4.684l-4.814,4.685C245.253,15.924,245.07,16,244.875,16s-0.379-0.075-0.518-0.213c-0.285-0.286-0.285-0.753,0-1.038
	l4.685-4.685l-4.685-4.814c-0.139-0.138-0.215-0.322-0.215-0.518c0-0.195,0.076-0.379,0.214-0.518
	c0.132-0.131,0.321-0.206,0.518-0.206c0.197,0,0.386,0.075,0.518,0.206l4.685,4.686l4.814-4.685C255.029,4.076,255.214,4,255.411,4
	c0.195,0,0.379,0.076,0.516,0.214c0.139,0.139,0.215,0.323,0.215,0.518s-0.076,0.379-0.214,0.518l-4.685,4.685L255.927,14.748z
	 M14.914,11.224c0,2.635-2.143,4.779-4.779,4.779s-4.78-2.143-4.78-4.779s2.145-4.78,4.78-4.78h0.251l0.237,0.008L9.245,7.823
	l1.059,1.066l3.198-3.191L10.312,2.5L9.245,3.559l1.375,1.386h-0.485L9.884,4.958c-3.379,0.135-6.026,2.887-6.026,6.265
	c0,3.461,2.816,6.277,6.277,6.277c3.46,0,6.277-2.816,6.277-6.277l0.005-0.246l-1.503-0.005V11.224z M32.219,9.586l4.509-0.287
	l-0.286-4.508l-1.501,0.091l0.119,1.949L34.696,6.51L34.5,6.354c-2.628-2.13-6.433-1.81-8.663,0.728
	c-2.284,2.6-2.028,6.574,0.572,8.859c2.599,2.284,6.573,2.028,8.859-0.573l0.166-0.181l-1.126-0.996l-0.166,0.19
	c-1.74,1.979-4.765,2.175-6.745,0.435c-1.98-1.74-2.176-4.765-0.436-6.745c1.741-1.98,4.766-2.174,6.746-0.435l0.188,0.166
	l0.173,0.164l-1.94,0.12L32.219,9.586z M55.34,11.936l0.018-0.484L55.355,11.2c-0.006-3.381-2.657-6.131-6.032-6.258
	c-3.459-0.13-6.379,2.577-6.51,6.036c-0.131,3.458,2.577,6.378,6.034,6.507l0.246,0.015l0.062-1.501l-0.251-0.009
	c-2.633-0.1-4.694-2.322-4.595-4.956c0.1-2.634,2.322-4.695,4.957-4.595c2.634,0.099,4.695,2.324,4.596,4.957l-0.01,0.25
	l-0.017,0.236l-1.318-1.428l-1.105,1.018l3.068,3.317l3.316-3.067l-1.019-1.107L55.34,11.936z M73.713,15.737l0.386-0.293
	l0.192-0.162c2.612-2.148,3.06-5.939,1.021-8.632c-2.09-2.759-6.036-3.303-8.794-1.213c-2.759,2.088-3.302,6.034-1.213,8.794
	l0.144,0.2l1.202-0.903l-0.152-0.201c-1.591-2.1-1.177-5.103,0.924-6.695c2.101-1.592,5.104-1.179,6.695,0.923
	c1.591,2.101,1.176,5.105-0.924,6.696l-0.201,0.151L72.8,14.537l0.271-1.925l-1.488-0.211l-0.622,4.475l4.473,0.624l0.211-1.488
	L73.713,15.737z M93.064,5.059c-2.892-1.898-6.792-1.089-8.691,1.803l-0.139,0.203l1.254,0.829l0.136-0.211
	c1.446-2.204,4.413-2.82,6.618-1.373c2.205,1.447,2.821,4.415,1.374,6.618c-1.447,2.205-4.417,2.82-6.619,1.373l-0.21-0.138
	l-0.194-0.137l1.904-0.39l-0.3-1.472l-4.425,0.912l0.911,4.424l1.473-0.299l-0.389-1.913l0.406,0.266l0.217,0.127
	c2.898,1.742,6.622,0.895,8.475-1.929C96.766,10.858,95.957,6.958,93.064,5.059z M127.231,14.61
	c-1.866-1.862-1.868-4.895-0.006-6.76l0.177-0.177l0.173-0.161l-0.003,1.944l1.502,0.004l0.001-4.518l-4.517-0.002l-0.005,1.503
	l1.952,0.006l-0.343,0.344l-0.168,0.187c-2.291,2.486-2.214,6.304,0.177,8.69c1.828,1.825,4.512,2.285,6.772,1.381l-0.003-1.677
	C131.122,16.396,128.78,16.155,127.231,14.61z M116.042,10.043l-1.41,0.724c0.057,0.585,0.014,1.19-0.16,1.789
	c-0.736,2.531-3.393,3.991-5.924,3.254c-2.53-0.736-3.989-3.395-3.253-5.925l0.07-0.241l0.073-0.225l0.931,1.707l1.32-0.719
	l-2.169-3.962l-3.962,2.169l0.719,1.32l1.715-0.934l-0.135,0.466l-0.058,0.245c-0.816,3.282,1.088,6.593,4.331,7.537
	c3.323,0.967,6.814-0.949,7.782-4.272C116.197,11.99,116.224,10.99,116.042,10.043z M146.137,5.455l1.885,0.51l-0.42,0.243
	l-0.211,0.137c-0.378,0.239-0.717,0.515-1.025,0.814l-0.819-1.419l-1.299,0.75L147,11.256l1.299-0.75l-1.145-1.983
	c0.338-0.391,0.728-0.746,1.199-1.019l0.217-0.126l0.209-0.112l-0.505,1.877l1.452,0.393l1.167-4.364l-4.364-1.168L146.137,5.455z
	 M171.242,9.932l1.258-1.258l-1.083-1.083l-1.341,1.305l-4.685-4.686c-0.132-0.131-0.321-0.206-0.518-0.206
	c-0.197,0-0.386,0.075-0.518,0.206c-0.138,0.139-0.214,0.323-0.214,0.518c0,0.196,0.076,0.38,0.215,0.518l4.685,4.814l-1.253,1.253
	l1.083,1.083l1.335-1.299l4.685,4.684c0.137,0.139,0.322,0.215,0.519,0.215c0.194,0,0.378-0.076,0.517-0.216
	c0.284-0.285,0.284-0.75,0-1.036L171.242,9.932z M191.242,9.931l1.268-1.268l-1.082-1.083l-1.352,1.316l-4.685-4.686
	c-0.132-0.131-0.321-0.206-0.518-0.206s-0.386,0.075-0.518,0.206c-0.138,0.139-0.214,0.323-0.214,0.518
	c0,0.196,0.076,0.38,0.215,0.518l4.685,4.814l-2.007,2.007l1.073,1.073l2.099-2.043l4.685,4.684
	c0.137,0.139,0.322,0.215,0.519,0.215c0.194,0,0.378-0.076,0.517-0.216c0.284-0.285,0.284-0.75,0-1.036L191.242,9.931z
	 M211.242,9.931l1.258-1.258l-1.082-1.083l-1.342,1.306l-4.685-4.686c-0.132-0.131-0.321-0.206-0.518-0.206
	c-0.197,0-0.386,0.075-0.518,0.206c-0.138,0.139-0.214,0.323-0.214,0.518c0,0.196,0.076,0.38,0.215,0.518l4.685,4.814l-4.685,4.685
	c-0.285,0.285-0.285,0.752,0,1.038c0.139,0.138,0.323,0.213,0.518,0.213s0.379-0.076,0.518-0.214l4.814-4.685l4.685,4.684
	c0.137,0.139,0.322,0.215,0.519,0.215c0.194,0,0.378-0.076,0.517-0.216c0.284-0.285,0.284-0.75,0-1.036L211.242,9.931z
	 M231.242,9.93l2.748-2.748l-1.062-1.062l-2.852,2.776l-4.685-4.686c-0.132-0.131-0.321-0.206-0.518-0.206s-0.386,0.075-0.518,0.206
	c-0.138,0.139-0.214,0.323-0.214,0.518c0,0.196,0.076,0.38,0.215,0.518l4.685,4.814l-4.685,4.685c-0.285,0.285-0.285,0.752,0,1.038
	c0.139,0.138,0.323,0.213,0.518,0.213s0.379-0.076,0.518-0.214l4.814-4.685l4.685,4.684c0.137,0.139,0.322,0.215,0.519,0.215
	c0.194,0,0.378-0.076,0.517-0.216c0.284-0.285,0.284-0.75,0-1.036L231.242,9.93z"/>
</svg>
