<svg xmlns="http://www.w3.org/2000/svg" width="16" height="16" fill="context-fill" fill-opacity="context-fill-opacity">
  <path d="m 10.513642,6.1428403 h 3.707786 L 14.499999,5.86427 V 2.1565003 a 0.46428569,0.46428371 0 0 0 -0.793,-0.3287128 L 12.352214,3.1825673 A 6.4535711,6.4535436 0 0 0 7.9999996,1.5000032 C 4.4166427,1.5000032 1.5,4.4166334 1.5,7.9999751 1.5,11.583316 4.4166427,14.499947 7.9999996,14.499947 A 6.4721425,6.4721149 0 0 0 14.470285,8.6295438 0.58128568,0.58128321 0 0 0 13.948428,7.9962609 0.58964282,0.58964031 0 0 0 13.315142,8.5181157 5.3169997,5.3169771 0 0 1 7.9999996,13.339237 c -2.9444998,0 -5.3392854,-2.394775 -5.3392854,-5.3392619 0,-2.9444873 2.3947856,-5.3392627 5.3392854,-5.3392627 a 5.3021426,5.30212 0 0 1 3.5332144,1.34178 l -1.347357,1.3473513 a 0.46428569,0.46428371 0 0 0 0.327785,0.7929966 z"/>
</svg>