<svg width="16" height="16" xmlns="http://www.w3.org/2000/svg" fill="context-fill" fill-opacity="context-fill-opacity">
	<path d="M14.3,6.182c0.387,0,0.7-0.313,0.7-0.7V1.835c0-0.349-0.283-0.633-0.632-0.633c-0.168,0-0.331,0.067-0.448,0.185
	l-1.333,1.334C11.318,1.61,9.697,1,8.006,1H8C5.271,1,2.22,3.082,1.376,5.677C-0.197,10.515,3.387,15,7.999,15
	c0.01,0,0.019,0,0.029,0c3.622,0,6.603-2.713,6.94-6.322c0.037-0.414-0.267-0.784-0.682-0.824c-0.415-0.03-0.775,0.264-0.821,0.68
	c-0.265,2.83-2.602,4.957-5.441,4.957H7.999c-2.128,0-4.519-1.62-5.187-3.641C1.555,6.044,4.373,2.509,8,2.509
	c0.003,0,0.006,0,0.008,0c1.288,0,2.528,0.454,3.51,1.281l-1.314,1.313c-0.246,0.246-0.247,0.647,0,0.895
	c0.12,0.119,0.278,0.185,0.446,0.185L14.3,6.182z"/>
</svg>