<svg width="16" height="16" xmlns="http://www.w3.org/2000/svg" fill="#BF1932" fill-opacity="context-fill-opacity">
<path d="M11.5,6.833v-1.72c0,0,0.01-0.98-0.384-1.993C10.722,2.108,9.54,1,8,1S5.278,2.108,4.884,3.12C4.49,4.133,4.5,5.113,4.5,5.113v1.72c-0.646,0-1.167,0.52-1.167,1.167v5.833C3.333,14.479,3.853,15,4.5,15h7c0.646,0,1.167-0.52,1.167-1.167V8C12.667,7.354,12.147,6.833,11.5,6.833z M8,13.75c-0.414,0-0.75-0.336-0.75-0.75S7.586,12.25,8,12.25S8.75,12.586,8.75,13S8.414,13.75,8,13.75z M8.75,10.95c0,0.276-0.224,0.5-0.5,0.5h-0.5c-0.276,0-0.5-0.224-0.5-0.5v-2.5c0-0.276,0.224-0.5,0.5-0.5h0.5c0.276,0,0.5,0.224,0.5,0.5V10.95z M10.197,6.834H5.803v-1.72c0,0,0.009-0.694,0.267-1.355C6.327,3.098,6.934,2.533,8,2.533s1.673,0.565,1.93,1.226s0.267,1.355,0.267,1.355V6.834z"/>
</svg>
