<svg width="16" height="16" xmlns="http://www.w3.org/2000/svg" fill="context-fill" fill-opacity="context-fill-opacity">
<path d="M8,1C6.46,1,5.278,2.108,4.884,3.12C4.49,4.133,4.5,5.113,4.5,5.113v1.72c-0.646,0-1.167,0.52-1.167,1.167v5.833C3.333,14.479,3.853,15,4.5,15h7c0.646,0,1.167-0.52,1.167-1.167V8c0-0.646-0.52-1.167-1.167-1.167v-1.72c0,0,0.01-0.98-0.384-1.993C10.722,2.108,9.54,1,8,1z M8,2.533c1.066,0,1.673,0.565,1.93,1.226s0.267,1.355,0.267,1.355v1.72H5.803v-1.72c0,0,0.009-0.694,0.267-1.355C6.327,3.098,6.934,2.533,8,2.533z"/>
</svg>
