<svg width="48" height="48" xmlns="http://www.w3.org/2000/svg" fill="context-fill" fill-opacity="context-fill-opacity">
  <path d="m 36.4443,13.563771 c 0.352197,-0.469596 0.704394,-1.056592 0.821793,-1.760986 h 7.278742 c 0.704394,0 1.17399,-0.469596 1.17399,-1.173991 0,-0.7043939 -0.469596,-1.1739901 -1.17399,-1.1739901 H 37.266093 C 37.031295,8.3982124 36.326901,7.3416209 35.387708,6.6372266 33.157126,4.9936398 30.104751,5.5806351 28.578563,7.6938181 28.226366,8.1634143 27.991568,8.7504096 27.75677,9.4548039 H 3.4551652 c -0.7043943,0 -1.1739905,0.4695962 -1.1739905,1.1739901 0,0.704395 0.4695962,1.173991 1.1739905,1.173991 H 27.75677 c 0.234798,1.056592 0.939192,2.113183 1.878385,2.817577 2.113183,1.643587 5.282957,1.173991 6.809145,-1.056591 z m -5.400357,-0.821794 c -0.586995,-0.352197 -0.939192,-0.939192 -1.056591,-1.643586 -0.117399,-0.704395 0,-1.2913899 0.469596,-1.8783852 0.821793,-1.1739906 2.46538,-1.4087887 3.521972,-0.5869953 0.586995,0.3521972 0.939192,0.9391925 1.056591,1.6435865 0,0.117399 0,0.234798 0,0.352197 0,0.586996 -0.117399,1.056592 -0.469596,1.526188 -0.821793,1.173991 -2.46538,1.408789 -3.521972,0.586995 z M 19.06924,26.947263 c 0.352197,-0.469596 0.704394,-1.056591 0.821793,-1.760986 h 24.653802 c 0.704394,0 1.17399,-0.469596 1.17399,-1.17399 0,-0.704395 -0.469596,-1.173991 -1.17399,-1.173991 H 19.891033 c -0.234798,-1.056591 -0.939192,-2.113183 -1.878385,-2.817577 -2.230582,-1.643587 -5.282957,-1.056592 -6.809145,1.056591 -0.352197,0.469597 -0.586995,1.056592 -0.821793,1.760986 H 3.4551652 c -0.7043943,0 -1.1739905,0.469596 -1.1739905,1.173991 0,0.704394 0.4695962,1.17399 1.1739905,1.17399 H 10.38171 c 0.234798,1.056592 0.939192,2.113183 1.878384,2.817578 2.113183,1.526187 5.165559,1.056591 6.809146,-1.056592 z m -5.400357,-0.939192 c -0.586995,-0.352197 -0.939192,-0.939193 -1.056591,-1.643587 -0.117399,-0.704394 0,-1.29139 0.469596,-1.878385 0.821793,-1.17399 2.46538,-1.408789 3.521971,-0.586995 0.586996,0.352197 0.939193,0.939192 1.056592,1.643587 0,0.117399 0,0.234798 0,0.352197 0,0 0,0 0,0 0,0 0,0 0,0 0,0.586995 -0.117399,1.056591 -0.469596,1.526187 -0.821794,1.173991 -2.46538,1.408789 -3.521972,0.586996 z m 18.196854,14.205286 c 0.352197,-0.469597 0.704394,-1.056592 0.821793,-1.760986 h 11.857305 c 0.704394,0 1.17399,-0.469597 1.17399,-1.173991 0,-0.704394 -0.469596,-1.17399 -1.17399,-1.17399 H 32.68753 C 32.452732,35.047798 31.748338,33.991207 30.809145,33.286812 29.752554,32.465019 28.461164,32.230221 27.169775,32.34762 25.878385,32.582418 24.704394,33.286812 24,34.343404 23.647803,34.930399 23.413005,35.399995 23.178207,36.10439 H 3.4551652 c -0.7043943,0 -1.1739905,0.469596 -1.1739905,1.17399 0,0.704394 0.4695962,1.173991 1.1739905,1.173991 H 23.295606 c 0.234798,1.056591 0.939192,2.113183 1.878385,2.817577 2.113183,1.526188 5.165558,1.056592 6.691746,-1.056591 z M 26.46538,39.391563 c -0.586995,-0.469596 -0.939192,-1.056591 -1.056591,-1.760986 0,-0.117399 0,-0.234798 0,-0.234798 0,-0.117399 0,-0.234798 0,-0.234798 0,-0.469596 0.234798,-0.821793 0.469596,-1.17399 0.352197,-0.586996 0.939192,-0.939193 1.643587,-1.056592 0.704394,-0.117399 1.291389,0.117399 1.878385,0.469596 0.586995,0.352197 0.939192,0.939193 1.056591,1.643587 0,0.117399 0,0.234798 0,0.352197 0,0 0,0 0,0 0,0 0,0 0,0 0,0.586995 -0.117399,1.056592 -0.469596,1.526188 -0.821794,1.056591 -2.347981,1.29139 -3.521972,0.469596 z"/>
</svg>
