<svg width="48" height="48" xmlns="http://www.w3.org/2000/svg" fill="context-fill" fill-opacity="context-fill-opacity">
	<path d="M46.722,22.801H19.829c-0.55-2.537-2.805-4.439-5.507-4.439S9.365,20.263,8.815,22.8H1.322c-0.8,0-1.3,0.5-1.3,1.3
	s0.5,1.3,1.3,1.3h7.544c0.623,2.435,2.826,4.238,5.456,4.238c2.629,0,4.832-1.802,5.455-4.237h26.845c0.8,0,1.3-0.5,1.3-1.3
	S47.522,22.801,46.722,22.801z M14.322,26.9L14.322,26.9L14.322,26.9c-0.012,0-0.024-0.002-0.035-0.004
	c-1.585-0.019-2.865-1.307-2.865-2.896s1.28-2.877,2.865-2.896c0.012-0.002,0.023-0.004,0.035-0.004l0,0l0,0
	c1.602,0,2.9,1.298,2.9,2.9S15.924,26.9,14.322,26.9z M46.722,9.5h-7.9c-0.001-0.004-0.009-0.009-0.011-0.013
	C38.219,7.029,36.012,5.2,33.372,5.2c-2.644,0-4.855,1.835-5.442,4.3H1.322c-0.8,0-1.3,0.5-1.3,1.3s0.5,1.3,1.3,1.3H27.93
	c0.587,2.465,2.798,4.3,5.442,4.3c2.68,0,4.917-1.883,5.467-4.398c0-0.001,0-0.001,0.001-0.002h7.782c0.8,0,1.3-0.5,1.3-1.3
	C48.022,10,47.522,9.5,46.722,9.5z M33.372,13.797c-1.655,0-2.997-1.342-2.997-2.997s1.342-2.997,2.997-2.997
	s2.997,1.342,2.997,2.997S35.027,13.797,33.372,13.797z M46.766,35.938h-7.9c-0.001-0.004-0.009-0.009-0.011-0.013
	c-0.592-2.458-2.799-4.287-5.439-4.287c-2.644,0-4.855,1.835-5.442,4.3H1.366c-0.8,0-1.3,0.5-1.3,1.3s0.5,1.3,1.3,1.3h26.608
	c0.587,2.465,2.798,4.3,5.442,4.3c2.68,0,4.917-1.883,5.467-4.398c0-0.001,0-0.001,0.001-0.002h7.782c0.8,0,1.3-0.5,1.3-1.3
	C48.066,36.438,47.566,35.938,46.766,35.938z M33.416,40.235c-1.655,0-2.997-1.342-2.997-2.997c0-1.655,1.342-2.997,2.997-2.997
	s2.997,1.342,2.997,2.997C36.412,38.893,35.071,40.235,33.416,40.235z"/>
</svg>