<svg width="48" height="48" xmlns="http://www.w3.org/2000/svg" fill="context-fill" fill-opacity="context-fill-opacity">
<path d="M46.703,22.869H19.459c-0.259-1.188-1.038-2.375-2.076-3.167c-2.465-1.847-5.838-1.188-7.524,1.188
	c-0.389,0.528-0.649,1.188-0.908,1.979H1.297C0.519,22.869,0,23.397,0,24.189c0,0.792,0.519,1.32,1.297,1.32h7.654
	c0.259,1.188,1.038,2.375,2.076,3.167c2.335,1.715,5.708,1.188,7.524-1.188c0.389-0.528,0.778-1.188,0.908-1.979h27.243
	c0.778,0,1.297-0.528,1.297-1.32S47.481,22.869,46.703,22.869z M15.16,26.801c-0.012,0.004-0.024,0.007-0.036,0.011
	c-0.144,0.049-0.291,0.091-0.445,0.117c-0.095,0.017-0.191,0.021-0.287,0.028c-0.07,0.005-0.138,0.021-0.21,0.021
	c-0.016,0-0.031-0.004-0.047-0.005c-0.082-0.002-0.161-0.015-0.243-0.024c-1.467-0.145-2.616-1.348-2.616-2.827
	c0-1.435,1.08-2.612,2.483-2.814c0.044-0.008,0.088-0.008,0.132-0.013c0.097-0.01,0.191-0.029,0.29-0.029
	c0.022,0,0.043,0.006,0.065,0.006c0.132,0.001,0.263,0.018,0.393,0.039c0.052,0.008,0.105,0.011,0.156,0.021
	c0.084,0.018,0.164,0.048,0.246,0.075c1.182,0.362,2.045,1.433,2.045,2.714C17.088,25.361,16.281,26.405,15.16,26.801z"/>
<path d="M46.703,7.322h-8.043c-0.259-1.188-1.038-2.375-2.076-3.167c-2.465-1.847-5.838-1.188-7.524,1.188
	C28.67,5.87,28.411,6.53,28.151,7.322H1.297C0.519,7.322,0,7.849,0,8.641c0,0.792,0.519,1.32,1.297,1.32h26.854
	c0.259,1.188,1.038,2.375,2.076,3.167c2.335,1.847,5.838,1.32,7.524-1.188c0.389-0.528,0.778-1.188,0.908-1.979h8.043
	c0.778,0,1.297-0.528,1.297-1.32C48,7.849,47.481,7.322,46.703,7.322z M33.382,11.625c-1.584,0-2.869-1.306-2.869-2.918
	s1.284-2.918,2.869-2.918c1.584,0,2.869,1.306,2.869,2.918S34.966,11.625,33.382,11.625z"/>
<path d="M46.703,38.322h-8.043c-0.259-1.188-1.038-2.375-2.076-3.167c-2.465-1.847-5.838-1.188-7.524,1.188
	c-0.389,0.528-0.649,1.188-0.908,1.979H1.297C0.519,38.322,0,38.849,0,39.641s0.519,1.32,1.297,1.32h26.854
	c0.259,1.188,1.038,2.375,2.076,3.167c2.335,1.847,5.838,1.32,7.524-1.188c0.389-0.528,0.778-1.188,0.908-1.979h8.043
	c0.778,0,1.297-0.528,1.297-1.32S47.481,38.322,46.703,38.322z M33.382,42.625c-1.584,0-2.869-1.306-2.869-2.918
	c0-1.611,1.284-2.918,2.869-2.918c1.584,0,2.869,1.306,2.869,2.918C36.251,41.319,34.966,42.625,33.382,42.625z"/>
</svg>
