<svg width="16" height="16" xmlns="http://www.w3.org/2000/svg" fill="context-fill" fill-opacity="context-fill-opacity">
<path d="M15.582,7.593H6.61C6.427,6.747,5.674,6.112,4.773,6.112S3.119,6.746,2.936,7.592h-2.5c-0.267,0-0.434,0.167-0.434,0.434
	S0.169,8.46,0.436,8.46h2.517c0.208,0.812,0.943,1.414,1.82,1.414c0.877,0,1.612-0.601,1.82-1.414h8.956
	c0.267,0,0.434-0.167,0.434-0.434S15.849,7.593,15.582,7.593z M4.772,8.96L4.772,8.96L4.772,8.96c-0.004,0-0.008-0.001-0.012-0.001
	C4.231,8.953,3.804,8.523,3.804,7.993c0-0.53,0.427-0.96,0.956-0.966c0.004-0.001,0.008-0.001,0.012-0.001l0,0l0,0
	c0.534,0,0.968,0.433,0.968,0.968C5.74,8.527,5.307,8.96,4.772,8.96z M15.582,3.155h-2.636c0-0.001-0.003-0.003-0.004-0.004
	c-0.198-0.82-0.934-1.43-1.815-1.43c-0.882,0-1.62,0.612-1.816,1.435H0.434C0.167,3.155,0,3.322,0,3.589s0.167,0.434,0.434,0.434
	h8.877c0.196,0.822,0.934,1.435,1.816,1.435c0.894,0,1.64-0.628,1.824-1.467c0,0,0,0,0-0.001h2.596c0.267,0,0.434-0.167,0.434-0.434
	C16.016,3.321,15.849,3.155,15.582,3.155z M11.128,4.589c-0.552,0-1-0.448-1-1s0.448-1,1-1s1,0.448,1,1S11.68,4.589,11.128,4.589z
	 M15.597,11.976h-2.636c0-0.001-0.003-0.003-0.004-0.004c-0.198-0.82-0.934-1.43-1.815-1.43c-0.882,0-1.62,0.612-1.816,1.435H0.449
	c-0.267,0-0.434,0.167-0.434,0.434s0.167,0.434,0.434,0.434h8.877c0.196,0.822,0.934,1.435,1.816,1.435
	c0.894,0,1.64-0.628,1.824-1.467c0,0,0,0,0-0.001h2.596c0.267,0,0.434-0.167,0.434-0.434C16.03,12.142,15.864,11.976,15.597,11.976z
	 M11.143,13.409c-0.552,0-1-0.448-1-1s0.448-1,1-1s1,0.448,1,1C12.142,12.961,11.695,13.409,11.143,13.409z"/>
</svg>