<svg width="48" height="48" xmlns="http://www.w3.org/2000/svg" fill="context-fill" fill-opacity="context-fill-opacity">
<path d="M46.7,9.6h-8c-0.3-1.2-1-2.4-2.1-3.2c-2.5-1.8-5.8-1.2-7.5,1.2c-0.4,0.5-0.6,1.2-0.9,2H1.3C0.5,9.6,0,10.1,0,10.9
	s0.5,1.3,1.3,1.3h26.9c0.3,1.2,1,2.4,2.1,3.2c2.3,1.8,5.8,1.3,7.5-1.2c0.4-0.5,0.8-1.2,0.9-2h8c0.8,0,1.3-0.5,1.3-1.3
	C48,10.1,47.5,9.6,46.7,9.6z M33.4,13.9c-1.6,0-2.9-1.3-2.9-2.9s1.3-3,2.9-3c1.6,0,2.9,1.3,2.9,2.9S35,13.9,33.4,13.9z"/>
<path d="M46.7,35.8h-8c-0.3-1.2-1-2.4-2.1-3.2c-2.5-1.8-5.8-1.2-7.5,1.2c-0.4,0.5-0.6,1.2-0.9,2H1.3c-0.8,0-1.3,0.5-1.3,1.3
	s0.5,1.3,1.3,1.3h26.9c0.3,1.2,1,2.4,2.1,3.2c2.3,1.8,5.8,1.3,7.5-1.2c0.4-0.5,0.8-1.2,0.9-2h8c0.8,0,1.3-0.5,1.3-1.3
	S47.5,35.8,46.7,35.8z M33.4,40.1c-1.6,0-2.9-1.3-2.9-2.9c0-1.6,1.3-2.9,2.9-2.9c1.6,0,2.9,1.3,2.9,2.9S35,40.1,33.4,40.1z"/>
<path d="M46.7,22.7H19.5c-0.3-1.2-1-2.4-2.1-3.2c-2.5-1.8-5.8-1.2-7.5,1.2c-0.4,0.5-0.6,1.2-0.9,2H1.3C0.5,22.7,0,23.2,0,24
	s0.5,1.3,1.3,1.3H9c0.3,1.2,1,2.4,2.1,3.2c2.3,1.7,5.7,1.2,7.5-1.2c0.4-0.5,0.8-1.2,0.9-2h27.2c0.8,0,1.3-0.5,1.3-1.3
	S47.5,22.7,46.7,22.7z M14.3,26.8c-1.6,0-2.9-1.3-2.9-2.9c0-1.6,1.3-2.9,2.9-2.9c1.6,0,2.9,1.3,2.9,2.9
	C17.2,25.5,15.9,26.8,14.3,26.8z"/>
</svg>