<svg width="16" height="16" xmlns="http://www.w3.org/2000/svg" fill="context-fill" fill-opacity="context-fill-opacity">
<path d="M13.991,0.5H2.008C0.901,0.5,0,1.539,0,2.816v10.367C0,14.461,0.902,15.5,2.008,15.5h11.984c1.107,0,2.008-1.038,2.008-2.316V2.815C15.999,1.538,15.098,0.5,13.991,0.5z M5.863,14.322H2.008c-0.544,0-0.988-0.511-0.988-1.139V2.815c0-0.628,0.444-1.14,0.988-1.14h3.855C5.863,1.675,5.863,14.322,5.863,14.322z M14.978,13.184c0,0.628-0.444,1.14-0.988,1.14H6.948V1.677h7.043c0.544,0,0.988,0.511,0.988,1.14v10.367H14.978z M1.952,3.82h2.979v1.226H1.952V3.82z M1.952,7.189h2.979v1.226H1.952V7.189z M1.952,10.557h2.979v1.226H1.952V10.557z"/>
</svg>
