<svg width="16" height="16" xmlns="http://www.w3.org/2000/svg" fill="context-fill" fill-opacity="context-fill-opacity">
<path d="M2.009,15.5h11.983C15.1,15.5,16,14.461,16,13.184V2.816C16,1.539,15.098,0.5,13.992,0.5H2.008C0.901,0.5,0,1.538,0,2.816v10.369C0.001,14.462,0.902,15.5,2.009,15.5z M10.137,1.678h3.855c0.544,0,0.988,0.511,0.988,1.139v10.367c0,0.628-0.444,1.14-0.988,1.14h-3.855C10.137,14.324,10.137,1.678,10.137,1.678z M1.022,2.816c0-0.628,0.444-1.14,0.988-1.14h7.043v12.646H2.009c-0.544,0-0.988-0.511-0.988-1.14L1.022,2.816L1.022,2.816z M14.048,12.18h-2.979v-1.226h2.979V12.18z M14.048,8.811h-2.979V7.585h2.979V8.811z M14.048,5.443h-2.979V4.217h2.979V5.443z"/>
</svg>
