<svg width="16" height="16" xmlns="http://www.w3.org/2000/svg" fill="context-fill" fill-opacity="context-fill-opacity">
<path d="M15.74,1.5H2.259C1.013,1.5,0,2.539,0,3.816v10.367C0,15.461,1.014,16.5,2.259,16.5h13.483c1.245,0,2.259-1.038,2.259-2.316V3.815C17.999,2.538,16.986,1.5,15.74,1.5z M6.596,15.322H2.259c-0.612,0-1.111-0.511-1.111-1.139V3.815c0-0.628,0.499-1.14,1.111-1.14h4.337V15.322z M16.851,14.184c0,0.628-0.499,1.14-1.111,1.14H7.816V2.677h7.924c0.612,0,1.111,0.511,1.111,1.14V14.184z M2.196,4.82h3.351v1.226H2.196V4.82z M2.196,8.189h3.351v1.226H2.196V8.189z M2.196,11.557h3.351v1.226H2.196V11.557z"/>
</svg>