<svg width="16" height="16" xmlns="http://www.w3.org/2000/svg" fill="context-fill" fill-opacity="context-fill-opacity">
<path d="M2.26,16.5h13.482c1.246,0,2.259-1.039,2.259-2.316V3.816C18,2.539,16.986,1.5,15.741,1.5H2.259C1.014,1.5,0,2.538,0,3.816l0,10.369C0.001,15.462,1.014,16.5,2.26,16.5z M11.404,2.678h4.337c0.612,0,1.111,0.511,1.111,1.139v10.367c0,0.628-0.499,1.14-1.111,1.14h-4.337V2.678z M1.149,3.816c0-0.628,0.499-1.14,1.111-1.14h7.924v12.646H2.26c-0.612,0-1.111-0.511-1.111-1.14V3.816z M15.804,13.18h-3.351v-1.226h3.351V13.18z M15.804,9.811h-3.351V8.585h3.351V9.811z M15.804,6.443h-3.351V5.217h3.351V6.443z"/>
</svg>