<svg width="16" height="16" xmlns="http://www.w3.org/2000/svg" fill="context-fill" fill-opacity="context-fill-opacity">
<path d="M0,3.116l0,9.768C0,14.161,1.014,15.2,2.261,15.2h11.478c1.247,0,2.261-1.039,2.261-2.316V3.116
C16,1.839,14.986,0.8,13.739,0.8L2.261,0.801C1.014,0.801,0,1.839,0,3.116z M10.275,1.976h3.464c0.614,0,1.113,0.511,1.113,1.14v9.768c0,0.628-0.499,1.141-1.113,1.141h-3.464V1.976z M1.149,3.116c0-0.629,0.498-1.14,1.112-1.14h6.864v12.049l-6.864,0.001c-0.613,0-1.112-0.512-1.112-1.141V3.116z M13.984,5.176h-2.84v-1.2h2.84V5.176z M13.984,8.601h-2.84v-1.2h2.84V8.601zM13.984,12.025h-2.84v-1.2h2.84V12.025z"/>
</svg>