<svg width="16" height="16" xmlns="http://www.w3.org/2000/svg" fill="context-fill" fill-opacity="context-fill-opacity">
<path d="M13.269,14c-0.197,0-0.382-0.076-0.519-0.215L8.065,9.101l-4.814,4.685C3.112,13.924,2.928,14,2.733,14s-0.379-0.075-0.518-0.213c-0.285-0.286-0.285-0.753,0-1.038L6.9,8.064L2.215,3.25C2.076,3.112,2,2.928,2,2.732c0-0.195,0.076-0.379,0.214-0.518c0.132-0.131,0.321-0.206,0.518-0.206c0.197,0,0.386,0.075,0.518,0.206L7.935,6.9l4.814-4.685C12.888,2.076,13.072,2,13.269,2c0.195,0,0.379,0.076,0.516,0.214C13.924,2.353,14,2.537,14,2.732c0,0.195-0.076,0.379-0.214,0.518L9.101,7.935l4.685,4.813c0.284,0.286,0.284,0.751,0,1.036C13.647,13.924,13.463,14,13.269,14z"/>
</svg>