<svg width="16" height="16" xmlns="http://www.w3.org/2000/svg" fill="context-fill" fill-opacity="context-fill-opacity">
<path d="M9.148,8l4.615-4.615c0.316-0.316,0.316-0.831,0-1.148c-0.315-0.316-0.831-0.316-1.147,0L8,6.852L3.385,2.237
	c-0.307-0.306-0.84-0.306-1.148,0C2.084,2.39,2,2.594,2,2.811s0.084,0.42,0.238,0.574L6.853,8l-4.615,4.615
	C2.084,12.767,2,12.972,2,13.189c0,0.216,0.084,0.421,0.238,0.574c0.316,0.315,0.83,0.313,1.147-0.001L8,9.147l4.615,4.614
	c0.153,0.154,0.356,0.238,0.573,0.239c0,0,0,0,0.001,0c0.217,0,0.421-0.085,0.573-0.239c0.316-0.316,0.316-0.83,0-1.147L9.148,8z"/>
</svg>
