<svg width="16" height="16" xmlns="http://www.w3.org/2000/svg" fill="context-fill" fill-opacity="1">
	<path d="M3,1C1.901,1,1,1.9,1,3v10c0,1.099,0.9,2,2,2h10c1.099,0,2-0.9,2-2V3c0-1.099-0.9-2-2-2H3z M3,2h3v1.5
	C6,4.323,6.677,5,7.5,5H14v8c0,0.563-0.437,1-1,1H3c-0.563,0-1-0.437-1-1V3C2,2.437,2.437,2,3,2z M7,2h6c0.563,0,1,0.437,1,1v1H7.5
	C7.228,4.004,7.004,3.786,7,3.514C7,3.509,7,3.505,7,3.5V2z M5,8c0.552,0,1,0.448,1,1s-0.448,1-1,1S4,9.552,4,9S4.448,8,5,8z M8,8
	c0.552,0,1,0.448,1,1s-0.448,1-1,1S7,9.552,7,9S7.448,8,8,8z M11,8c0.552,0,1,0.448,1,1s-0.448,1-1,1s-1-0.448-1-1S10.448,8,11,8z"/>
</svg>
