<svg width="16" height="16" xmlns="http://www.w3.org/2000/svg" fill="context-fill" fill-opacity="context-fill-opacity">
<path d="M13.726,4.006l-1.742-0.021l0.01-1.673c0.004-0.479-0.18-0.929-0.516-1.268c-0.337-0.339-0.786-0.527-1.264-0.528L2.303,0.5
	c-0.982,0-1.784,0.799-1.786,1.781L0.5,10.225c-0.001,0.978,0.794,1.781,1.773,1.789l1.74,0.021l-0.011,1.67
	c-0.003,0.478,0.181,0.929,0.518,1.268C4.857,15.312,5.308,15.5,5.787,15.5h7.912c0.981,0,1.782-0.799,1.785-1.781L15.5,5.793
	C15.502,4.814,14.707,4.012,13.726,4.006z M4.006,5.78l-0.027,5.239l-1.412-0.014c-0.588-0.007-1.065-0.489-1.063-1.075V2.579
	c0-0.592,0.482-1.074,1.075-1.074l7.339,0.02c0.29,0.001,0.561,0.115,0.764,0.321s0.313,0.478,0.31,0.765L10.967,4.02L5.79,4.002
	C4.81,4.002,4.01,4.8,4.006,5.78z M14.474,13.44c-0.001,0.593-0.484,1.074-1.077,1.074l-7.331-0.019
	c-0.59-0.003-1.071-0.485-1.073-1.076v-7.34c0-0.593,0.482-1.075,1.075-1.075l7.351,0.02c0.594,0.002,1.075,0.485,1.074,1.077
	L14.474,13.44z"/>
</svg>
