<svg width="16" height="16" xmlns="http://www.w3.org/2000/svg" fill="context-fill" fill-opacity="context-fill-opacity">
<path d="M4.5,2c0,0.552-0.448,1-1,1h-2c-0.552,0-1-0.448-1-1s0.448-1,1-1h2C4.052,1,4.5,1.448,4.5,2z M7.5,3h7c0.552,0,1-0.448,1-1
	s-0.448-1-1-1h-7c-0.552,0-1,0.448-1,1S6.948,3,7.5,3z M3.5,7h-2c-0.552,0-1,0.448-1,1s0.448,1,1,1h2c0.552,0,1-0.448,1-1
	S4.052,7,3.5,7z M3.5,13h-2c-0.552,0-1,0.448-1,1s0.448,1,1,1h2c0.552,0,1-0.448,1-1S4.052,13,3.5,13z M7.5,9h4c0.552,0,1-0.448,1-1
	s-0.448-1-1-1h-4c-0.552,0-1,0.448-1,1S6.948,9,7.5,9z M14.5,13h-7c-0.552,0-1,0.448-1,1s0.448,1,1,1h7c0.552,0,1-0.448,1-1
	S15.052,13,14.5,13z"/>
</svg>
