<svg width="16" height="16" xmlns="http://www.w3.org/2000/svg" fill="context-fill" fill-opacity="context-fill-opacity">
<path d="M4,2c0,0.552-0.448,1-1,1H1C0.448,3,0,2.552,0,2c0-0.552,0.448-1,1-1h2C3.552,1,4,1.448,4,2z M8,3h7c0.552,0,1-0.448,1-1c0-0.552-0.448-1-1-1H8C7.448,1,7,1.448,7,2C7,2.552,7.448,3,8,3z M3,7H1C0.448,7,0,7.448,0,8c0,0.552,0.448,1,1,1h2c0.552,0,1-0.448,1-1C4,7.448,3.552,7,3,7z M3,13H1c-0.552,0-1,0.448-1,1c0,0.552,0.448,1,1,1h2c0.552,0,1-0.448,1-1C4,13.448,3.552,13,3,13z M8,9h4c0.552,0,1-0.448,1-1c0-0.552-0.448-1-1-1H8C7.448,7,7,7.448,7,8C7,8.552,7.448,9,8,9z M15,13H8c-0.552,0-1,0.448-1,1c0,0.552,0.448,1,1,1h7c0.552,0,1-0.448,1-1C16,13.448,15.552,13,15,13z"/>
</svg>
