<svg width="16" height="16" xmlns="http://www.w3.org/2000/svg" fill="context-fill" fill-opacity="context-fill-opacity">
<path d="M6,0H1C0.448,0,0,0.448,0,1v5c0,0.552,0.448,1,1,1h5c0.552,0,1-0.448,1-1V1C7,0.448,6.552,0,6,0z M5.8,5.8H1.2V1.2h4.6V5.8zM15,0h-5C9.448,0,9,0.448,9,1v5c0,0.552,0.448,1,1,1h5c0.552,0,1-0.448,1-1V1C16,0.448,15.552,0,15,0z M14.8,5.8h-4.6V1.2h4.6V5.8zM6,9H1c-0.552,0-1,0.448-1,1v5c0,0.552,0.448,1,1,1h5c0.552,0,1-0.448,1-1v-5C7,9.448,6.552,9,6,9z M5.8,14.8H1.2v-4.6h4.6V14.8zM15,9h-5c-0.552,0-1,0.448-1,1v5c0,0.552,0.448,1,1,1h5c0.552,0,1-0.448,1-1v-5C16,9.448,15.552,9,15,9z M14.8,14.8h-4.6v-4.6h4.6V14.8z"/>
</svg>
