<svg width="16" height="16" xmlns="http://www.w3.org/2000/svg">
	<path style="fill:#4F4F4F;" d="M8.005,0.152c-4.337,0-7.853,3.516-7.853,7.853c0,4.337,3.516,7.853,7.853,7.853
		c4.337,0,7.853-3.516,7.853-7.853C15.858,3.668,12.342,0.152,8.005,0.152z M8.005,15.297c-4.027,0-7.292-3.265-7.292-7.292
		s3.265-7.292,7.292-7.292c4.027,0,7.292,3.265,7.292,7.292S12.032,15.297,8.005,15.297z"/>
	<path style="fill:#545454;" d="M8.005,0.713c-4.027,0-7.292,3.265-7.292,7.292s3.265,7.292,7.292,7.292
		c4.027,0,7.292-3.265,7.292-7.292S12.032,0.713,8.005,0.713z"/>
</svg>