<svg width="12" height="12" xmlns="http://www.w3.org/2000/svg">
<path style="fill:#A12B25;" d="M6.005,0.005c-3.313,0-6,2.687-6,6s2.687,6,6,6s6-2.687,6-6S9.318,0.005,6.005,0.005z M6.005,11.505
	c-3.037,0-5.5-2.463-5.5-5.5s2.463-5.5,5.5-5.5s5.5,2.463,5.5,5.5S9.042,11.505,6.005,11.505z"/>
<path style="fill:#C04741;" d="M6.005,0.505c-3.037,0-5.5,2.463-5.5,5.5s2.463,5.5,5.5,5.5s5.5-2.463,5.5-5.5
	S9.042,0.505,6.005,0.505z"/>
<path style="fill:#3F0606;" d="M8.398,3.612c-0.332-0.332-0.865-0.332-1.197,0L6.005,4.808L4.808,3.612
	c-0.332-0.332-0.865-0.332-1.197,0c-0.331,0.331-0.331,0.865,0,1.197l1.197,1.197L3.612,7.202c-0.331,0.332-0.331,0.865,0,1.197
	c0.332,0.332,0.865,0.332,1.197,0l1.197-1.197l1.197,1.197c0.332,0.332,0.865,0.332,1.197,0c0.331-0.331,0.331-0.865,0-1.197
	L7.202,6.005L8.4,4.808C8.731,4.477,8.731,3.943,8.398,3.612z"/>
</svg>
