<svg width="12" height="12" xmlns="http://www.w3.org/2000/svg">
<path style="fill:#FF8D85;" d="M6.005,0.005c-3.313,0-6,2.686-6,6s2.686,6,6,6s6-2.686,6-6S9.319,0.005,6.005,0.005z M8.429,7.218
	c0.335,0.335,0.335,0.876,0,1.212c-0.336,0.336-0.876,0.336-1.213,0L6.005,7.218L4.792,8.43c-0.336,0.336-0.876,0.336-1.213,0
	c-0.335-0.335-0.335-0.876,0-1.212l1.213-1.213L3.581,4.793c-0.335-0.335-0.335-0.876,0-1.213c0.336-0.336,0.876-0.336,1.213,0
	l1.213,1.213L7.219,3.58c0.336-0.336,0.876-0.336,1.213,0c0.335,0.335,0.335,0.876,0,1.213L7.218,6.005L8.429,7.218z"/>
<path style="fill:#7F0D0B;" d="M8.429,3.581c-0.336-0.336-0.876-0.336-1.213,0L6.005,4.793L4.792,3.581
	c-0.336-0.336-0.876-0.336-1.213,0c-0.335,0.335-0.335,0.876,0,1.213l1.213,1.213L3.581,7.218c-0.335,0.336-0.335,0.876,0,1.212
	c0.336,0.336,0.876,0.336,1.213,0l1.213-1.212L7.219,8.43c0.336,0.336,0.876,0.336,1.213,0c0.335-0.335,0.335-0.876,0-1.212
	L7.218,6.005L8.43,4.792C8.766,4.457,8.766,3.916,8.429,3.581z"/>
</svg>
