<svg width="12" height="12" xmlns="http://www.w3.org/2000/svg">
<path style="fill:#56F66E;" d="M6.005,0.005c-3.313,0-6,2.686-6,6s2.686,6,6,6s6-2.686,6-6S9.319,0.005,6.005,0.005z M3.433,4.291
	c0-0.356,0.501-0.857,0.857-0.857h3.073L3.433,7.364V4.291z M8.577,7.72c0,0.356-0.501,0.857-0.857,0.857H4.646l3.931-3.931V7.72z"
	/>
<path style="fill:#006A00;" d="M7.72,8.577c0.356,0,0.857-0.501,0.857-0.857V4.646L4.646,8.577H7.72z"/>
<path style="fill:#006A00;" d="M4.291,3.433c-0.356,0-0.857,0.501-0.857,0.857v3.073l3.931-3.931
	C7.364,3.433,4.291,3.433,4.291,3.433z"/>
</svg>
