<svg width="16" height="16" xmlns="http://www.w3.org/2000/svg">
	<path style="fill:#56F66E;" d="M8.005,0.152c-4.337,0-7.853,3.516-7.853,7.853c0,4.337,3.516,7.853,7.853,7.853
		c4.337,0,7.853-3.516,7.853-7.853C15.858,3.668,12.342,0.152,8.005,0.152z M4.639,5.761c0-0.466,0.656-1.122,1.122-1.122h4.023
		L4.639,9.784V5.761z M11.371,10.249c0,0.466-0.656,1.122-1.122,1.122H6.226l5.145-5.145V10.249z"/>
	<path style="fill:#006A00;" d="M10.249,11.371c0.466,0,1.122-0.656,1.122-1.122V6.226l-5.145,5.145H10.249z"/>
	<path style="fill:#006A00;" d="M5.761,4.639c-0.466,0-1.122,0.656-1.122,1.122v4.023l5.145-5.145H5.761z"/>
</svg>