<svg width="16" height="16" xmlns="http://www.w3.org/2000/svg">
	<path style="fill:#A06F0C;" d="M8.005,0.152c-4.337,0-7.853,3.516-7.853,7.853s3.516,7.853,7.853,7.853
		c4.337,0,7.853-3.516,7.853-7.853S12.342,0.152,8.005,0.152z M8.005,15.297c-4.027,0-7.292-3.265-7.292-7.292
		s3.265-7.292,7.292-7.292c4.027,0,7.292,3.265,7.292,7.292S12.032,15.297,8.005,15.297z"/>
	<path style="fill:#BE8D22;" d="M8.005,0.713c-4.027,0-7.292,3.265-7.292,7.292s3.265,7.292,7.292,7.292
		c4.027,0,7.292-3.265,7.292-7.292S12.032,0.713,8.005,0.713z"/>
	<path style="fill:#734209;" d="M11.371,6.881H4.639c-0.62,0-1.122,0.502-1.122,1.122c0,0.62,0.502,1.122,1.122,1.122h6.731
		c0.62,0,1.122-0.502,1.122-1.122C12.492,7.383,11.99,6.881,11.371,6.881z"/>
</svg>