<svg width="12" height="12" xmlns="http://www.w3.org/2000/svg">
<path style="fill:#A06F0C;" d="M6.005,0.005c-3.313,0-6,2.687-6,6s2.687,6,6,6s6-2.687,6-6S9.318,0.005,6.005,0.005z M6.005,11.505
	c-3.037,0-5.5-2.463-5.5-5.5s2.463-5.5,5.5-5.5s5.5,2.463,5.5,5.5S9.042,11.505,6.005,11.505z"/>
<path style="fill:#BE8D22;" d="M6.005,0.505c-3.037,0-5.5,2.463-5.5,5.5s2.463,5.5,5.5,5.5s5.5-2.463,5.5-5.5
	S9.042,0.505,6.005,0.505z"/>
<path style="fill:#734209;" d="M8.544,5.157H3.466c-0.468,0-0.846,0.378-0.846,0.846S2.998,6.85,3.466,6.85h5.077
	c0.468,0,0.846-0.378,0.846-0.846C9.39,5.536,9.011,5.157,8.544,5.157z"/>
</svg>
