<svg width="12" height="12" xmlns="http://www.w3.org/2000/svg">
<path style="fill:#FFEA5C;" d="M6.005,0.005c-3.313,0-6,2.686-6,6s2.686,6,6,6s6-2.686,6-6S9.319,0.005,6.005,0.005z M8.577,6.86
	H3.433c-0.474,0-0.857-0.383-0.857-0.857s0.383-0.857,0.857-0.857h5.143c0.474,0,0.857,0.383,0.857,0.857S9.05,6.86,8.577,6.86z"/>
<path style="fill:#988319;" d="M8.577,5.146H3.433c-0.474,0-0.857,0.383-0.857,0.857s0.383,0.857,0.857,0.857h5.143
	c0.474,0,0.857-0.383,0.857-0.857C9.433,5.53,9.05,5.146,8.577,5.146z"/>
</svg>
