<svg width="12" height="12" xmlns="http://www.w3.org/2000/svg">
<path style="fill:#56F66E;" d="M6.005,0.005c-3.313,0-6,2.686-6,6s2.686,6,6,6s6-2.686,6-6S9.319,0.005,6.005,0.005z M6.001,5.148
	c0,0.356-0.501,0.857-0.857,0.857H2.071l3.931-3.931V5.148z M6.009,9.935V6.862c0-0.356,0.501-0.857,0.857-0.857h3.073L6.009,9.935z
	"/>
<path style="fill:#006A00;" d="M5.144,6.006c0.356,0,0.857-0.501,0.857-0.857V2.075L2.071,6.006H5.144z"/>
<path style="fill:#006A00;" d="M6.009,6.862v3.074l3.931-3.931H6.866C6.51,6.004,6.009,6.505,6.009,6.862z"/>
</svg>
