<svg width="12" height="12" xmlns="http://www.w3.org/2000/svg">
<path style="fill:#06740D;" d="M6.005,0.005c-3.313,0-6,2.687-6,6s2.687,6,6,6s6-2.687,6-6S9.318,0.005,6.005,0.005z M6.005,11.505
	c-3.037,0-5.5-2.463-5.5-5.5s2.463-5.5,5.5-5.5s5.5,2.463,5.5,5.5S9.042,11.505,6.005,11.505z"/>
<path style="fill:#1E9730;" d="M6.005,0.505c-3.037,0-5.5,2.463-5.5,5.5s2.463,5.5,5.5,5.5s5.5-2.463,5.5-5.5
	S9.042,0.505,6.005,0.505z"/>
<path style="fill:#003000;" d="M5.155,6.006c0.352,0,0.846-0.495,0.846-0.846V2.125L2.121,6.006H5.155z"/>
<path style="fill:#003000;" d="M6.009,6.851v3.034l3.881-3.881H6.855C6.503,6.004,6.009,6.499,6.009,6.851z"/>
</svg>
