<svg width="16" height="16" xmlns="http://www.w3.org/2000/svg">
	<path style="fill:#56F66E;" d="M8.005,0.152c-4.337,0-7.853,3.516-7.853,7.853c0,4.337,3.516,7.853,7.853,7.853
		c4.337,0,7.853-3.516,7.853-7.853C15.858,3.668,12.342,0.152,8.005,0.152z M8,6.884C8,7.35,7.344,8.006,6.878,8.006H2.855L8,2.861
		V6.884z M8.01,13.149V9.126c0-0.466,0.656-1.122,1.122-1.122h4.023L8.01,13.149z"/>
	<path style="fill:#006A00;" d="M6.878,8.006C7.344,8.006,8,7.35,8,6.884V2.861L2.855,8.006H6.878z"/>
	<path style="fill:#006A00;" d="M8.01,9.126v4.023l5.145-5.145H9.132C8.666,8.004,8.01,8.66,8.01,9.126z"/>
</svg>