<svg width="16" height="16" xmlns="http://www.w3.org/2000/svg">
	<path style="fill:#0BA922;" d="M8.005,0.152c-4.337,0-7.853,3.516-7.853,7.853s3.516,7.853,7.853,7.853
		c4.337,0,7.853-3.516,7.853-7.853S12.342,0.152,8.005,0.152z M8.005,15.297c-4.027,0-7.292-3.265-7.292-7.292
		c0-4.027,3.265-7.292,7.292-7.292c4.027,0,7.292,3.265,7.292,7.292C15.297,12.032,12.032,15.297,8.005,15.297z"/>
	<path style="fill:#28C940;" d="M8.005,0.713c-4.027,0-7.292,3.265-7.292,7.292c0,4.027,3.265,7.292,7.292,7.292
		c4.027,0,7.292-3.265,7.292-7.292C15.297,3.978,12.032,0.713,8.005,0.713z M8,6.884C8,7.35,7.344,8.006,6.878,8.006H2.855L8,2.861
		V6.884z M8.01,13.149V9.126c0-0.466,0.656-1.122,1.122-1.122h4.023L8.01,13.149z"/>
	<path style="fill:#006200;" d="M6.878,8.006C7.344,8.006,8,7.35,8,6.884V2.861L2.855,8.006H6.878z"/>
	<path style="fill:#006200;" d="M8.01,9.126v4.023l5.145-5.145H9.132C8.666,8.005,8.01,8.66,8.01,9.126z"/>
</svg>