<?xml version="1.0" encoding="UTF-8" standalone="no"?>
<!DOCTYPE svg PUBLIC "-//W3C//DTD SVG 1.1//EN" "http://www.w3.org/Graphics/SVG/1.1/DTD/svg11.dtd">
<svg width="100%" height="100%" viewBox="0 0 192 192" version="1.1" xmlns="http://www.w3.org/2000/svg" xmlns:xlink="http://www.w3.org/1999/xlink" xml:space="preserve" xmlns:serif="http://www.serif.com/" style="fill-rule:evenodd;clip-rule:evenodd;stroke-linejoin:round;stroke-miterlimit:2;">
    <g>
        <path d="M172,96C172,54.3076 137.6924,20 96,20C54.3076,20 20,54.3076 20,96C20,137.6924 54.3076,172 96,172C137.6924,172 172,137.6924 172,96Z" style="fill:#d53;fill-rule:nonzero;"/>
        <path d="M161.4733,96C161.4666,60.0938 131.9186,30.5512 96.0124,30.5512C60.1016,30.5512 30.5514,60.1013 30.5514,96.0121C30.5514,131.923 60.1016,161.4731 96.0124,161.4731C113.367,161.4731 130.0285,154.5717 142.3001,142.3001C154.5932,130.038 161.4984,113.3632 161.4733,96ZM145.2441,46.7682C158.2949,59.821 165.6344,77.542 165.6344,96C165.6344,134.1976 134.2025,165.6296 96.0048,165.6296C57.8072,165.6296 26.3753,134.1976 26.3753,96C26.3753,57.8042 57.8042,26.3731 96,26.3704C114.4679,26.346 132.2028,33.6921 145.2441,46.7682Z" style="fill:#fff;fill-rule:nonzero;"/>
        <path d="M73.487,57.2949C52.3717,62.2181 60.1152,91.7448 60.1152,91.7448L73.487,157.181L78.4349,159.2962L73.487,57.2578L73.487,57.2949ZM68.5391,44.6283L62.9232,44.6283L70.7161,47.4486C70.7161,47.4486 62.9727,47.4486 62.9727,52.3965C79.8203,51.6667 87.5514,55.8724 87.5514,55.8724L68.5514,44.6159L68.5391,44.6283Z" style="fill:#ddd;fill-rule:nonzero;"/>
        <path d="M113.5898,162.8464C113.5898,162.8464 96.6927,136.1152 96.6927,118.513C96.6927,85.4486 118.5007,113.5651 118.5007,87.5885C118.5007,61.612 96.6927,55.1797 96.6927,55.1797C86.1413,41.8203 65.7682,44.6283 65.7682,44.6283L70.7161,47.4486C70.7161,47.4486 65.7682,48.8464 64.3828,50.2565C62.9974,51.6667 77.7546,48.1536 84.0879,53.7819C58,55.8724 62.2181,77 62.2181,77L77,161.4486L113.5898,162.8464Z" style="fill:#fff;fill-rule:nonzero;"/>
        <path d="M113.5898,95.2949L140.3333,88.2565C164.2565,91.7448 119.9232,105.1536 117.1152,104.4486C96,100.9232 102.2715,118.513 127.6667,112.8848C153.0618,107.2565 134,126.9616 110.7819,119.2181C77.7051,110.0768 95.2949,93.8848 113.5898,95.2949Z" style="fill:#fc0;fill-rule:nonzero;"/>
        <path d="M106.5885,150.8848L107.9987,148.7819C123.4857,154.4102 124.1908,156.513 123.4857,142.4486C122.7806,128.3841 123.4857,128.3717 107.2936,140.3333C107.2936,136.8203 98.1523,138.2181 96.7422,140.3333C81.9603,134 80.5501,131.8848 81.2552,141.7435C82.6654,162.1536 81.9603,158.6283 96.0371,151.6393L106.5885,150.9342L106.5885,150.8848Z" style="fill:#6b5;fill-rule:nonzero;"/>
        <path d="M95.2949,143.1536L95.2949,151.5898C96,153 107.2565,153 107.2565,150.1797C107.2565,147.3594 101.6283,152.2949 98.1152,150.8848C94.6022,149.4746 96.6927,141.7435 96.6927,141.7435L95.2826,143.1536L95.2949,143.1536Z" style="fill:#4a4;fill-rule:nonzero;"/>
        <path d="M79.8203,73.487C76.2949,69.2565 67.1536,72.7819 69.2565,78.4349C69.9616,75.6146 74.8848,71.3965 79.8203,73.487ZM102.3333,73.487C103.0384,69.2565 110.0768,68.5391 112.2292,72.7819C109.0465,71.229 105.2637,71.4985 102.3333,73.487ZM79.1152,84.7435C79.2755,84.1229 79.8396,83.6859 80.4806,83.6859C81.2542,83.6859 81.8908,84.3224 81.8908,85.096C81.8908,85.8696 81.2542,86.5062 80.4806,86.5062C79.8396,86.5062 79.2755,86.0692 79.1152,85.4486L79.1152,84.7435ZM73.487,87.5514C73.6709,90.1264 75.8408,92.1468 78.4223,92.1468C81.1367,92.1468 83.3702,89.9132 83.3702,87.1989C83.3702,84.4845 81.1367,82.251 78.4223,82.251C75.8408,82.251 73.6709,84.2714 73.487,86.8464L73.487,87.5514ZM110.0768,82.6035C110.2371,81.9829 110.8012,81.5459 111.4422,81.5459C112.2158,81.5459 112.8524,82.1825 112.8524,82.9561C112.8524,83.7296 112.2158,84.3662 111.4422,84.3662C110.8012,84.3662 110.2371,83.9292 110.0768,83.3086L110.0768,82.6035ZM105.8464,85.4486C106.0287,87.629 107.8741,89.3265 110.0621,89.3265C112.3829,89.3265 114.2926,87.4168 114.2926,85.096C114.2926,82.7753 112.3829,80.8656 110.0621,80.8656C107.8741,80.8656 106.0287,82.5631 105.8464,84.7435L105.8464,85.4486Z" style="fill:#148;fill-rule:nonzero;"/>
    </g>
</svg>
