<?xml version="1.0" encoding="UTF-8" standalone="no"?>
<!DOCTYPE svg PUBLIC "-//W3C//DTD SVG 1.1//EN" "http://www.w3.org/Graphics/SVG/1.1/DTD/svg11.dtd">
<svg width="100%" height="100%" viewBox="0 0 192 192" version="1.1" xmlns="http://www.w3.org/2000/svg" xmlns:xlink="http://www.w3.org/1999/xlink" xml:space="preserve" xmlns:serif="http://www.serif.com/" style="fill-rule:evenodd;clip-rule:evenodd;stroke-linejoin:round;stroke-miterlimit:2;">
    <g>
        <path d="M95.8679,93.3918C95.8679,81.5764 105.449,72.0009 117.2616,72.0009L120.356,72.0009C120.4403,72.0037 120.5331,71.9981 120.6202,71.9981C133.8746,71.9981 144.6221,82.7484 144.6221,96C144.6221,109.2516 133.8746,119.9991 120.6202,119.9991C120.5331,119.9991 120.4403,119.9963 120.3532,119.9963L117.2616,119.9991C105.449,119.9991 95.8679,110.418 95.8679,98.6054L95.8679,93.3918Z" style="fill:#00b6ff;fill-rule:nonzero;"/>
        <path d="M47.3779,144.0037C47.3779,130.7493 58.1254,119.9991 71.3798,119.9991L95.8679,120.0019L95.8679,143.7564C95.8679,157.1486 84.89,168 71.4979,168C58.2462,168 47.3779,157.2554 47.3779,144.0037Z" style="fill:#24cb71;fill-rule:nonzero;"/>
        <path d="M95.8679,24.0028L95.8679,72.0009L120.356,72.0009C120.4403,71.9981 120.5331,72.0037 120.6202,72.0037C133.8746,72.0037 144.6221,61.2535 144.6221,48.0019C144.6221,34.7474 133.8746,24 120.6202,24C120.5331,24 120.4403,24.0028 120.3532,24.0028L95.8679,24.0028Z" style="fill:#ff7237;fill-rule:nonzero;"/>
        <path d="M47.3779,47.9991C47.3779,61.2535 58.1254,72.0009 71.3798,72.0009L95.8679,72.0009L95.8679,24.0028L71.377,24.0028C58.1254,24.0028 47.3779,34.7474 47.3779,47.9991Z" style="fill:#ff3737;fill-rule:nonzero;"/>
        <path d="M47.3779,96C47.3779,109.2544 58.1254,120.0019 71.3798,120.0019L95.8679,120.0019L95.8679,72.0037L71.377,72.0037C58.1254,72.0037 47.3779,82.7484 47.3779,96Z" style="fill:#874fff;fill-rule:nonzero;"/>
    </g>
</svg>
