<?xml version="1.0" encoding="UTF-8" standalone="no"?>
<!DOCTYPE svg PUBLIC "-//W3C//DTD SVG 1.1//EN" "http://www.w3.org/Graphics/SVG/1.1/DTD/svg11.dtd">
<svg width="100%" height="100%" viewBox="0 0 192 192" version="1.1" xmlns="http://www.w3.org/2000/svg" xmlns:xlink="http://www.w3.org/1999/xlink" xml:space="preserve" xmlns:serif="http://www.serif.com/" style="fill-rule:evenodd;clip-rule:evenodd;stroke-linejoin:round;stroke-miterlimit:2;">
    <rect x="0" y="0" width="192" height="192" style="fill:#fff;"/>
    <path d="M96.0645,19.2998C52.8969,19.2998 18,54.4539 18,97.9442C18,132.7086 40.3597,162.1358 71.3783,172.5509C75.2566,173.3338 76.6769,170.8589 76.6769,168.7767C76.6769,166.9536 76.5492,160.704 76.5492,154.1925C54.8336,158.8809 50.3115,144.8176 50.3115,144.8176C46.8217,135.7031 41.6506,133.3605 41.6506,133.3605C34.5431,128.5427 42.1684,128.5427 42.1684,128.5427C50.0526,129.0637 54.1895,136.6153 54.1895,136.6153C61.1676,148.5935 72.4121,145.209 76.9359,143.1253C77.5814,138.0472 79.6507,134.5318 81.8478,132.5791C64.528,130.756 46.3054,123.9855 46.3054,93.777C46.3054,85.1832 49.4053,78.1526 54.3174,72.6844C53.5424,70.7318 50.8276,62.6575 55.094,51.8507C55.094,51.8507 61.6853,49.7672 76.5475,59.9235C82.9105,58.202 89.4727,57.3262 96.0645,57.319C102.6561,57.319 109.3752,58.2314 115.58,59.9235C130.4436,49.7672 137.0352,51.8507 137.0352,51.8507C141.3016,62.6575 138.5851,70.7318 137.8101,72.6844C142.8515,78.1526 145.8237,85.1832 145.8237,93.777C145.8237,123.9855 127.6011,130.6248 110.1517,132.5791C112.9961,135.0527 115.4505,139.7395 115.4505,147.1616C115.4505,157.7079 115.3225,166.172 115.3225,168.7752C115.3225,170.8589 116.7447,173.3338 120.6213,172.5526C151.6401,162.1342 173.9997,132.7086 173.9997,97.9442C174.1275,54.4539 139.1029,19.2998 96.0645,19.2998Z" style="fill:#24292f;"/>
</svg>
