<?xml version="1.0" encoding="UTF-8" standalone="no"?>
<!DOCTYPE svg PUBLIC "-//W3C//DTD SVG 1.1//EN" "http://www.w3.org/Graphics/SVG/1.1/DTD/svg11.dtd">
<svg width="100%" height="100%" viewBox="0 0 192 192" version="1.1" xmlns="http://www.w3.org/2000/svg" xmlns:xlink="http://www.w3.org/1999/xlink" xml:space="preserve" xmlns:serif="http://www.serif.com/" style="fill-rule:evenodd;clip-rule:evenodd;stroke-linejoin:round;stroke-miterlimit:2;">
    <g>
        <path d="M140.9119,118.1748C140.8972,120.2906 139.1514,122.023 137.0355,122.0213L54.9785,122.0213C52.857,122.0312 51.1019,120.2963 51.0872,118.1748L51.0872,37.6714C51.11,35.5525 52.8595,33.8218 54.9785,33.8219L137.0355,33.8219C139.1525,33.8202 140.8988,35.5544 140.9119,37.6714L140.9119,118.1748Z" style="fill:#0c9d58;fill-rule:nonzero;"/>
        <path d="M140.9119,54.518L110.1581,50.5578L140.9119,58.8105L140.9119,54.518Z" style="fill:#004d40;fill-opacity:0.2;fill-rule:nonzero;"/>
        <path d="M97.4902,38.0126L50.9195,58.8135L102.4053,40.078L102.4053,40.0272C101.5073,38.0875 99.2952,37.1835 97.5052,38.0186L97.4902,38.0126Z" style="fill:#004d40;fill-opacity:0.2;fill-rule:nonzero;"/>
        <path d="M137.0355,33.8219L54.9785,33.8219C52.8595,33.8218 51.11,35.5525 51.0872,37.6714L51.0872,38.5335C51.11,36.4146 52.8595,34.6839 54.9785,34.684L137.0355,34.684C139.1525,34.6823 140.8988,36.4165 140.9119,38.5335L140.9119,37.6714C140.8988,35.5544 139.1525,33.8202 137.0355,33.8219Z" style="fill:#fff;fill-opacity:0.2;fill-rule:nonzero;"/>
        <path d="M71.017,115.6993C70.4602,117.7677 71.5677,119.89 73.4745,120.3869L149.4759,140.8256C151.3827,141.3374 153.3972,140.0623 153.951,137.9968L171.8543,71.1791C172.4081,69.1106 171.3005,66.9884 169.3937,66.4915L93.3923,46.0498C91.4856,45.5409 89.471,46.8131 88.9203,48.8815L71.017,115.6993Z" style="fill:#ea4335;fill-rule:nonzero;"/>
        <path d="M154.7293,95.0272L158.7254,119.3123L154.7293,134.2372L154.7293,95.0272Z" style="fill:#3e2723;fill-opacity:0.2;fill-rule:nonzero;"/>
        <path d="M110.5173,51.5486L114.1004,52.5125L116.3215,67.5002L110.5173,51.5486Z" style="fill:#3e2723;fill-opacity:0.2;fill-rule:nonzero;"/>
        <path d="M169.3848,66.4915L93.3953,46.0498C91.4886,45.5409 89.474,46.8131 88.9232,48.8815L71.017,115.6993C70.987,115.8131 70.981,115.9238 70.9601,116.0376L88.7287,49.7227C89.2854,47.6572 91.297,46.3821 93.2038,46.8939L169.2052,67.3476C171.0012,67.8295 172.0758,69.7422 171.7226,71.6999L171.8573,71.194C172.4111,69.1256 171.3035,67.0033 169.3967,66.5064L169.3848,66.4915Z" style="fill:#fff;fill-opacity:0.2;fill-rule:nonzero;"/>
        <path d="M130.8722,107.4586C131.6026,109.4701 130.6836,111.6672 128.8307,112.3437L48.6326,141.544C46.7767,142.2175 44.6604,141.1249 43.93,139.1134L20.2675,74.1096C19.5372,72.098 20.4561,69.9009 22.309,69.2274L102.5101,40.0361C104.366,39.3626 106.4793,40.4552 107.2127,42.4667L130.8722,107.4586Z" style="fill:#ffc107;fill-rule:nonzero;"/>
        <path d="M20.5729,74.9297C19.8425,72.9182 20.7614,70.7211 22.6143,70.0446L102.8124,40.8533C104.6474,40.1858 106.7337,41.2514 107.4881,43.2211L107.2127,42.4638C106.4793,40.4522 104.363,39.3596 102.5101,40.0361L22.309,69.2274C20.4531,69.9009 19.5342,72.098 20.2675,74.1096L43.93,139.1134C43.9388,139.1349 43.9488,139.1559 43.96,139.1762L20.5729,74.9297Z" style="fill:#fff;fill-opacity:0.2;fill-rule:nonzero;"/>
        <path d="M154.7173,154.2867C154.7173,156.4215 152.9607,158.1781 150.8259,158.1781L41.1732,158.1781C39.0384,158.1781 37.2818,156.4215 37.2818,154.2867L37.2818,71.3856C37.2818,69.2509 39.0384,67.4942 41.1732,67.4942L150.8439,67.4942C152.9786,67.4942 154.7353,69.2509 154.7353,71.3856L154.7173,154.2867Z" style="fill:#4285f4;fill-rule:nonzero;"/>
        <path d="M133.7877,100.3164C133.7877,100.3164 100.9715,100.3164 100.9715,100.3164L100.9715,91.6806L133.7877,91.6806C134.7352,91.6806 135.5149,92.4603 135.5149,93.4078L135.5149,98.5863C135.5149,98.5873 135.5149,98.5883 135.5149,98.5893C135.5149,99.5368 134.7352,100.3164 133.7877,100.3164ZM133.7877,133.1296L100.9715,133.1296L100.9715,124.4938L133.7877,124.4938C134.7352,124.4938 135.5149,125.2735 135.5149,126.221L135.5149,131.4055C135.5133,132.3518 134.7341,133.1296 133.7877,133.1296ZM138.9692,116.72L100.9715,116.72L100.9715,108.0842L138.9692,108.0842C139.9161,108.0858 140.6948,108.8645 140.6964,109.8114L140.6964,114.9929C140.6964,115.9404 139.9167,116.72 138.9692,116.72Z" style="fill:#fff;fill-rule:nonzero;"/>
        <path d="M150.8439,157.31L41.1732,157.31C39.0384,157.31 37.2818,155.5534 37.2818,153.4186L37.2818,154.2837C37.2818,156.4185 39.0384,158.1751 41.1732,158.1751L150.8439,158.1751C152.9786,158.1751 154.7353,156.4185 154.7353,154.2837L154.7353,153.4186C154.7353,155.5534 152.9786,157.31 150.8439,157.31Z" style="fill:#1a237e;fill-opacity:0.2;fill-rule:nonzero;"/>
        <path d="M41.1732,68.3623L150.8439,68.3623C152.9786,68.3623 154.7353,70.1189 154.7353,72.2537L154.7353,71.3886C154.7353,69.2539 152.9786,67.4972 150.8439,67.4972L41.1732,67.4972C39.0384,67.4972 37.2818,69.2539 37.2818,71.3886L37.2818,72.2537C37.2818,70.1189 39.0384,68.3623 41.1732,68.3623Z" style="fill:#fff;fill-opacity:0.2;fill-rule:nonzero;"/>
        <path d="M71.6126,108.9553L71.6126,116.738L82.7869,116.738C81.8649,121.4825 77.6981,124.9218 71.6126,124.9218C64.8297,124.9218 59.3399,119.1836 59.3399,112.4006C59.3399,105.6177 64.8417,99.8794 71.6126,99.8794C74.5668,99.8313 77.4243,100.9481 79.563,102.9865L85.4779,97.0716C81.7265,93.5521 76.7532,91.6199 71.6096,91.6836C71.5266,91.6826 71.4436,91.6821 71.3606,91.6821C59.9906,91.6821 50.6345,101.0381 50.6345,112.4081C50.6345,123.7781 59.9906,133.1341 71.3606,133.1341C71.4436,133.1341 71.5266,133.1336 71.6096,133.1326C83.5831,133.1326 91.4526,124.7183 91.4526,112.8796C91.4477,111.5649 91.3386,110.2527 91.1264,108.9553L71.6126,108.9553Z" style="fill:#fff;fill-rule:nonzero;"/>
        <path d="M71.8282,116.738L71.8282,117.6001L82.7958,117.6001C82.8777,117.3167 82.9465,117.0294 83.0024,116.738L71.8282,116.738Z" style="fill:#1a237e;fill-rule:nonzero;"/>
        <path d="M71.8282,133.1296C60.6226,133.1288 51.344,124.0379 51.1141,112.8347L51.1141,113.2657C51.1141,124.6357 60.4702,133.9917 71.8401,133.9917C83.8136,133.9917 91.6831,125.5774 91.6831,113.7387L91.6831,113.4603C91.4017,124.9907 83.6011,133.1296 71.8282,133.1296ZM79.7785,102.9895C77.6391,100.9522 74.7821,99.8356 71.8282,99.8824C65.0452,99.8824 59.5554,105.6207 59.5554,112.4036C59.5554,112.5503 59.5554,112.703 59.5763,112.8347C59.8068,106.2493 65.2009,100.7445 71.8491,100.7445C74.7985,100.704 77.6484,101.8261 79.7785,103.8666L86.1245,97.5206C85.9748,97.3829 85.8251,97.2602 85.6575,97.1255L79.7815,103.0045L79.7785,102.9895Z" style="fill:#1a237e;fill-rule:nonzero;"/>
        <path d="M135.5149,99.4513L135.5149,98.5863C135.5149,99.5338 134.7352,100.3134 133.7877,100.3134L100.9715,100.3134L100.9715,101.1725L133.7877,101.1725C133.7897,101.1725 133.7917,101.1725 133.7937,101.1725C134.7379,101.1725 135.5149,100.3956 135.5149,99.4514C135.5149,99.4504 135.5149,99.4494 135.5149,99.4484L135.5149,99.4513ZM133.7877,133.1296L100.9715,133.1296L100.9715,133.9917L133.7877,133.9917C134.7352,133.9917 135.5149,133.2121 135.5149,132.2646L135.5149,131.4055C135.5133,132.3518 134.7341,133.1296 133.7877,133.1296ZM138.9692,116.72L100.9715,116.72L100.9715,117.5851L138.9692,117.5851C139.9167,117.5851 140.6964,116.8054 140.6964,115.858L140.6964,114.9959C140.6948,115.9422 139.9156,116.72 138.9692,116.72Z" style="fill:#1a237e;fill-opacity:0.2;fill-rule:nonzero;"/>
        <path d="M169.3848,66.4915L140.9119,58.8314L140.9119,37.6714C140.8988,35.5544 139.1525,33.8202 137.0355,33.8219L54.9785,33.8219C52.8595,33.8218 51.11,35.5525 51.0872,37.6714L51.0872,58.7476L22.294,69.2244C20.4382,69.8979 19.5192,72.095 20.2526,74.1066L37.2878,120.8688L37.2878,154.2867C37.2878,156.4215 39.0444,158.1781 41.1792,158.1781L150.8439,158.1781C152.9786,158.1781 154.7353,156.4215 154.7353,154.2867L154.7353,135.1023L171.8573,71.1791C172.4111,69.1106 171.3035,66.9884 169.3967,66.4915L169.3848,66.4915Z" style="fill:url(#_Radial1);fill-rule:nonzero;"/>
    </g>
    <defs>
        <radialGradient id="_Radial1" cx="0" cy="0" r="1" gradientUnits="userSpaceOnUse" gradientTransform="matrix(147.803146,0,0,-147.803146,54.269114,43.89458)"><stop offset="0" style="stop-color:#fff;stop-opacity:0.1"/><stop offset="1" style="stop-color:#fff;stop-opacity:0"/></radialGradient>
    </defs>
</svg>
