<?xml version="1.0" encoding="UTF-8" standalone="no"?>
<!DOCTYPE svg PUBLIC "-//W3C//DTD SVG 1.1//EN" "http://www.w3.org/Graphics/SVG/1.1/DTD/svg11.dtd">
<svg width="100%" height="100%" viewBox="0 0 192 192" version="1.1" xmlns="http://www.w3.org/2000/svg" xmlns:xlink="http://www.w3.org/1999/xlink" xml:space="preserve" xmlns:serif="http://www.serif.com/" style="fill-rule:evenodd;clip-rule:evenodd;stroke-linejoin:round;stroke-miterlimit:2;">
    <rect x="0" y="0" width="192" height="192"/>
    <path d="M78.9316,116.4345L150.3645,44.5922L150.3645,44.6596L170.997,24C170.6282,24.5268 170.2546,25.0397 169.8854,25.5526C154.2076,47.1705 146.5529,57.7412 152.6954,84.192L152.6594,84.1517C156.8941,102.156 152.3625,122.1228 137.7332,136.7701C119.2874,155.2517 89.7721,159.3646 65.4673,142.7281L82.4148,134.8755C97.9258,140.9732 114.8999,138.2959 127.095,126.0829C139.2945,113.8698 142.0349,96.0854 135.9016,81.2809C134.7362,78.477 131.2439,77.7706 128.8005,79.5794L78.9316,116.4345ZM68.6399,125.3896L68.6268,125.4031L21.003,168C24.0224,163.8376 27.7709,159.9003 31.5106,155.9669C42.0586,144.8702 52.5255,133.8721 46.14,118.3292C37.59,97.5302 42.567,73.158 58.4025,57.3045C74.8634,40.8393 99.1048,36.6856 119.3505,45.0284C123.8326,46.6935 127.7384,49.0651 130.7805,51.2703L113.8742,59.0866C98.1329,52.476 80.0971,56.9717 69.0902,67.9922C54.2038,82.8825 51.1936,108.7036 68.6399,125.3896Z" style="fill:#fff;"/>
</svg>
