<!-- Generator: Adobe Illustrator 25.4.1, SVG Export Plug-In . SVG Version: 6.00 Build 0)  -->
<svg version="1.1" xmlns="http://www.w3.org/2000/svg" xmlns:xlink="http://www.w3.org/1999/xlink" x="0px" y="0px"
	 viewBox="0 0 64.002 64" style="enable-background:new 0 0 64.002 64;" xml:space="preserve">
<radialGradient id="SVGID_1_" cx="-131.6872" cy="-402.7264" r="31.994" gradientTransform="matrix(0 -1.982 -1.8439 0 -725.5753 -192.0877)" gradientUnits="userSpaceOnUse">
	<stop  offset="0" style="stop-color:#FFDD55"/>
	<stop  offset="0.1" style="stop-color:#FFDD55"/>
	<stop  offset="0.5" style="stop-color:#FF543E"/>
	<stop  offset="1" style="stop-color:#C837AB"/>
</radialGradient>
<path style="fill:url(#SVGID_1_);" d="M32.022,0.003c-13.36,0-17.267,0.014-18.026,0.077C11.254,0.308,9.548,0.74,7.69,1.665
	C6.257,2.376,5.128,3.201,4.013,4.356c-2.03,2.108-3.261,4.701-3.706,7.783c-0.217,1.496-0.28,1.802-0.292,9.445
	c-0.005,2.548,0,5.901,0,10.398c0,13.349,0.015,17.252,0.079,18.01c0.221,2.668,0.64,4.346,1.526,6.182
	c1.693,3.514,4.927,6.153,8.737,7.137c1.319,0.34,2.776,0.527,4.647,0.615c0.792,0.034,8.87,0.059,16.952,0.059
	s16.164-0.01,16.937-0.049c2.166-0.102,3.423-0.271,4.814-0.63c3.834-0.989,7.009-3.588,8.737-7.152
	c0.869-1.792,1.309-3.534,1.509-6.063c0.043-0.551,0.062-9.341,0.062-18.118c0-8.779-0.02-17.552-0.063-18.104
	c-0.202-2.569-0.642-4.297-1.539-6.123c-0.736-1.495-1.553-2.611-2.739-3.753c-2.117-2.022-4.706-3.253-7.791-3.698
	c-1.495-0.216-1.793-0.28-9.442-0.293H32.022z"/>
<radialGradient id="SVGID_00000083076106440598544840000013173943281902563763_" cx="214.8114" cy="-140.8564" r="31.994" gradientTransform="matrix(0.1739 0.8687 3.5818 -0.7172 456.4467 -283.0179)" gradientUnits="userSpaceOnUse">
	<stop  offset="0" style="stop-color:#3771C8"/>
	<stop  offset="0.128" style="stop-color:#3771C8"/>
	<stop  offset="1" style="stop-color:#6600FF;stop-opacity:0"/>
</radialGradient>
<path style="fill:url(#SVGID_00000083076106440598544840000013173943281902563763_);" d="M32.022,0.003
	c-13.36,0-17.267,0.014-18.026,0.077C11.254,0.308,9.548,0.74,7.69,1.665C6.257,2.376,5.128,3.201,4.013,4.356
	c-2.03,2.108-3.261,4.701-3.706,7.783c-0.217,1.496-0.28,1.802-0.292,9.445c-0.005,2.548,0,5.901,0,10.398
	c0,13.349,0.015,17.252,0.079,18.01c0.221,2.668,0.64,4.346,1.526,6.182c1.693,3.514,4.927,6.153,8.737,7.137
	c1.319,0.34,2.776,0.527,4.647,0.615c0.792,0.034,8.87,0.059,16.952,0.059s16.164-0.01,16.937-0.049
	c2.166-0.102,3.423-0.271,4.814-0.63c3.834-0.989,7.009-3.588,8.737-7.152c0.869-1.792,1.309-3.534,1.509-6.063
	c0.043-0.551,0.062-9.341,0.062-18.118c0-8.779-0.02-17.552-0.063-18.104c-0.202-2.569-0.642-4.297-1.539-6.123
	c-0.736-1.495-1.553-2.611-2.739-3.753c-2.117-2.022-4.706-3.253-7.791-3.698c-1.495-0.216-1.793-0.28-9.442-0.293H32.022z"/>
<path style="fill:#FFFFFF;" d="M32.007,8.371c-6.417,0-7.222,0.028-9.742,0.143c-2.515,0.115-4.232,0.513-5.734,1.098
	c-1.554,0.603-2.872,1.411-4.185,2.724c-1.314,1.313-2.121,2.631-2.727,4.185c-0.586,1.503-0.984,3.22-1.098,5.734
	c-0.113,2.52-0.142,3.326-0.142,9.742s0.029,7.219,0.143,9.739c0.116,2.515,0.514,4.232,1.098,5.734
	c0.604,1.554,1.411,2.872,2.725,4.185c1.313,1.314,2.631,2.123,4.184,2.727c1.503,0.584,3.221,0.982,5.735,1.098
	c2.52,0.115,3.325,0.143,9.741,0.143c6.417,0,7.22-0.028,9.74-0.143c2.515-0.115,4.234-0.513,5.737-1.098
	c1.553-0.603,2.87-1.413,4.182-2.727c1.314-1.313,2.121-2.631,2.727-4.185c0.581-1.503,0.98-3.22,1.098-5.734
	c0.113-2.52,0.143-3.323,0.143-9.74s-0.03-7.222-0.143-9.742c-0.118-2.515-0.517-4.232-1.098-5.734
	c-0.605-1.554-1.413-2.872-2.727-4.185c-1.314-1.314-2.628-2.121-4.184-2.724c-1.506-0.584-3.224-0.982-5.739-1.098
	C39.221,8.399,38.419,8.371,32,8.371L32.007,8.371z M29.888,12.629c0.629-0.001,1.331,0,2.119,0c6.308,0,7.056,0.023,9.547,0.136
	c2.304,0.105,3.554,0.49,4.387,0.814c1.103,0.428,1.889,0.94,2.715,1.767c0.827,0.827,1.339,1.614,1.768,2.717
	c0.323,0.832,0.709,2.082,0.814,4.386c0.113,2.491,0.138,3.239,0.138,9.544s-0.025,7.053-0.138,9.544
	c-0.105,2.304-0.49,3.554-0.814,4.386c-0.428,1.103-0.941,1.888-1.768,2.714c-0.827,0.827-1.612,1.339-2.715,1.767
	c-0.832,0.325-2.083,0.709-4.387,0.814c-2.491,0.113-3.239,0.138-9.547,0.138c-6.309,0-7.056-0.025-9.547-0.138
	c-2.304-0.106-3.554-0.491-4.387-0.815c-1.103-0.428-1.89-0.94-2.717-1.767s-1.339-1.612-1.768-2.716
	c-0.323-0.832-0.709-2.082-0.814-4.386c-0.113-2.491-0.136-3.239-0.136-9.548s0.023-7.053,0.136-9.544
	c0.105-2.304,0.49-3.554,0.814-4.387c0.428-1.103,0.941-1.89,1.768-2.717c0.827-0.827,1.614-1.339,2.717-1.768
	c0.833-0.325,2.084-0.709,4.387-0.815c2.18-0.098,3.024-0.128,7.428-0.133L29.888,12.629z M44.619,16.551
	c-1.565,0-2.835,1.268-2.835,2.834c0,1.565,1.27,2.835,2.835,2.835c1.565,0,2.835-1.27,2.835-2.835S46.184,16.551,44.619,16.551
	L44.619,16.551z M32.007,19.864c-6.701,0-12.133,5.433-12.133,12.133s5.433,12.131,12.133,12.131c6.701,0,12.131-5.43,12.131-12.131
	S38.707,19.864,32.007,19.864L32.007,19.864z M32.007,24.122c4.349,0,7.875,3.526,7.875,7.875c0,4.349-3.526,7.875-7.875,7.875
	c-4.35,0-7.875-3.526-7.875-7.875C24.132,27.648,27.658,24.122,32.007,24.122z"/>
</svg>
