<?xml version="1.0" encoding="UTF-8" standalone="no"?>
<!DOCTYPE svg PUBLIC "-//W3C//DTD SVG 1.1//EN" "http://www.w3.org/Graphics/SVG/1.1/DTD/svg11.dtd">
<svg width="100%" height="100%" viewBox="0 0 192 192" version="1.1" xmlns="http://www.w3.org/2000/svg" xmlns:xlink="http://www.w3.org/1999/xlink" xml:space="preserve" xmlns:serif="http://www.serif.com/" style="fill-rule:evenodd;clip-rule:evenodd;stroke-linejoin:round;stroke-miterlimit:2;">
    <g>
        <rect x="0" y="0" width="192" height="192" style="fill:url(#_Radial1);"/>
        <rect x="0" y="0" width="192" height="192" style="fill:url(#_Radial2);"/>
        <path d="M95.987,25.1262C76.7375,25.1262 74.3217,25.2104 66.7613,25.5545C59.2156,25.9 54.0651,27.0946 49.5584,28.8474C44.8966,30.6577 40.9421,33.0794 37.0024,37.0206C33.0598,40.9603 30.6381,44.9148 28.8218,49.5751C27.0646,54.0832 25.8685,59.2353 25.5289,66.778C25.1908,74.3384 25.1022,76.7557 25.1022,96.0052C25.1022,115.2548 25.1878,117.6632 25.5304,125.2236C25.8774,132.7693 27.072,137.9198 28.8233,142.4265C30.6351,147.0883 33.0568,151.0427 36.998,154.9824C40.9362,158.9251 44.8907,161.3527 49.5495,163.163C54.0592,164.9158 59.2112,166.1104 66.7554,166.456C74.3158,166.8 76.7301,166.8842 95.9782,166.8842C115.2292,166.8842 117.6376,166.8 125.198,166.456C132.7437,166.1104 137.9001,164.9158 142.4098,163.163C147.0701,161.3527 151.0187,158.9251 154.9569,154.9824C158.8995,151.0427 161.3212,147.0883 163.1375,142.428C164.8799,137.9198 166.076,132.7678 166.4304,125.2251C166.77,117.6646 166.8586,115.2548 166.8586,96.0052C166.8586,76.7557 166.77,74.3399 166.4304,66.7794C166.076,59.2338 164.8799,54.0832 163.1375,49.5765C161.3212,44.9148 158.8995,40.9603 154.9569,37.0206C151.0142,33.078 147.0716,30.6563 142.4054,28.8474C137.8869,27.0946 132.7334,25.9 125.1877,25.5545C117.6273,25.2104 115.2203,25.1262 95.9649,25.1262L95.987,25.1262ZM89.6286,37.8992C91.5158,37.8963 93.6215,37.8992 95.987,37.8992C114.9117,37.8992 117.1548,37.9671 124.6281,38.3068C131.5388,38.6228 135.2894,39.7775 137.7879,40.7477C141.0956,42.0323 143.4538,43.5681 145.9331,46.0488C148.4139,48.5296 149.9496,50.8922 151.2372,54.1999C152.2074,56.6954 153.3636,60.4461 153.6781,67.3568C154.0177,74.8286 154.0916,77.0731 154.0916,95.989C154.0916,114.9048 154.0177,117.1493 153.6781,124.6211C153.3621,131.5318 152.2074,135.2825 151.2372,137.778C149.9525,141.0857 148.4139,143.441 145.9331,145.9203C143.4523,148.401 141.0971,149.9367 137.7879,151.2214C135.2924,152.196 131.5388,153.3478 124.6281,153.6638C117.1562,154.0034 114.9117,154.0772 95.987,154.0772C77.0609,154.0772 74.8178,154.0034 67.346,153.6638C60.4353,153.3448 56.6846,152.1901 54.1847,151.2199C50.877,149.9353 48.5144,148.3995 46.0336,145.9188C43.5528,143.438 42.0171,141.0813 40.7295,137.7721C39.7593,135.2766 38.6031,131.5259 38.2886,124.6152C37.949,117.1434 37.881,114.8989 37.881,95.9712C37.881,77.0436 37.949,74.8109 38.2886,67.3391C38.6046,60.4284 39.7593,56.6777 40.7295,54.1792C42.0142,50.8715 43.5528,48.5089 46.0336,46.0281C48.5144,43.5474 50.877,42.0117 54.1847,40.724C56.6832,39.7495 60.4353,38.5977 67.346,38.2802C73.8846,37.9849 76.4185,37.8963 89.6286,37.8815L89.6286,37.8992ZM133.8216,49.6681C129.1259,49.6681 125.3162,53.4734 125.3162,58.1706C125.3162,62.8663 129.1259,66.6761 133.8216,66.6761C138.5174,66.6761 142.3271,62.8663 142.3271,58.1706C142.3271,53.4749 138.5174,49.6651 133.8216,49.6651L133.8216,49.6681ZM95.987,59.6059C75.8855,59.6059 59.5877,75.9036 59.5877,96.0052C59.5877,116.1068 75.8855,132.3971 95.987,132.3971C116.0886,132.3971 132.3804,116.1068 132.3804,96.0052C132.3804,75.9036 116.0871,59.6059 95.9856,59.6059L95.987,59.6059ZM95.987,72.3789C109.0347,72.3789 119.6134,82.9561 119.6134,96.0052C119.6134,109.0529 109.0347,119.6315 95.987,119.6315C82.9379,119.6315 72.3607,109.0529 72.3607,96.0052C72.3607,82.9561 82.9379,72.3789 95.987,72.3789Z" style="fill:#fff;fill-rule:nonzero;"/>
    </g>
    <defs>
        <radialGradient id="_Radial1" cx="0" cy="0" r="1" gradientUnits="userSpaceOnUse" gradientTransform="matrix(0,-190.286241,176.981141,0,51.000227,206.78807)"><stop offset="0" style="stop-color:#fd5;stop-opacity:1"/><stop offset="0.1" style="stop-color:#fd5;stop-opacity:1"/><stop offset="0.5" style="stop-color:#ff543e;stop-opacity:1"/><stop offset="1" style="stop-color:#c837ab;stop-opacity:1"/></radialGradient>
        <radialGradient id="_Radial2" cx="0" cy="0" r="1" gradientUnits="userSpaceOnUse" gradientTransform="matrix(16.695103,83.404203,-343.788196,68.855128,-32.161039,13.831322)"><stop offset="0" style="stop-color:#3771c8;stop-opacity:1"/><stop offset="0.13" style="stop-color:#3771c8;stop-opacity:1"/><stop offset="1" style="stop-color:#60f;stop-opacity:0"/></radialGradient>
    </defs>
</svg>
