<?xml version="1.0" encoding="UTF-8" standalone="no"?>
<!DOCTYPE svg PUBLIC "-//W3C//DTD SVG 1.1//EN" "http://www.w3.org/Graphics/SVG/1.1/DTD/svg11.dtd">
<svg width="100%" height="100%" viewBox="0 0 192 192" version="1.1" xmlns="http://www.w3.org/2000/svg" xmlns:xlink="http://www.w3.org/1999/xlink" xml:space="preserve" xmlns:serif="http://www.serif.com/" style="fill-rule:evenodd;clip-rule:evenodd;stroke-linejoin:round;stroke-miterlimit:2;">
    <rect x="0" y="0" width="192" height="192" style="fill:#09cef6;"/>
    <path d="M71.1446,35.1268L45.6483,49.8985C31.6477,57.7974 31.7766,57.2844 31.7766,94.1446C31.7766,126.1269 31.8396,126.6399 36.4654,123.109C38.2624,121.825 38.3914,119.062 38.3914,94.7896C38.3914,94.7896 38.1994,67.3043 40.1254,64.3492C40.7044,60.8813 67.2269,46.1097 67.2269,46.1097C67.2269,46.1097 92.7863,31.3379 95.9961,31.3379C100.0431,31.3379 123.8686,45.4017 123.8686,45.4017C147.8861,59.2073 148.3991,59.5313 151.099,57.7313C151.099,57.7313 153.8589,55.4844 153.8589,54.9053C153.8589,54.3925 128.6206,39.2999 128.6206,39.2999C94.6493,19.5212 97.7331,19.7793 71.1446,35.1268ZM67.2929,124.7139L83.9244,124.7139L84.7585,100.3095L108.0709,124.1978L128.2995,124.1978L102.8689,95.2997L128.4285,67.0433L108.5209,67.0433L83.9244,92.0237L83.9244,67.0433L67.2269,67.0433L67.2269,124.7108L67.2929,124.7108L67.2929,124.7139ZM156.301,68.3931C153.7959,69.6771 153.7329,69.6771 153.7329,96.7125C153.7329,96.7125 154.312,123.4269 152.1279,127.4108C152.1279,127.4108 152.6409,130.1708 126.3105,144.9424C126.3105,144.9424 100.814,159.5191 99.1461,160.1611C95.0363,161.7032 93.8813,161.1902 67.0379,145.6475C44.1752,132.3547 43.9203,132.2887 41.1573,134.0887C41.1573,134.0887 37.9474,135.6937 39.5524,137.4936C40.5815,138.7776 80.7176,162.4741 89.1293,166.779C89.1293,166.779 91.8892,168 96.386,168C101.3961,168 105.5059,165.882 141.7902,144.5585C160.9927,133.3208 159.7718,136.2098 160.2218,98.3835C160.2218,98.3835 160.2848,67.1092 159.6427,67.1722L156.3039,68.4561L156.3039,68.3931L156.301,68.3931Z" style="fill:#fff;"/>
</svg>
