<?xml version="1.0" encoding="UTF-8" standalone="no"?>
<!DOCTYPE svg PUBLIC "-//W3C//DTD SVG 1.1//EN" "http://www.w3.org/Graphics/SVG/1.1/DTD/svg11.dtd">
<svg width="100%" height="100%" viewBox="0 0 192 192" version="1.1" xmlns="http://www.w3.org/2000/svg" xmlns:xlink="http://www.w3.org/1999/xlink" xml:space="preserve" xmlns:serif="http://www.serif.com/" style="fill-rule:evenodd;clip-rule:evenodd;stroke-linejoin:round;stroke-miterlimit:2;">
    <rect x="0" y="0" width="192" height="192" style="fill:#fff;"/>
    <path d="M152.5355,84.0233C153.6504,80.6735 154.219,77.1661 154.2195,73.6356C154.2192,67.7942 152.6628,62.0569 149.7112,57.016C143.78,46.6914 132.7771,40.3171 120.8687,40.3171C118.526,40.3171 116.1792,40.5645 113.889,41.0562C107.6513,34.0282 98.6912,30.0003 89.2944,30L89.0857,30C89.0643,30.0007 89.0317,30.0007 89.0074,30.0007C74.5845,30.0007 61.7943,39.3073 57.3602,53.0276C48.0754,54.9258 40.0602,60.7486 35.3739,68.9805C32.4315,74.052 30.8805,79.8119 30.8786,85.6752C30.8798,93.9133 33.9405,101.8644 39.4634,107.977C38.3482,111.3268 37.7795,114.8343 37.779,118.3647C37.7795,124.2061 39.3357,129.9433 42.287,134.9843C48.2178,145.3119 59.2218,151.6826 71.1313,151.6826C73.4761,151.6827 75.8143,151.435 78.107,150.9434C84.3456,157.9715 93.3063,161.9994 102.7038,162L102.9125,162L102.9973,161.9996C117.4281,161.9996 130.2144,152.6931 134.6485,138.9604C143.9333,137.0612 151.9485,131.2387 156.6348,123.0064C159.5741,117.9396 161.1221,112.1846 161.1214,106.327C161.1204,98.0889 158.0598,90.1377 152.5369,84.0251L152.5355,84.0233ZM102.9212,153.3703L102.8872,153.3703C97.1141,153.3685 91.5206,151.342 87.086,147.6456C87.3495,147.5038 87.6098,147.3563 87.8668,147.2032L114.1495,132.0217C115.4829,131.2626 116.3093,129.8418 116.3097,128.3075L116.3097,91.2288L127.4187,97.6433C127.5369,97.7024 127.618,97.8169 127.6347,97.9477L127.6347,128.6336C127.6195,142.276 116.5644,153.3431 102.9209,153.3703L102.9212,153.3703ZM49.7729,130.6713C47.6022,126.9177 46.4583,122.6577 46.4569,118.3216C46.4569,116.9071 46.5805,115.4894 46.8211,114.0959C47.0164,114.2129 47.3573,114.4209 47.6019,114.5615L73.8845,129.743C75.2172,130.5197 76.8702,130.5194 78.2027,129.7423L110.2908,111.2144L110.2908,124.0434C110.2981,124.1762 110.2385,124.3041 110.1321,124.384L83.5632,139.7242C79.8039,141.8876 75.5418,143.0272 71.2045,143.0286C62.3784,143.0272 54.1952,138.3082 49.7732,130.6698L49.7729,130.6713ZM42.8587,73.2943C45.7445,68.2814 50.3045,64.4406 55.7349,62.4486C55.7349,62.6751 55.7218,63.0758 55.7218,63.3544L55.7218,93.7172L55.7214,93.7426C55.7217,95.2753 56.5469,96.6948 57.8787,97.4534L89.9672,115.9789L78.8581,122.3934C78.7469,122.4667 78.606,122.4794 78.4835,122.4271L51.912,107.0738C44.2766,102.6508 39.5599,94.4691 39.5587,85.6451C39.5605,81.311 40.699,77.0522 42.8602,73.2954L42.8587,73.2943ZM134.1296,94.5339L102.0415,76.0059L113.1506,69.5939C113.2617,69.5205 113.4027,69.5077 113.5252,69.5599L140.0967,84.9002C147.7449,89.3186 152.4634,97.4893 152.4634,106.3248C152.4634,116.6886 145.9963,125.9622 136.2728,129.5416L136.2728,98.2705C136.2742,98.2589 136.2742,98.2469 136.2742,98.2357C136.2742,96.7071 135.455,95.294 134.1296,94.5339ZM145.1869,77.8925C144.9916,77.7726 144.6507,77.5672 144.4061,77.4266L118.1234,62.245C117.4682,61.8631 116.7232,61.6617 115.9647,61.6613C115.2068,61.6613 114.4611,61.8635 113.8064,62.245L81.7179,80.773L81.7179,67.9439L81.7175,67.9218C81.7175,67.7965 81.7767,67.6782 81.877,67.603L108.4459,52.2758C112.2038,50.1093 116.4662,48.9685 120.8039,48.9682C134.4648,48.9682 145.5434,60.0468 145.5434,73.7077C145.5426,75.1096 145.4233,76.5089 145.1869,77.8907L145.1869,77.8925ZM75.6784,100.7582L64.5668,94.3437C64.4485,94.2848 64.3673,94.1704 64.3508,94.0393L64.3508,63.3537C64.3566,49.6997 75.4353,38.6305 89.0904,38.6305C94.8723,38.6318 100.4751,40.6585 104.9198,44.3566C104.6566,44.499 104.3963,44.6466 104.139,44.7993L77.8563,59.9805C76.5231,60.7392 75.6968,62.1596 75.6965,63.6936L75.6965,63.7182L75.6784,100.7582ZM81.7128,87.7473L96.0045,79.4929L110.2959,87.7418L110.2959,104.2455L96.0045,112.4944L81.7128,104.2455L81.7128,87.7473Z" style="fill-rule:nonzero;"/>
</svg>
