<!-- Generator: Adobe Illustrator 25.4.1, SVG Export Plug-In . SVG Version: 6.00 Build 0)  -->
<svg version="1.1" id="&#x5716;&#x5C64;_1" xmlns="http://www.w3.org/2000/svg" xmlns:xlink="http://www.w3.org/1999/xlink" x="0px"
	 y="0px" viewBox="0 0 64 64" style="enable-background:new 0 0 64 64;" xml:space="preserve">
<path d="M64,64H0V0h64V64z"/>
<path style="fill:#FFFFFF;" d="M50.849,28.005c0.995-2.997,0.651-6.278-0.945-9.003c-2.4-4.177-7.224-6.327-11.934-5.316
	c-4.105-4.567-11.136-4.941-15.703-0.835c-1.449,1.303-2.531,2.964-3.136,4.816c-3.094,0.635-5.766,2.572-7.329,5.316
	c-2.426,4.171-1.876,9.432,1.361,13.01c-0.999,2.996-0.657,6.277,0.937,9.003c2.403,4.179,7.229,6.327,11.943,5.317
	c2.097,2.361,5.108,3.704,8.266,3.687c4.829,0.004,9.106-3.113,10.582-7.711c3.094-0.635,5.765-2.573,7.329-5.317
	C54.617,36.808,54.064,31.575,50.849,28.005L50.849,28.005z M34.31,51.119c-1.928,0.003-3.794-0.673-5.273-1.908l0.26-0.147
	l8.76-5.057c0.443-0.26,0.718-0.734,0.72-1.249V30.407l3.704,2.142c0.037,0.019,0.063,0.054,0.069,0.096V42.88
	C42.539,47.426,38.856,51.109,34.31,51.119z M16.598,43.556c-0.966-1.669-1.313-3.626-0.98-5.525l0.261,0.157l8.769,5.057
	c0.442,0.259,0.989,0.259,1.431,0l10.711-6.175v4.276c-0.002,0.045-0.025,0.086-0.061,0.113l-8.873,5.117
	C23.914,48.846,18.876,47.495,16.598,43.556L16.598,43.556z M14.292,24.475c0.973-1.68,2.51-2.961,4.336-3.616v10.408
	c-0.007,0.512,0.266,0.987,0.711,1.24l10.66,6.15l-3.704,2.142c-0.041,0.022-0.09,0.022-0.13,0l-8.856-5.108
	c-3.935-2.281-5.284-7.314-3.018-11.258L14.292,24.475L14.292,24.475z M44.717,31.543l-10.694-6.21l3.695-2.134
	c0.041-0.022,0.09-0.022,0.13,0l8.856,5.117c3.941,2.274,5.293,7.313,3.019,11.255c-0.958,1.659-2.464,2.934-4.259,3.603V32.766
	C45.448,32.256,45.164,31.791,44.717,31.543L44.717,31.543z M48.404,26.001l-0.261-0.157l-8.752-5.1
	c-0.444-0.261-0.995-0.261-1.44,0L27.249,26.92v-4.276c-0.004-0.044,0.015-0.087,0.052-0.113l8.856-5.109
	c3.947-2.274,8.99-0.917,11.265,3.03c0.96,1.667,1.308,3.617,0.982,5.513V26.001z M25.228,33.582l-3.704-2.134
	c-0.037-0.023-0.063-0.061-0.069-0.104V21.136c0.006-4.556,3.704-8.244,8.259-8.238c1.922,0.003,3.784,0.677,5.263,1.906
	l-0.261,0.147l-8.76,5.057c-0.443,0.26-0.718,0.734-0.72,1.249L25.228,33.582z M27.241,29.245l4.771-2.75l4.779,2.75v5.499
	l-4.762,2.749l-4.779-2.749L27.241,29.245z"/>
</svg>
