<?xml version="1.0" encoding="UTF-8" standalone="no"?>
<!DOCTYPE svg PUBLIC "-//W3C//DTD SVG 1.1//EN" "http://www.w3.org/Graphics/SVG/1.1/DTD/svg11.dtd">
<svg width="100%" height="100%" viewBox="0 0 192 192" version="1.1" xmlns="http://www.w3.org/2000/svg" xmlns:xlink="http://www.w3.org/1999/xlink" xml:space="preserve" xmlns:serif="http://www.serif.com/" style="fill-rule:evenodd;clip-rule:evenodd;stroke-linejoin:round;stroke-miterlimit:2;">
    <rect x="0" y="0" width="192" height="192"/>
    <path d="M133.251,44.9623L105.5906,68.3525L133.251,68.3525L133.251,44.9623ZM99.588,64.5039L140.0804,30.2628L140.0804,68.3525L153.0164,68.3525L153.0164,125.8914L137.4779,125.8914L137.4779,162L99.5888,127.2322L99.5888,160.9104L92.7594,160.9104L92.7594,127.2482L54.0061,161.8492L54.0061,125.8914L38.9836,125.8914L38.9836,68.3525L54.5225,68.3525L54.5225,30L92.7594,64.0842L92.7594,30.7213L99.5888,30.7213L99.588,64.5039ZM87.8697,75.1819C73.8461,75.1899 59.8294,75.1819 45.8131,75.1819L45.8131,119.0619L54.0033,119.0619L54.0033,108.1813L87.8697,75.1819ZM104.497,75.1819L137.4779,108.2094L137.4779,119.0619L146.1869,119.0619L146.1869,75.1819C132.299,75.1819 118.395,75.1899 104.497,75.1819ZM87.2964,68.3525L61.3519,45.2255L61.3519,68.3525L87.2964,68.3525ZM92.7594,118.1304L92.7594,79.9372L60.8356,111.0358L60.8356,146.6337L92.7594,118.1304ZM99.6807,80.0086L99.6807,118.0666L130.6485,146.4828C130.6485,134.6538 130.6437,122.8355 130.6437,111.0077L99.6807,80.0086Z" style="fill:#fff;fill-rule:nonzero;"/>
</svg>
