<!-- Generator: Adobe Illustrator 25.4.1, SVG Export Plug-In . SVG Version: 6.00 Build 0)  -->
<svg version="1.1" id="R" xmlns="http://www.w3.org/2000/svg" xmlns:xlink="http://www.w3.org/1999/xlink" x="0px" y="0px"
	 viewBox="0 0 64 64" style="enable-background:new 0 0 64 64;" xml:space="preserve">
<g>
	<path style="fill:#FF4500;" d="M32,6C17.64,6,6,17.64,6,32c-0.009,6.898,2.732,13.514,7.615,18.385l-4.953,4.953
		c-0.61,0.61-0.609,1.597,0,2.206C8.955,57.835,9.352,58,9.766,58H32c14.36,0,26-11.64,26-26S46.36,6,32,6z"/>
	<path style="fill:#FFFFFF;" d="M49.323,36.605c-0.191,7.055-7.881,12.729-17.329,12.729s-17.125-5.669-17.329-12.718
		c-0.389-0.184-0.757-0.409-1.098-0.671c-2.66-2.042-3.16-5.854-1.118-8.514s5.854-3.16,8.514-1.118
		c2.763-1.712,6.242-2.797,10.052-2.957v-0.022c0.004-3.569,2.692-6.563,6.24-6.949c0.341-1.649,1.607-2.951,3.246-3.339
		c2.328-0.551,4.663,0.891,5.213,3.219s-0.891,4.663-3.219,5.213s-4.663-0.891-5.213-3.219l-0.008-0.002
		c-2.527,0.362-4.404,2.526-4.404,5.078v0.016c3.86,0.144,7.37,1.229,10.156,2.953c0.349-0.27,0.726-0.5,1.125-0.688
		c3.034-1.428,6.651-0.126,8.079,2.907C53.66,31.559,52.356,35.177,49.323,36.605z"/>
	<path style="fill:#FF4500;" d="M23.816,38.07c-1.703,0-3.191-0.896-3.089-3.098c0.101-2.202,1.564-3.892,3.264-3.892
		c1.701,0,3.001,1.785,2.899,3.988C26.787,37.269,25.518,38.07,23.816,38.07z"/>
	<path style="fill:#FF4500;" d="M43.299,34.972c0.099,2.202-1.39,3.098-3.089,3.098c-1.7,0-2.972-0.788-3.073-3.003
		c-0.101-2.214,1.196-3.988,2.899-3.988C41.737,31.079,43.2,32.769,43.299,34.972z"/>
	<path style="fill:#FF4500;" d="M38.444,40.586c-0.004,0.048-0.015,0.095-0.034,0.141c-1.48,3.534-5.544,5.199-9.078,3.719
		c-1.68-0.703-3.016-2.04-3.719-3.719c-0.099-0.247,0.019-0.527,0.266-0.627c0.045-0.018,0.092-0.03,0.141-0.034
		c3.991-0.39,8.01-0.39,12,0h-0.016C38.269,40.088,38.466,40.321,38.444,40.586z"/>
</g>
<path style="fill:#FFFFFF;" d="M0,0v64h64V0H0z M32,58H9.766c-0.414,0-0.811-0.165-1.104-0.456c-0.609-0.609-0.61-1.596,0-2.206
	l4.953-4.953C8.732,45.514,5.991,38.898,6,32C6,17.64,17.64,6,32,6s26,11.64,26,26S46.36,58,32,58z"/>
</svg>
