<?xml version="1.0" encoding="UTF-8" standalone="no"?>
<!DOCTYPE svg PUBLIC "-//W3C//DTD SVG 1.1//EN" "http://www.w3.org/Graphics/SVG/1.1/DTD/svg11.dtd">
<svg width="100%" height="100%" viewBox="0 0 192 192" version="1.1" xmlns="http://www.w3.org/2000/svg" xmlns:xlink="http://www.w3.org/1999/xlink" xml:space="preserve" xmlns:serif="http://www.serif.com/" style="fill-rule:evenodd;clip-rule:evenodd;stroke-linejoin:round;stroke-miterlimit:2;">
    <path d="M96,24C56.2312,24 24,56.2312 24,96C24,115.9125 32.0438,133.9125 45.0938,146.9062L31.3687,160.6312C28.6687,163.3313 30.5813,168 34.4062,168L96,168C135.7688,168 168,135.7688 168,96C168,56.2312 135.7688,24 96,24Z" style="fill:#ff4500;fill-rule:nonzero;"/>
    <g>
        <circle cx="136.8375" cy="93.5812" r="16.8188" style="fill:url(#_Radial1);"/>
        <circle cx="55.1625" cy="93.5812" r="16.8187" style="fill:url(#_Radial2);"/>
        <ellipse cx="96.0563" cy="107.9812" rx="47.9812" ry="36" style="fill:url(#_Radial3);"/>
        <path d="M81.825,104.4937C81.5437,110.5688 77.4938,112.8188 72.7687,112.8188C68.0437,112.8188 64.4437,109.6688 64.725,103.5938C65.0062,97.5187 69.0563,93.4688 73.7812,93.4688C78.5062,93.4688 82.1062,98.4188 81.825,104.4937Z" style="fill:#842123;fill-rule:nonzero;"/>
        <path d="M127.275,103.5938C127.5562,109.6688 123.9562,112.8188 119.2312,112.8188C114.5062,112.8188 110.4562,110.625 110.175,104.4937C109.8937,98.4187 113.4937,93.4688 118.2188,93.4688C122.9438,93.4688 126.9937,97.4625 127.275,103.5938Z" style="fill:#842123;fill-rule:nonzero;"/>
        <path d="M110.2313,105.0562C110.5125,110.7375 114.2812,112.8188 118.6688,112.8188C123.0563,112.8188 126.4313,109.725 126.2063,103.9875C125.925,98.3063 122.1563,94.5375 117.7688,94.5375C113.3813,94.5375 109.95,99.3188 110.2313,105.0562Z" style="fill:url(#_Radial4);fill-rule:nonzero;"/>
        <path d="M81.825,105.0562C81.5437,110.7375 77.775,112.8188 73.3875,112.8188C69,112.8188 65.625,109.725 65.9062,103.9875C66.1875,98.3063 69.9563,94.5375 74.3438,94.5375C78.7312,94.5375 82.1062,99.3188 81.825,105.0562Z" style="fill:url(#_Radial5);fill-rule:nonzero;"/>
        <path d="M96.0562,116.8687C90.0938,116.8687 84.4125,117.15 79.125,117.6562C78.225,117.7687 77.6625,118.6688 78,119.4562C80.925,126.375 87.9,131.2688 96.0562,131.2688C104.2125,131.2688 111.1313,126.4312 114.1125,119.4562C114.45,118.6125 113.8875,117.7125 112.9875,117.6562C107.7,117.15 102.0187,116.8687 96.0562,116.8687Z" style="fill:#bbcfda;fill-rule:nonzero;"/>
        <path d="M96.0562,118.2188C90.0938,118.2188 84.4125,118.5 79.1813,119.0625C78.2812,119.175 77.7188,120.075 78.0563,120.9188C80.9812,127.95 87.9562,132.9 96.0562,132.9C104.1562,132.9 111.1313,127.95 114.0562,120.9188C114.3937,120.075 113.8312,119.175 112.9312,119.0625C107.6437,118.5 101.9625,118.2188 96.0562,118.2188Z" style="fill:#fff;fill-rule:nonzero;"/>
        <path d="M96.0562,117.4875C90.2062,117.4875 84.6375,117.7687 79.4625,118.275C78.5625,118.3875 78,119.2875 78.3375,120.075C81.2625,126.9937 88.0687,131.8875 96.0562,131.8875C104.0438,131.8875 110.85,127.05 113.775,120.075C114.1125,119.2312 113.55,118.3312 112.65,118.275C107.475,117.825 101.9062,117.4875 96.0562,117.4875Z" style="fill:url(#_Radial6);fill-rule:nonzero;"/>
        <circle cx="122.325" cy="55.2188" r="11.925" style="fill:url(#_Radial7);"/>
        <path d="M95.8875,73.5C94.4813,73.5 93.3,72.8812 93.3,71.9812C93.3,61.2937 101.9625,52.6312 112.65,52.6312C114.0562,52.6312 115.2375,53.8125 115.2375,55.2188C115.2375,56.625 114.0562,57.8062 112.65,57.8062C104.8312,57.8062 98.475,64.1625 98.475,71.9812C98.475,72.9375 97.2938,73.5 95.8875,73.5Z" style="fill:url(#_Radial8);fill-rule:nonzero;"/>
        <path d="M78.7312,107.8687C78.7312,110.0625 76.3688,111.075 73.5,111.075C70.6312,111.075 68.2688,110.0625 68.2688,107.8687C68.2688,105.675 70.6312,103.875 73.5,103.875C76.3688,103.875 78.7312,105.6187 78.7312,107.8687Z" style="fill:#ff6101;fill-rule:nonzero;"/>
        <path d="M123.8438,107.8687C123.8438,110.0625 121.4813,111.075 118.6125,111.075C115.7437,111.075 113.3812,110.0625 113.3812,107.8687C113.3812,105.675 115.7437,103.875 118.6125,103.875C121.4813,103.875 123.8438,105.6187 123.8438,107.8687Z" style="fill:#ff6101;fill-rule:nonzero;"/>
        <ellipse cx="77.1" cy="99.825" rx="1.8563" ry="2.025" style="fill:#ffc49c;"/>
        <ellipse cx="121.4813" cy="99.825" rx="1.8563" ry="2.025" style="fill:#ffc49c;"/>
    </g>
    <defs>
        <radialGradient id="_Radial1" cx="0" cy="0" r="1" gradientUnits="userSpaceOnUse" gradientTransform="matrix(33.694594,0,0,-29.393156,137.069136,84.501088)"><stop offset="0" style="stop-color:#feffff;stop-opacity:1"/><stop offset="0.4" style="stop-color:#feffff;stop-opacity:1"/><stop offset="0.51" style="stop-color:#f9fcfc;stop-opacity:1"/><stop offset="0.62" style="stop-color:#edf3f5;stop-opacity:1"/><stop offset="0.7" style="stop-color:#dee9ec;stop-opacity:1"/><stop offset="0.72" style="stop-color:#d8e4e8;stop-opacity:1"/><stop offset="0.76" style="stop-color:#ccd8df;stop-opacity:1"/><stop offset="0.8" style="stop-color:#c8d5dd;stop-opacity:1"/><stop offset="0.83" style="stop-color:#ccd6de;stop-opacity:1"/><stop offset="0.85" style="stop-color:#d8dbe2;stop-opacity:1"/><stop offset="0.88" style="stop-color:#ede3e9;stop-opacity:1"/><stop offset="0.9" style="stop-color:#ffebef;stop-opacity:1"/><stop offset="1" style="stop-color:#ffebef;stop-opacity:1"/></radialGradient>
        <radialGradient id="_Radial2" cx="0" cy="0" r="1" gradientUnits="userSpaceOnUse" gradientTransform="matrix(33.694594,0,0,-29.393156,55.439151,84.501088)"><stop offset="0" style="stop-color:#feffff;stop-opacity:1"/><stop offset="0.4" style="stop-color:#feffff;stop-opacity:1"/><stop offset="0.51" style="stop-color:#f9fcfc;stop-opacity:1"/><stop offset="0.62" style="stop-color:#edf3f5;stop-opacity:1"/><stop offset="0.7" style="stop-color:#dee9ec;stop-opacity:1"/><stop offset="0.72" style="stop-color:#d8e4e8;stop-opacity:1"/><stop offset="0.76" style="stop-color:#ccd8df;stop-opacity:1"/><stop offset="0.8" style="stop-color:#c8d5dd;stop-opacity:1"/><stop offset="0.83" style="stop-color:#ccd6de;stop-opacity:1"/><stop offset="0.85" style="stop-color:#d8dbe2;stop-opacity:1"/><stop offset="0.88" style="stop-color:#ede3e9;stop-opacity:1"/><stop offset="0.9" style="stop-color:#ffebef;stop-opacity:1"/><stop offset="1" style="stop-color:#ffebef;stop-opacity:1"/></radialGradient>
        <radialGradient id="_Radial3" cx="0" cy="0" r="1" gradientUnits="userSpaceOnUse" gradientTransform="matrix(101.636325,0,0,-71.361675,97.320355,79.786435)"><stop offset="0" style="stop-color:#feffff;stop-opacity:1"/><stop offset="0.4" style="stop-color:#feffff;stop-opacity:1"/><stop offset="0.51" style="stop-color:#f9fcfc;stop-opacity:1"/><stop offset="0.62" style="stop-color:#edf3f5;stop-opacity:1"/><stop offset="0.7" style="stop-color:#dee9ec;stop-opacity:1"/><stop offset="0.72" style="stop-color:#d8e4e8;stop-opacity:1"/><stop offset="0.76" style="stop-color:#ccd8df;stop-opacity:1"/><stop offset="0.8" style="stop-color:#c8d5dd;stop-opacity:1"/><stop offset="0.83" style="stop-color:#ccd6de;stop-opacity:1"/><stop offset="0.85" style="stop-color:#d8dbe2;stop-opacity:1"/><stop offset="0.88" style="stop-color:#ede3e9;stop-opacity:1"/><stop offset="0.9" style="stop-color:#ffebef;stop-opacity:1"/><stop offset="1" style="stop-color:#ffebef;stop-opacity:1"/></radialGradient>
        <radialGradient id="_Radial4" cx="0" cy="0" r="1" gradientUnits="userSpaceOnUse" gradientTransform="matrix(-8.491725,0,0,12.466575,116.969942,108.921366)"><stop offset="0" style="stop-color:#f60;stop-opacity:1"/><stop offset="0.5" style="stop-color:#ff4500;stop-opacity:1"/><stop offset="0.7" style="stop-color:#fc4301;stop-opacity:1"/><stop offset="0.82" style="stop-color:#f43f07;stop-opacity:1"/><stop offset="0.92" style="stop-color:#e53812;stop-opacity:1"/><stop offset="1" style="stop-color:#d4301f;stop-opacity:1"/></radialGradient>
        <radialGradient id="_Radial5" cx="0" cy="0" r="1" gradientUnits="userSpaceOnUse" gradientTransform="matrix(8.491725,0,0,12.466575,74.732155,108.921366)"><stop offset="0" style="stop-color:#f60;stop-opacity:1"/><stop offset="0.5" style="stop-color:#ff4500;stop-opacity:1"/><stop offset="0.7" style="stop-color:#fc4301;stop-opacity:1"/><stop offset="0.82" style="stop-color:#f43f07;stop-opacity:1"/><stop offset="0.92" style="stop-color:#e53812;stop-opacity:1"/><stop offset="1" style="stop-color:#d4301f;stop-opacity:1"/></radialGradient>
        <radialGradient id="_Radial6" cx="0" cy="0" r="1" gradientUnits="userSpaceOnUse" gradientTransform="matrix(29.943112,0,0,-19.749712,96.207336,133.635572)"><stop offset="0" style="stop-color:#172e35;stop-opacity:1"/><stop offset="0.29" style="stop-color:#0e1c21;stop-opacity:1"/><stop offset="0.73" style="stop-color:#030708;stop-opacity:1"/><stop offset="1" style="stop-color:#000;stop-opacity:1"/></radialGradient>
        <radialGradient id="_Radial7" cx="0" cy="0" r="1" gradientUnits="userSpaceOnUse" gradientTransform="matrix(26.284162,0,0,-26.284162,122.613111,43.184685)"><stop offset="0" style="stop-color:#feffff;stop-opacity:1"/><stop offset="0.4" style="stop-color:#feffff;stop-opacity:1"/><stop offset="0.51" style="stop-color:#f9fcfc;stop-opacity:1"/><stop offset="0.62" style="stop-color:#edf3f5;stop-opacity:1"/><stop offset="0.7" style="stop-color:#dee9ec;stop-opacity:1"/><stop offset="0.72" style="stop-color:#d8e4e8;stop-opacity:1"/><stop offset="0.76" style="stop-color:#ccd8df;stop-opacity:1"/><stop offset="0.8" style="stop-color:#c8d5dd;stop-opacity:1"/><stop offset="0.83" style="stop-color:#ccd6de;stop-opacity:1"/><stop offset="0.85" style="stop-color:#d8dbe2;stop-opacity:1"/><stop offset="0.88" style="stop-color:#ede3e9;stop-opacity:1"/><stop offset="0.9" style="stop-color:#ffebef;stop-opacity:1"/><stop offset="1" style="stop-color:#ffebef;stop-opacity:1"/></radialGradient>
        <radialGradient id="_Radial8" cx="0" cy="0" r="1" gradientUnits="userSpaceOnUse" gradientTransform="matrix(21.543919,0,0,-21.543919,111.660055,71.838323)"><stop offset="0" style="stop-color:#7a9299;stop-opacity:1"/><stop offset="0.48" style="stop-color:#7a9299;stop-opacity:1"/><stop offset="0.67" style="stop-color:#172e35;stop-opacity:1"/><stop offset="0.75" style="stop-color:#000;stop-opacity:1"/><stop offset="0.82" style="stop-color:#172e35;stop-opacity:1"/><stop offset="1" style="stop-color:#172e35;stop-opacity:1"/></radialGradient>
    </defs>
</svg>
