<?xml version="1.0" encoding="UTF-8" standalone="no"?>
<!DOCTYPE svg PUBLIC "-//W3C//DTD SVG 1.1//EN" "http://www.w3.org/Graphics/SVG/1.1/DTD/svg11.dtd">
<svg width="100%" height="100%" viewBox="0 0 192 192" version="1.1" xmlns="http://www.w3.org/2000/svg" xmlns:xlink="http://www.w3.org/1999/xlink" xml:space="preserve" xmlns:serif="http://www.serif.com/" style="fill-rule:evenodd;clip-rule:evenodd;stroke-linejoin:round;stroke-miterlimit:2;">
    <g>
        <path d="M141.0017,91.498L123.0021,109.4977L105.0024,109.4977L89.2524,125.2477L89.2524,109.4977L69.0032,109.4977L69.0032,42.0012L141.0043,42.0012L141.0043,91.498L141.0017,91.498Z" style="fill:#fefefe;fill-rule:nonzero;"/>
        <path d="M141.0017,91.498L123.0021,109.4977L105.0024,109.4977L89.2524,125.2477L89.2524,109.4977L69.0032,109.4977L69.0032,42.0012L141.0043,42.0012L141.0043,91.498L141.0017,91.498ZM64.5013,33L41.9998,55.5015L41.9998,136.501L69.0006,136.501L69.0006,159L91.5021,136.4985L109.5017,136.4985L150.0002,96L150.0002,33L64.5013,33ZM118.5028,84.7492L127.5013,84.7492L127.5013,57.7485L118.5028,57.7485L118.5028,84.7492ZM93.7491,84.7492L102.7502,84.7492L102.7502,57.7485L93.7491,57.7485L93.7491,84.7492Z" style="fill:#9f77f7;fill-rule:nonzero;"/>
    </g>
</svg>
