<?xml version="1.0" encoding="UTF-8" standalone="no"?>
<!DOCTYPE svg PUBLIC "-//W3C//DTD SVG 1.1//EN" "http://www.w3.org/Graphics/SVG/1.1/DTD/svg11.dtd">
<svg width="100%" height="100%" viewBox="0 0 192 192" version="1.1" xmlns="http://www.w3.org/2000/svg" xmlns:xlink="http://www.w3.org/1999/xlink" xml:space="preserve" xmlns:serif="http://www.serif.com/" style="fill-rule:evenodd;clip-rule:evenodd;stroke-linejoin:round;stroke-miterlimit:2;">
    <rect x="0" y="0" width="192" height="192" style="fill:url(#_Linear1);"/>
    <path d="M138.2948,53.44C127.173,42.2366 112.0086,35.9508 96.2224,36.0003C63.4691,36.0003 36.7822,62.6734 36.7822,95.4644C36.773,105.8971 39.5128,116.1504 44.725,125.1878L36.2859,156L67.8101,147.7252C76.5271,152.4771 86.2977,154.9692 96.2259,154.973L96.2497,154.973C129.0237,154.973 155.7139,128.2998 155.7139,95.5088C155.7498,79.7314 149.47,64.5775 138.2845,53.4502L138.2948,53.44ZM96.2395,144.9624C87.3835,144.9639 78.6882,142.5819 71.0694,138.0673L69.2583,136.9889L50.5519,141.8812L55.5469,123.6438L54.3761,121.7712C49.4101,113.9018 46.7844,104.7797 46.8065,95.4747C46.8065,68.2093 68.9811,46.021 96.267,46.021C123.3731,46.0249 145.6759,68.3308 145.6759,95.4369L145.6759,95.4849C145.652,122.7604 123.4809,144.9419 96.2361,144.9419L96.2395,144.9624ZM123.3371,107.9193C121.8581,107.1661 114.5454,103.5817 113.1863,103.0852C111.827,102.5888 110.841,102.3354 109.8311,103.8384C108.8211,105.3414 105.9898,108.6691 105.1203,109.6585C104.2506,110.6479 103.3879,110.7848 101.9124,110.0317C100.4368,109.2784 95.6301,107.7139 89.9572,102.6504C85.5477,98.7134 82.5589,93.8381 81.6894,92.3797C80.8197,90.9212 81.5901,90.0825 82.3466,89.3567C83.0314,88.6959 83.8256,87.6244 84.5754,86.7548C85.3251,85.8851 85.5615,85.2758 86.0544,84.2693C86.5474,83.2627 86.3077,82.4137 85.9346,81.6674C85.5615,80.9209 82.5795,73.6049 81.3676,70.6264C80.1726,67.7129 78.93,68.1203 78.0159,68.0689C77.1018,68.0176 76.1602,68.0244 75.1776,68.0244C73.6581,68.0651 72.2221,68.7365 71.2166,69.8765C69.8472,71.3555 66.0127,74.964 66.0127,82.2767C66.0127,89.5894 71.3331,96.6557 72.0793,97.6521C72.8256,98.6483 82.5589,113.6607 97.4617,120.0901C101.0017,121.6102 103.768,122.5243 105.9249,123.2329C108.9557,124.1461 112.1569,124.3465 115.278,123.8184C118.1367,123.3973 124.0698,120.2271 125.3125,116.7589C126.5553,113.2909 126.5553,110.3124 126.1855,109.6996C125.8158,109.0868 124.8469,108.6724 123.3474,107.9124L123.3371,107.9193Z" style="fill:#fff;"/>
    <defs>
        <linearGradient id="_Linear1" x1="0" y1="0" x2="1" y2="0" gradientUnits="userSpaceOnUse" gradientTransform="matrix(0,191.168025,-191.168025,0,95.584951,0.159149)"><stop offset="0" style="stop-color:#61fd7d;stop-opacity:1"/><stop offset="1" style="stop-color:#2bb826;stop-opacity:1"/></linearGradient>
    </defs>
</svg>
