<?xml version="1.0" encoding="UTF-8" standalone="no"?>
<!DOCTYPE svg PUBLIC "-//W3C//DTD SVG 1.1//EN" "http://www.w3.org/Graphics/SVG/1.1/DTD/svg11.dtd">
<svg width="100%" height="100%" viewBox="0 0 192 192" version="1.1" xmlns="http://www.w3.org/2000/svg" xmlns:xlink="http://www.w3.org/1999/xlink" xml:space="preserve" xmlns:serif="http://www.serif.com/" style="fill-rule:evenodd;clip-rule:evenodd;stroke-linejoin:round;stroke-miterlimit:2;">
    <g>
        <path id="Path_8_" d="M171.4345,104.6745C171.3274,97.1733 167.0729,61.5328 164.9994,56.0012C163.6701,52.4357 160.8489,45.8932 155.691,41.9574C149.0413,36.9034 143.617,35.9447 136.7008,35.8406C131.8614,35.6816 54.301,45.734 44.8854,49.2472C37.8651,51.8539 32.3855,55.26 28.0758,59.5663C21.0005,66.6419 19.6712,73.5028 20.7892,85.5802C21.8,96.5395 26.8538,132.817 29.3533,140.3183C32.119,148.6158 37.2249,154.9991 45.6297,155.9059C71.3216,158.7237 77.3864,144.3615 137.1265,144.4688C155.2133,144.5206 164.2032,136.4898 167.9796,129.4662C172.338,121.2176 171.4865,110.3654 171.4345,104.6745Z" style="fill:#f00;fill-rule:nonzero;"/>
        <path id="Shape_4_" d="M134.783,38.5511L134.8352,38.5511C141.4328,38.6584 146.5908,39.5622 152.9741,44.4012C157.9207,48.178 160.6344,54.402 161.8564,57.8082C163.8261,63.0733 167.8659,97.066 167.9732,104.2488C168.0252,109.7284 168.8767,120.0474 164.6744,127.9192C161.1091,134.569 152.5451,142.2295 135.3649,142.2295L134.4582,142.2295C83.2301,142.2295 73.8146,153.4519 54.1319,153.4519C52.2176,153.4519 50.1409,153.3448 47.9601,153.1336C39.9292,152.2299 35.0864,146.1653 32.4278,138.2936C30.0325,131.1108 25.245,96.481 24.2343,86.0547C23.1716,74.5104 24.4455,67.9679 31.1506,61.2663C35.2458,57.116 40.5142,53.9242 47.2157,51.4249C56.16,48.022 129.5179,38.5511 134.783,38.5511ZM134.783,32.5418C131.4844,32.5418 109.7803,35.2556 91.5894,37.7549C73.3985,40.2544 50.6284,43.7124 45.2041,45.734C37.7028,48.4997 31.7453,52.1692 27.0098,56.9567C18.3388,65.6798 17.2759,74.7768 18.3388,86.6397C19.1902,95.844 24.0296,131.9623 26.7953,140.2598C30.52,151.4304 37.8066,158.1322 47.2742,159.143C49.6142,159.4095 51.8504,159.5167 54.0832,159.5167C62.3807,159.5167 68.9785,157.7096 76.6388,155.6329C88.661,152.3339 103.6082,148.2909 134.4614,148.2909L135.3649,148.2909C142.9182,148.2909 161.4307,146.5876 169.8355,130.8442C174.3564,122.4396 174.09,112.1726 173.9307,106.0558C173.9307,105.3636 173.9307,104.7266 173.8787,104.1936C173.7714,96.9068 169.6762,61.9553 167.3882,55.7315C164.7297,48.4965 161.0569,43.0722 156.4841,39.5589C149.0381,33.8678 142.759,32.6425 134.939,32.4833L134.7799,32.4833L134.7799,32.5418L134.783,32.5418Z" style="fill:#282828;fill-rule:nonzero;"/>
        <path id="Path_9_" d="M119.2509,94.8852C119.0396,94.9925 118.8772,95.1517 118.6659,95.259C117.1774,96.2697 115.6856,97.3325 114.1971,98.3433C110.739,100.7386 90.6305,114.6749 90.6305,114.6749C88.9275,116.0044 85.6839,118.0812 84.4586,117.3889C83.2366,116.6967 82.8109,112.2278 82.4891,110.0471L82.4372,109.5693C82.0633,106.9626 79.1934,81.9596 78.8198,79.1937C78.7124,78.3942 78.2348,75.5763 79.1383,74.8841C80.0969,74.1918 82.4372,74.9913 83.2334,75.2578C87.8615,76.7463 111.1063,84.9919 118.3409,88.7165C118.5521,88.8239 118.7666,88.9279 119.0332,89.035C120.0441,89.4609 121.4806,90.0979 121.5326,91.8529C121.4838,93.504 120.2619,94.2483 119.2509,94.8852Z" style="fill:#fff;fill-rule:nonzero;"/>
        <path id="Shape_5_" d="M82.0664,78.6087C90.1527,81.3746 108.8245,88.1315 117.5999,92.0674C116.5372,92.8115 115.4711,93.504 114.4083,94.2483C110.3133,97.066 86.4802,113.6123 86.4802,113.6123L86.2657,113.8268C86.2136,113.6156 86.2136,113.4529 86.2136,113.2938L86.1064,112.3349L85.9991,111.7499C85.6807,109.5173 83.7664,93.13 82.6484,83.2922C82.3852,81.4817 82.2258,79.8859 82.0664,78.6087ZM77.5458,71.2148C77.0128,71.2148 76.5868,71.3219 76.2683,71.5331C75.2056,72.2776 75.7906,75.6836 75.8946,76.5871C76.2683,79.8307 79.7233,109.4621 80.1489,112.5463L80.2011,113.1313C80.5748,115.7379 81.0524,121.0582 82.5412,121.8546C82.7524,121.9619 82.9669,122.0137 83.2334,122.0137C84.9884,122.0137 88.0729,119.9922 89.831,118.6077C89.831,118.6077 113.664,102.1166 117.7591,99.299C119.5141,98.0768 121.3246,96.8515 123.0796,95.6295C123.2908,95.4702 123.5053,95.363 123.7719,95.2038C124.9938,94.4595 126.4857,93.556 126.4305,91.5864C126.3784,89.5129 124.7274,88.7687 123.5053,88.2875C123.2388,88.1804 122.9724,88.021 122.7058,87.9137C114.1418,83.5522 86.5874,73.7628 81.1078,72.0078C80.4188,71.7476 78.8229,71.2148 77.5458,71.2148Z" style="fill:#282828;fill-rule:nonzero;"/>
    </g>
</svg>
