<svg xmlns="http://www.w3.org/2000/svg" viewBox="0 0 64 64" style="enable-background:new 0 0 64 64;" xml:space="preserve">
<linearGradient id="SVGID_1_" gradientUnits="userSpaceOnUse" x1="13.4047" y1="13.9126" x2="50.4858" y2="50.9923">
	<stop  offset="0" style="stop-color:#E9E3C7"/>
	<stop  offset="0.5" style="stop-color:#C167ED"/>
	<stop  offset="0.56" style="stop-color:#AD6CED"/>
	<stop  offset="0.67" style="stop-color:#847CEE"/>
	<stop  offset="0.8" style="stop-color:#6197EF"/>
	<stop  offset="0.95" style="stop-color:#28BEF1"/>
	<stop  offset="1" style="stop-color:#12CDF2"/>
</linearGradient>
<path style="fill:url(#SVGID_1_);" d="M31.681,6.642c4.617-0.032,9.17,1.117,13.213,3.351c4.053,2.234,7.234,5.277,9.543,9.128C56.819,23.11,58,27.472,58,32.227c0,5.809-1.628,11-4.872,15.574c-3.245,4.574-7.5,7.745-12.734,9.489c-0.564,0.138-1,0.064-1.309-0.213c-0.309-0.266-0.479-0.649-0.468-1.053v-8.809c0-2.234-0.596-3.84-1.787-4.819c2.585-0.277,4.511-0.628,5.766-1.053c1.957-0.702,3.468-1.745,4.511-3.149c1.191-1.819,1.787-4.298,1.777-7.447c0-1.33-0.245-2.479-0.734-3.457c-0.351-0.702-1.011-1.574-1.989-2.617c0.298-0.809,0.479-1.66,0.521-2.521c0.064-1.574-0.181-3.138-0.734-4.617c-0.702-0.213-1.681-0.074-2.936,0.415c-1.011,0.436-1.989,0.926-2.936,1.468l-1.362,0.947c-2.16-0.628-4.404-0.947-6.66-0.947c-2.223-0.011-4.426,0.309-6.553,0.947l-1.362-0.947c-0.979-0.564-1.989-1.053-3.043-1.468c-1.255-0.489-2.202-0.628-2.83-0.415c-0.617,1.457-0.862,3.043-0.723,4.617c0,0.979,0.138,1.787,0.415,2.415c-0.734,0.883-1.351,1.851-1.83,2.894c-0.383,0.872-0.574,1.968-0.574,3.309c0,3.149,0.564,5.596,1.681,7.351c0.979,1.468,2.447,2.553,4.404,3.245c1.255,0.415,3.149,0.766,5.66,1.053c-0.904,0.84-1.468,2.021-1.681,3.564c-1.191,0.564-2.351,0.766-3.468,0.617c-1.819-0.138-3.213-1.085-4.191-2.83c-0.404-0.755-0.979-1.394-1.681-1.883c-0.5-0.287-1.032-0.532-1.574-0.734l-0.734-0.106c-0.766,0-1.17,0.117-1.202,0.362s0.117,0.511,0.468,0.787l0.521,0.415c0.574,0.351,1.074,0.819,1.468,1.362c0.426,0.5,0.787,1.074,1.053,1.681l0.415,0.83c0.33,1.032,1.043,1.894,1.989,2.415c0.936,0.521,1.979,0.84,3.043,0.947c0.872,0.064,1.745,0.032,2.617-0.106l1.16-0.106l0.106,6.394c0.011,0.404-0.17,0.787-0.468,1.053c-0.319,0.277-0.755,0.351-1.309,0.213c-5.319-1.745-9.617-4.915-12.904-9.489S6,38.036,6,32.227c0-4.755,1.117-9.096,3.351-13c2.181-3.862,5.372-7.053,9.223-9.223C22.479,7.759,26.851,6.642,31.681,6.642z"/>
</svg>
