<!-- Generator: Adobe Illustrator 25.4.1, SVG Export Plug-In . SVG Version: 6.00 Build 0)  -->
<svg version="1.1" xmlns="http://www.w3.org/2000/svg" xmlns:xlink="http://www.w3.org/1999/xlink" x="0px" y="0px"
	 viewBox="0 0 64 64" style="enable-background:new 0 0 64 64;" xml:space="preserve">
<radialGradient id="SVGID_1_" cx="-4.9293" cy="46.9958" r="63.1459" gradientUnits="userSpaceOnUse">
	<stop  offset="0" style="stop-color:#FFDD55"/>
	<stop  offset="0.1" style="stop-color:#FFDD55"/>
	<stop  offset="0.5" style="stop-color:#FF543E"/>
	<stop  offset="1" style="stop-color:#C837AB"/>
</radialGradient>
<path style="fill:url(#SVGID_1_);" d="M63.937,13.875c-0.202-2.569-0.642-4.297-1.539-6.123C61.662,6.257,60.845,5.141,59.659,4c-2.117-2.022-4.706-3.253-7.791-3.698c-1.495-0.216-1.793-0.28-9.442-0.293H32.01c-13.36,0-17.267,0.014-18.026,0.077c-2.742,0.228-4.448,0.66-6.306,1.585C6.245,2.382,5.116,3.206,4.001,4.362C1.971,6.47,0.74,9.063,0.295,12.145c-0.217,1.496-0.28,1.801-0.292,9.445c-0.005,2.548,0,5.901,0,10.398c0,13.349,0.015,17.252,0.079,18.01c0.222,2.668,0.64,4.346,1.526,6.182c1.693,3.514,4.927,6.153,8.737,7.137c1.319,0.34,2.776,0.527,4.647,0.615c0.792,0.034,8.87,0.059,16.952,0.059c8.082,0,16.164-0.01,16.937-0.049c2.166-0.102,3.423-0.271,4.814-0.63c3.834-0.989,7.009-3.588,8.737-7.152c0.869-1.792,1.309-3.534,1.509-6.063C63.982,49.546,64,40.757,64,31.979C64,23.2,63.98,14.427,63.937,13.875z M55.477,41.743c-0.118,2.514-0.517,4.232-1.098,5.734c-0.605,1.553-1.413,2.872-2.727,4.185c-1.313,1.314-2.629,2.123-4.182,2.727c-1.503,0.584-3.222,0.982-5.737,1.098c-2.52,0.115-3.323,0.143-9.74,0.143c-6.416,0-7.221-0.028-9.741-0.143c-2.515-0.115-4.232-0.513-5.735-1.098c-1.553-0.603-2.871-1.413-4.184-2.727c-1.314-1.313-2.121-2.631-2.725-4.185c-0.584-1.502-0.982-3.219-1.098-5.734c-0.114-2.52-0.143-3.323-0.143-9.739s0.03-7.222,0.142-9.742c0.113-2.514,0.512-4.232,1.098-5.734c0.605-1.553,1.413-2.872,2.727-4.185c1.313-1.314,2.631-2.121,4.185-2.724c1.502-0.584,3.219-0.982,5.734-1.098c2.52-0.115,3.325-0.143,9.738-0.143c-0.001,0-0.002,0-0.004,0h0.007c-0.001,0-0.002,0-0.004,0c6.415,0,7.218,0.028,9.737,0.143c2.515,0.115,4.233,0.513,5.739,1.098c1.555,0.603,2.87,1.41,4.184,2.724c1.314,1.313,2.121,2.631,2.727,4.185c0.581,1.502,0.98,3.219,1.098,5.734c0.113,2.52,0.143,3.325,0.143,9.742S55.59,39.222,55.477,41.743z M50.412,18.068c-0.429-1.103-0.941-1.89-1.768-2.717c-0.826-0.827-1.612-1.339-2.715-1.767c-0.833-0.323-2.083-0.708-4.387-0.814c-2.491-0.113-3.239-0.136-9.547-0.136c-0.789,0-1.49-0.001-2.119,0v-0.006c-4.403,0.005-5.248,0.034-7.428,0.133c-2.304,0.106-3.554,0.49-4.387,0.815c-1.103,0.429-1.89,0.941-2.717,1.768c-0.827,0.827-1.34,1.614-1.768,2.717c-0.323,0.833-0.708,2.083-0.814,4.387c-0.113,2.491-0.136,3.235-0.136,9.544s0.023,7.057,0.136,9.548c0.105,2.304,0.49,3.554,0.814,4.386c0.429,1.103,0.941,1.889,1.768,2.716c0.827,0.827,1.614,1.339,2.717,1.767c0.833,0.323,2.084,0.708,4.387,0.815c2.491,0.113,3.238,0.138,9.547,0.138c6.308,0,7.056-0.025,9.547-0.138c2.304-0.105,3.555-0.489,4.387-0.814c1.103-0.428,1.888-0.94,2.715-1.767c0.827-0.826,1.34-1.612,1.768-2.714c0.323-0.832,0.708-2.082,0.814-4.386c0.113-2.491,0.138-3.239,0.138-9.544s-0.025-7.053-0.138-9.544C51.121,20.15,50.736,18.899,50.412,18.068z M31.996,44.133c-6.701,0-12.133-5.43-12.133-12.131c0-6.7,5.432-12.133,12.133-12.133c0,0,0,0,0,0h0.001c0,0,0,0,0,0c6.7,0,12.131,5.433,12.131,12.133C44.127,38.703,38.696,44.133,31.996,44.133z M44.607,22.226c-1.565,0-2.835-1.27-2.835-2.835c0-1.566,1.27-2.834,2.835-2.834v-0.001c1.565,0,2.835,1.27,2.835,2.835C47.442,20.956,46.172,22.226,44.607,22.226z M39.871,32.003c0,4.349-3.526,7.875-7.875,7.875c-4.35,0-7.875-3.526-7.875-7.875c0-4.35,3.526-7.875,7.875-7.875
	C36.345,24.127,39.871,27.653,39.871,32.003z"/>
</svg>
