<?xml version="1.0" encoding="utf-8"?>
<!-- Generator: Adobe Illustrator 25.4.1, SVG Export Plug-In . SVG Version: 6.00 Build 0)  -->
<svg version="1.1" xmlns="http://www.w3.org/2000/svg" xmlns:xlink="http://www.w3.org/1999/xlink" x="0px" y="0px"
	 viewBox="0 0 64 64" style="enable-background:new 0 0 64 64;" xml:space="preserve">
	<path d="M31.999,25.636c-3.508,0-6.364,2.855-6.364,6.363c0,3.509,2.856,6.366,6.364,6.366c3.509,0,6.364-2.856,6.364-6.366C38.364,28.491,35.509,25.636,31.999,25.636z M31.999,25.636c-3.508,0-6.364,2.855-6.364,6.363c0,3.509,2.856,6.366,6.364,6.366c3.509,0,6.364-2.856,6.364-6.366C38.364,28.491,35.509,25.636,31.999,25.636z M42.602,15.26H21.398c-3.384,0-6.138,2.754-6.138,6.138v21.204c0,3.384,2.754,6.138,6.138,6.138h21.204c3.384,0,6.138-2.754,6.138-6.138V21.398C48.74,18.013,45.987,15.26,42.602,15.26z M31.999,43.022c-6.077,0-11.021-4.945-11.021-11.023c0-6.077,4.945-11.021,11.021-11.021c6.078,0,11.023,4.945,11.023,11.021C43.022,38.077,38.077,43.022,31.999,43.022z M43.376,23.257c-1.438,0-2.608-1.17-2.608-2.608s1.17-2.608,2.608-2.608c1.438,0,2.608,1.17,2.608,2.608S44.814,23.257,43.376,23.257z M31.999,25.636c-3.508,0-6.364,2.855-6.364,6.363c0,3.509,2.856,6.366,6.364,6.366c3.509,0,6.364-2.856,6.364-6.366C38.364,28.491,35.509,25.636,31.999,25.636z M42.602,15.26H21.398c-3.384,0-6.138,2.754-6.138,6.138v21.204c0,3.384,2.754,6.138,6.138,6.138h21.204c3.384,0,6.138-2.754,6.138-6.138V21.398C48.74,18.013,45.987,15.26,42.602,15.26zM31.999,43.022c-6.077,0-11.021-4.945-11.021-11.023c0-6.077,4.945-11.021,11.021-11.021c6.078,0,11.023,4.945,11.023,11.021C43.022,38.077,38.077,43.022,31.999,43.022z M43.376,23.257c-1.438,0-2.608-1.17-2.608-2.608s1.17-2.608,2.608-2.608c1.438,0,2.608,1.17,2.608,2.608S44.814,23.257,43.376,23.257z M31.999,25.636c-3.508,0-6.364,2.855-6.364,6.363c0,3.509,2.856,6.366,6.364,6.366c3.509,0,6.364-2.856,6.364-6.366C38.364,28.491,35.509,25.636,31.999,25.636z M0,0v64h64V0H0zM53.397,42.602c0,5.953-4.842,10.795-10.795,10.795H21.398c-5.953,0-10.795-4.842-10.795-10.795V21.398c0-5.953,4.842-10.795,10.795-10.795h21.204c5.953,0,10.795,4.842,10.795,10.795L53.397,42.602L53.397,42.602z M42.602,15.26H21.398c-3.384,0-6.138,2.754-6.138,6.138v21.204c0,3.384,2.754,6.138,6.138,6.138h21.204c3.384,0,6.138-2.754,6.138-6.138V21.398C48.74,18.013,45.987,15.26,42.602,15.26z M31.999,43.022c-6.077,0-11.021-4.945-11.021-11.023c0-6.077,4.945-11.021,11.021-11.021c6.078,0,11.023,4.945,11.023,11.021C43.022,38.077,38.077,43.022,31.999,43.022z M43.376,23.257c-1.438,0-2.608-1.17-2.608-2.608s1.17-2.608,2.608-2.608c1.438,0,2.608,1.17,2.608,2.608S44.814,23.257,43.376,23.257z M31.999,25.636c-3.508,0-6.364,2.855-6.364,6.363c0,3.509,2.856,6.366,6.364,6.366c3.509,0,6.364-2.856,6.364-6.366C38.364,28.491,35.509,25.636,31.999,25.636z M31.999,25.636c-3.508,0-6.364,2.855-6.364,6.363c0,3.509,2.856,6.366,6.364,6.366c3.509,0,6.364-2.856,6.364-6.366C38.364,28.491,35.509,25.636,31.999,25.636z M31.999,25.636c-3.508,0-6.364,2.855-6.364,6.363c0,3.509,2.856,6.366,6.364,6.366c3.509,0,6.364-2.856,6.364-6.366C38.364,28.491,35.509,25.636,31.999,25.636z M42.602,15.26H21.398c-3.384,0-6.138,2.754-6.138,6.138v21.204c0,3.384,2.754,6.138,6.138,6.138h21.204c3.384,0,6.138-2.754,6.138-6.138V21.398C48.74,18.013,45.987,15.26,42.602,15.26z M31.999,43.022c-6.077,0-11.021-4.945-11.021-11.023c0-6.077,4.945-11.021,11.021-11.021c6.078,0,11.023,4.945,11.023,11.021C43.022,38.077,38.077,43.022,31.999,43.022z M43.376,23.257c-1.438,0-2.608-1.17-2.608-2.608s1.17-2.608,2.608-2.608c1.438,0,2.608,1.17,2.608,2.608S44.814,23.257,43.376,23.257z M31.999,25.636c-3.508,0-6.364,2.855-6.364,6.363c0,3.509,2.856,6.366,6.364,6.366c3.509,0,6.364-2.856,6.364-6.366C38.364,28.491,35.509,25.636,31.999,25.636z M31.999,25.636c-3.508,0-6.364,2.855-6.364,6.363c0,3.509,2.856,6.366,6.364,6.366c3.509,0,6.364-2.856,6.364-6.366C38.364,28.491,35.509,25.636,31.999,25.636z M31.999,25.636c-3.508,0-6.364,2.855-6.364,6.363c0,3.509,2.856,6.366,6.364,6.366c3.509,0,6.364-2.856,6.364-6.366C38.364,28.491,35.509,25.636,31.999,25.636z M42.602,15.26H21.398c-3.384,0-6.138,2.754-6.138,6.138v21.204c0,3.384,2.754,6.138,6.138,6.138h21.204c3.384,0,6.138-2.754,6.138-6.138V21.398C48.74,18.013,45.987,15.26,42.602,15.26z M31.999,43.022c-6.077,0-11.021-4.945-11.021-11.023c0-6.077,4.945-11.021,11.021-11.021c6.078,0,11.023,4.945,11.023,11.021C43.022,38.077,38.077,43.022,31.999,43.022z M43.376,23.257c-1.438,0-2.608-1.17-2.608-2.608s1.17-2.608,2.608-2.608c1.438,0,2.608,1.17,2.608,2.608S44.814,23.257,43.376,23.257z M31.999,25.636c-3.508,0-6.364,2.855-6.364,6.363c0,3.509,2.856,6.366,6.364,6.366c3.509,0,6.364-2.856,6.364-6.366C38.364,28.491,35.509,25.636,31.999,25.636z"/>
</svg>